<svg width="24" height="24" viewBox="0 0 24 24" fill="none" xmlns="http://www.w3.org/2000/svg">
<path fill-rule="evenodd" clip-rule="evenodd" d="M15.9 3.89961V4.59961H20C20.497 4.59961 20.9 5.00255 20.9 5.49961C20.9 5.99667 20.497 6.39961 20 6.39961H3.99998C3.50292 6.39961 3.09998 5.99667 3.09998 5.49961C3.09998 5.00255 3.50292 4.59961 3.99998 4.59961H8.09998V3.89961C8.09998 2.62935 9.12972 1.59961 10.4 1.59961H13.6C14.8702 1.59961 15.9 2.62935 15.9 3.89961ZM9.89998 3.89961C9.89998 3.62347 10.1238 3.39961 10.4 3.39961H13.6C13.8761 3.39961 14.1 3.62347 14.1 3.89961V4.59961H9.89998V3.89961Z" fill="#909AAA"/>
<path fill-rule="evenodd" clip-rule="evenodd" d="M5.56107 7.59961C4.72429 7.59961 4.07438 8.32882 4.17029 9.16008L5.36081 19.4779C5.55294 21.143 6.96286 22.3996 8.63906 22.3996H15.3611C17.0373 22.3996 18.4472 21.143 18.6393 19.4779L19.8298 9.16008C19.9257 8.32882 19.2758 7.59961 18.439 7.59961H5.56107ZM7.14894 19.2715L6.00987 9.39961H17.9902L16.8512 19.2715C16.7638 20.0284 16.123 20.5996 15.3611 20.5996H8.63906C7.87715 20.5996 7.23628 20.0284 7.14894 19.2715Z" fill="#909AAA"/>
</svg>
