<svg width="24" height="24" viewBox="0 0 24 24" fill="none" xmlns="http://www.w3.org/2000/svg">
<path d="M6.0001 2.09998C3.2939 2.09998 1.1001 4.29378 1.1001 6.99998V17C1.1001 19.7062 3.2939 21.9 6.0001 21.9H11.0001C13.7063 21.9 15.9001 19.7062 15.9001 17V16.5C15.9001 16.0029 15.4972 15.6 15.0001 15.6C14.503 15.6 14.1001 16.0029 14.1001 16.5V17C14.1001 18.7121 12.7122 20.1 11.0001 20.1H6.0001C4.28801 20.1 2.9001 18.7121 2.9001 17V6.99998C2.9001 5.28789 4.28802 3.89998 6.0001 3.89998H11.0001C12.7122 3.89998 14.1001 5.28789 14.1001 6.99998V7.49998C14.1001 7.99703 14.503 8.39998 15.0001 8.39998C15.4972 8.39998 15.9001 7.99703 15.9001 7.49998V6.99998C15.9001 4.29378 13.7063 2.09998 11.0001 2.09998H6.0001Z" fill="#909AAA"/>
<path d="M9.0001 11.1C8.50304 11.1 8.1001 11.503 8.1001 12C8.1001 12.4971 8.50304 12.9 9.0001 12.9H19.8273L17.3637 15.3636C17.0122 15.7151 17.0122 16.2849 17.3637 16.6364C17.7152 16.9879 18.285 16.9879 18.6365 16.6364L22.6365 12.6364C22.988 12.2849 22.988 11.7151 22.6365 11.3636L18.6365 7.36363C18.285 7.01216 17.7152 7.01216 17.3637 7.36363C17.0122 7.7151 17.0122 8.28495 17.3637 8.63642L19.8273 11.1H9.0001Z" fill="#909AAA"/>
</svg>
