<svg width="24" height="24" viewBox="0 0 24 24" fill="none" xmlns="http://www.w3.org/2000/svg">
<path fill-rule="evenodd" clip-rule="evenodd" d="M5 8C6.34344 8 7.48062 7.11694 7.86278 5.89961H21C21.497 5.89961 21.9 5.49667 21.9 4.99961C21.9 4.50255 21.497 4.09961 21 4.09961H7.86254C7.48014 2.88268 6.34315 2 5 2C3.34315 2 2 3.34315 2 5C2 6.65685 3.34315 8 5 8ZM5 6.2C5.66274 6.2 6.2 5.66274 6.2 5C6.2 4.33726 5.66274 3.8 5 3.8C4.33726 3.8 3.8 4.33726 3.8 5C3.8 5.66274 4.33726 6.2 5 6.2Z" fill="#909AAA"/>
<path fill-rule="evenodd" clip-rule="evenodd" d="M2.99998 11.0996C2.50292 11.0996 2.09998 11.5026 2.09998 11.9996C2.09998 12.4967 2.50292 12.8996 2.99998 12.8996H9.13722C9.51938 14.1169 10.6566 15 12 15C13.3434 15 14.4806 14.1169 14.8628 12.8996H21C21.497 12.8996 21.9 12.4967 21.9 11.9996C21.9 11.5026 21.497 11.0996 21 11.0996H14.8625C14.4801 9.88268 13.3431 9 12 9C10.6569 9 9.51986 9.88268 9.13746 11.0996H2.99998ZM13.2 12C13.2 12.6627 12.6627 13.2 12 13.2C11.3373 13.2 10.8 12.6627 10.8 12C10.8 11.3373 11.3373 10.8 12 10.8C12.6627 10.8 13.2 11.3373 13.2 12Z" fill="#909AAA"/>
<path fill-rule="evenodd" clip-rule="evenodd" d="M2.09998 18.9996C2.09998 18.5026 2.50292 18.0996 2.99998 18.0996H16.1375C16.5199 16.8827 17.6569 16 19 16C20.6569 16 22 17.3431 22 19C22 20.6569 20.6569 22 19 22C17.6566 22 16.5194 21.1169 16.1372 19.8996H2.99998C2.50292 19.8996 2.09998 19.4967 2.09998 18.9996ZM20.2 19C20.2 19.6627 19.6627 20.2 19 20.2C18.3373 20.2 17.8 19.6627 17.8 19C17.8 18.3373 18.3373 17.8 19 17.8C19.6627 17.8 20.2 18.3373 20.2 19Z" fill="#909AAA"/>
</svg>
