<svg width="24" height="24" viewBox="0 0 24 24" fill="none" xmlns="http://www.w3.org/2000/svg">
<path d="M12 23.2012C17.9941 23.2012 22.957 18.2383 22.957 12.2441C22.957 6.26074 17.9834 1.28711 11.9893 1.28711C6.00586 1.28711 1.04297 6.26074 1.04297 12.2441C1.04297 18.2383 6.0166 23.2012 12 23.2012ZM12 21.375C6.92969 21.375 2.87988 17.3145 2.87988 12.2441C2.87988 7.18457 6.91895 3.11328 11.9893 3.11328C17.0596 3.11328 21.1201 7.18457 21.1309 12.2441C21.1416 17.3145 17.0703 21.375 12 21.375ZM11.9785 17.3467C12.5479 17.3467 12.8916 16.9492 12.8916 16.3262V13.1465H16.2539C16.8555 13.1465 17.2744 12.835 17.2744 12.2656C17.2744 11.6855 16.877 11.3525 16.2539 11.3525H12.8916V7.97949C12.8916 7.3457 12.5479 6.95898 11.9785 6.95898C11.4092 6.95898 11.0869 7.36719 11.0869 7.97949V11.3525H7.73535C7.1123 11.3525 6.7041 11.6855 6.7041 12.2656C6.7041 12.835 7.13379 13.1465 7.73535 13.1465H11.0869V16.3262C11.0869 16.9277 11.4092 17.3467 11.9785 17.3467Z" fill="#909AAA"/>
</svg>
