<svg width="24" height="24" viewBox="0 0 24 24" fill="none" xmlns="http://www.w3.org/2000/svg">
<path d="M8.3285 11.4349C7.97703 11.0834 7.40718 11.0834 7.05571 11.4349C6.70424 11.7864 6.70424 12.3562 7.05571 12.7077L10.2294 15.8814C10.5809 16.2328 11.1507 16.2328 11.5022 15.8814L17.4325 9.95106C17.784 9.59959 17.784 9.02974 17.4325 8.67827C17.081 8.3268 16.5112 8.3268 16.1597 8.67827L10.8658 13.9722L8.3285 11.4349Z" fill="#909AAA"/>
<path fill-rule="evenodd" clip-rule="evenodd" d="M23 12C23 18.0751 18.0751 23 12 23C5.92487 23 1 18.0751 1 12C1 5.92487 5.92487 1 12 1C18.0751 1 23 5.92487 23 12ZM21.2 12C21.2 17.081 17.081 21.2 12 21.2C6.91898 21.2 2.8 17.081 2.8 12C2.8 6.91898 6.91898 2.8 12 2.8C17.081 2.8 21.2 6.91898 21.2 12Z" fill="#909AAA"/>
</svg>
