<svg width="24" height="24" viewBox="0 0 24 24" fill="none" xmlns="http://www.w3.org/2000/svg">
<path d="M12.8 6.4C12.8 5.90294 12.3971 5.5 11.9 5.5C11.4029 5.5 11 5.90294 11 6.4L11 12.1C11 12.5971 11.403 13 11.9 13C12.3971 13 12.8 12.5971 12.8 12.1L12.8 6.4Z" fill="#909AAA"/>
<path d="M11.9 14.5C12.3971 14.5 12.8 14.9029 12.8 15.4C12.8 15.8971 12.3971 16.3004 11.9 16.3004C11.4029 16.3004 11 15.8974 11 15.4004C11 14.9033 11.4029 14.5 11.9 14.5Z" fill="#909AAA"/>
<path fill-rule="evenodd" clip-rule="evenodd" d="M10.6001 1.59961C5.68474 1.59961 1.70007 5.58428 1.70007 10.4996V21.4996C1.70007 21.8101 1.86008 22.0986 2.12342 22.263C2.38677 22.4274 2.71626 22.4445 2.9952 22.3082L6.97965 20.3613C7.13003 20.2878 7.2952 20.2496 7.46258 20.2496H13.6001C18.5154 20.2496 22.5001 16.2649 22.5001 11.3496V10.4996C22.5001 5.58427 18.5154 1.59961 13.6001 1.59961H10.6001ZM3.50007 10.4996C3.50007 6.57839 6.67885 3.39961 10.6001 3.39961H13.6001C17.5213 3.39961 20.7001 6.57839 20.7001 10.4996V11.3496C20.7001 15.2708 17.5213 18.4496 13.6001 18.4496H7.46258C7.02131 18.4496 6.58587 18.5503 6.1894 18.744L3.50007 20.0581V10.4996Z" fill="#909AAA"/>
</svg>
