<svg width="24" height="24" viewBox="0 0 24 24" fill="none" xmlns="http://www.w3.org/2000/svg">
<path fill-rule="evenodd" clip-rule="evenodd" d="M12.0001 5.5C9.2939 5.5 7.1001 7.6938 7.1001 10.4C7.1001 13.1062 9.2939 15.3 12.0001 15.3C14.7063 15.3 16.9001 13.1062 16.9001 10.4C16.9001 7.6938 14.7063 5.5 12.0001 5.5ZM8.9001 10.4C8.9001 8.68792 10.288 7.3 12.0001 7.3C13.7122 7.3 15.1001 8.68792 15.1001 10.4C15.1001 12.1121 13.7122 13.5 12.0001 13.5C10.288 13.5 8.9001 12.1121 8.9001 10.4Z" fill="#909AAA"/>
<path fill-rule="evenodd" clip-rule="evenodd" d="M12.0001 1.5C7.10047 1.5 3.1001 5.40369 3.1001 10.2539C3.1001 11.5356 3.55782 12.9186 4.20197 14.2237C4.85285 15.5425 5.73035 16.8543 6.65297 18.0139C7.57528 19.1731 8.56151 20.2037 9.44387 20.954C9.88384 21.3282 10.315 21.6471 10.713 21.8777C11.0791 22.0898 11.5379 22.3 12.0001 22.3C12.4623 22.3 12.9211 22.0898 13.2872 21.8777C13.6852 21.6471 14.1164 21.3282 14.5563 20.954C15.4387 20.2037 16.4249 19.1731 17.3472 18.0139C18.2698 16.8543 19.1473 15.5425 19.7982 14.2237C20.4424 12.9186 20.9001 11.5356 20.9001 10.2539C20.9001 5.40369 16.8997 1.5 12.0001 1.5ZM4.9001 10.2539C4.9001 6.42894 8.06317 3.3 12.0001 3.3C15.937 3.3 19.1001 6.42894 19.1001 10.2539C19.1001 11.141 18.7721 12.2357 18.1841 13.4271C17.6028 14.6048 16.8018 15.8084 15.9387 16.8932C15.0753 17.9783 14.1687 18.9209 13.3903 19.5828C12.9999 19.9147 12.6587 20.1616 12.3848 20.3202C12.1542 20.4539 12.0334 20.4882 12.0025 20.497L12.0001 20.4977L11.9977 20.497C11.9668 20.4882 11.846 20.4539 11.6154 20.3202C11.3415 20.1616 11.0003 19.9147 10.6099 19.5828C9.83154 18.9209 8.92491 17.9783 8.06151 16.8932C7.19842 15.8084 6.39735 14.6048 5.81609 13.4271C5.22809 12.2357 4.9001 11.141 4.9001 10.2539Z" fill="#909AAA"/>
</svg>
