<svg width="24" height="24" viewBox="0 0 24 24" fill="none" xmlns="http://www.w3.org/2000/svg">
<path d="M17.0032 18.8919C16.6673 19.2583 16.6921 19.8276 17.0585 20.1635C17.4249 20.4993 17.9942 20.4746 18.3301 20.1082L20.3301 17.9264C20.6455 17.5823 20.6455 17.0541 20.3301 16.71L18.3301 14.5282C17.9942 14.1618 17.4249 14.1371 17.0585 14.4729C16.6921 14.8088 16.6673 15.3781 17.0032 15.7445L17.6207 16.4182H16C14.8402 16.4182 13.9 15.478 13.9 14.3182L13.9 12C13.9 11.503 13.4971 11.1 13 11.1C12.5029 11.1 12.1 11.503 12.1 12L12.1 14.3182C12.1 16.4721 13.8461 18.2182 16 18.2182H17.6207L17.0032 18.8919Z" fill="#909AAA"/>
<path fill-rule="evenodd" clip-rule="evenodd" d="M3.00001 0.0999756C1.39838 0.0999756 0.100006 1.39835 0.100006 2.99998V13C0.100006 14.6016 1.39838 15.9 3.00001 15.9H7.00924C7.2181 20.4087 10.9397 24 15.5 24C20.1944 24 24 20.1944 24 15.5C24 11.2824 20.9283 7.78231 16.9 7.11475V2.99998C16.9 1.39835 15.6016 0.0999756 14 0.0999756H3.00001ZM15.1 7.00925C11.0628 7.19627 7.7611 10.1998 7.11475 14.1H3.00001C2.39249 14.1 1.90001 13.6075 1.90001 13V2.99998C1.90001 2.39246 2.39249 1.89998 3.00001 1.89998H5.09999L5.09999 6C5.09999 6.34596 5.29831 6.66131 5.61012 6.81117C5.92194 6.96104 6.29207 6.9189 6.56222 6.70278L8.49999 5.15256L10.4378 6.70278C10.7079 6.91891 11.078 6.96104 11.3899 6.81117C11.7017 6.66131 11.9 6.34597 11.9 6L11.9 1.89998H14C14.6075 1.89998 15.1 2.39246 15.1 2.99998V7.00925ZM10.1 1.89998H6.89999L6.89999 4.12744L7.93777 3.29722C8.26647 3.03426 8.73352 3.03426 9.06222 3.29722L10.1 4.12744V1.89998ZM15.5 22.2C19.2003 22.2 22.2 19.2003 22.2 15.5C22.2 11.7997 19.2003 8.8 15.5 8.8C11.7997 8.8 8.8 11.7997 8.8 15.5C8.8 19.2003 11.7997 22.2 15.5 22.2Z" fill="#909AAA"/>
</svg>
