<svg width="24" height="24" viewBox="0 0 24 24" fill="none" xmlns="http://www.w3.org/2000/svg">
<path fill-rule="evenodd" clip-rule="evenodd" d="M2 5C2 3.34315 3.34315 2 5 2H8C9.65685 2 11 3.34315 11 5V8C11 9.65685 9.65685 11 8 11H5C3.34315 11 2 9.65685 2 8V5ZM5 3.8H8C8.66274 3.8 9.2 4.33726 9.2 5V8C9.2 8.66274 8.66274 9.2 8 9.2H5C4.33726 9.2 3.8 8.66274 3.8 8V5C3.8 4.33726 4.33726 3.8 5 3.8Z" fill="#909AAA"/>
<path fill-rule="evenodd" clip-rule="evenodd" d="M13 5C13 3.34315 14.3431 2 16 2H19C20.6569 2 22 3.34315 22 5V8C22 9.65685 20.6569 11 19 11H16C14.3431 11 13 9.65685 13 8V5ZM16 3.8H19C19.6627 3.8 20.2 4.33726 20.2 5V8C20.2 8.66274 19.6627 9.2 19 9.2H16C15.3373 9.2 14.8 8.66274 14.8 8V5C14.8 4.33726 15.3373 3.8 16 3.8Z" fill="#909AAA"/>
<path fill-rule="evenodd" clip-rule="evenodd" d="M16 13C14.3431 13 13 14.3431 13 16V19C13 20.6569 14.3431 22 16 22H19C20.6569 22 22 20.6569 22 19V16C22 14.3431 20.6569 13 19 13H16ZM19 14.8H16C15.3373 14.8 14.8 15.3373 14.8 16V19C14.8 19.6627 15.3373 20.2 16 20.2H19C19.6627 20.2 20.2 19.6627 20.2 19V16C20.2 15.3373 19.6627 14.8 19 14.8Z" fill="#909AAA"/>
<path fill-rule="evenodd" clip-rule="evenodd" d="M2 16C2 14.3431 3.34315 13 5 13H8C9.65685 13 11 14.3431 11 16V19C11 20.6569 9.65685 22 8 22H5C3.34315 22 2 20.6569 2 19V16ZM5 14.8H8C8.66274 14.8 9.2 15.3373 9.2 16V19C9.2 19.6627 8.66274 20.2 8 20.2H5C4.33726 20.2 3.8 19.6627 3.8 19V16C3.8 15.3373 4.33726 14.8 5 14.8Z" fill="#909AAA"/>
</svg>
