<svg width="24" height="24" viewBox="0 0 24 24" fill="none" xmlns="http://www.w3.org/2000/svg">
<path fill-rule="evenodd" clip-rule="evenodd" d="M7 10.7998C8.933 10.7998 10.5 9.2328 10.5 7.2998C10.5 5.36681 8.933 3.7998 7 3.7998C5.067 3.7998 3.5 5.36681 3.5 7.2998C3.5 9.2328 5.067 10.7998 7 10.7998ZM7 8.9998C7.93888 8.9998 8.7 8.23869 8.7 7.2998C8.7 6.36092 7.93888 5.5998 7 5.5998C6.06112 5.5998 5.3 6.36092 5.3 7.2998C5.3 8.23869 6.06112 8.9998 7 8.9998Z" fill="#909AAA"/>
<path d="M5.22741 17.227C4.87594 17.5785 4.87594 18.1483 5.22741 18.4998C5.57888 18.8513 6.14873 18.8513 6.5002 18.4998L18.5002 6.4998C18.8517 6.14833 18.8517 5.57848 18.5002 5.22701C18.1487 4.87554 17.5789 4.87554 17.2274 5.22701L5.22741 17.227Z" fill="#909AAA"/>
<path fill-rule="evenodd" clip-rule="evenodd" d="M20 16.4998C20 18.4328 18.433 19.9998 16.5 19.9998C14.567 19.9998 13 18.4328 13 16.4998C13 14.5668 14.567 12.9998 16.5 12.9998C18.433 12.9998 20 14.5668 20 16.4998ZM18.2 16.4998C18.2 17.4387 17.4389 18.1998 16.5 18.1998C15.5611 18.1998 14.8 17.4387 14.8 16.4998C14.8 15.5609 15.5611 14.7998 16.5 14.7998C17.4389 14.7998 18.2 15.5609 18.2 16.4998Z" fill="#909AAA"/>
</svg>
