<svg width="24" height="24" viewBox="0 0 24 24" fill="none" xmlns="http://www.w3.org/2000/svg">
<path fill-rule="evenodd" clip-rule="evenodd" d="M5.25468 5.8L11.2692 11.1462C11.686 11.5167 12.314 11.5167 12.7308 11.1462L18.7453 5.8H5.25468ZM3.8 6.91527V18C3.8 18.1105 3.88954 18.2 4 18.2H20C20.1105 18.2 20.2 18.1105 20.2 18V6.91527L13.9267 12.4916C12.8279 13.4683 11.1721 13.4683 10.0733 12.4916L3.8 6.91527ZM4 4C2.89543 4 2 4.89543 2 6V18C2 19.1046 2.89543 20 4 20H20C21.1046 20 22 19.1046 22 18V6C22 4.89543 21.1046 4 20 4H4Z" fill="#909AAA"/>
</svg>
