<svg width="24" height="24" viewBox="0 0 24 24" fill="none" xmlns="http://www.w3.org/2000/svg">
<path d="M1 5.1002C1 4.60314 1.33164 4.2002 1.74074 4.2002H22.2593C22.6684 4.2002 23 4.60314 23 5.1002C23 5.59725 22.6684 6.0002 22.2593 6.0002H1.74074C1.33164 6.0002 1 5.59725 1 5.1002Z" fill="#909AAA"/>
<path d="M1 12.1002C1 11.6031 1.33164 11.2002 1.74074 11.2002H22.2593C22.6684 11.2002 23 11.6031 23 12.1002C23 12.5973 22.6684 13.0002 22.2593 13.0002H1.74074C1.33164 13.0002 1 12.5973 1 12.1002Z" fill="#909AAA"/>
<path d="M1.76128 18.2002C1.34084 18.2002 1 18.6031 1 19.1002C1 19.5973 1.34084 20.0002 1.76128 20.0002H22.2387C22.6592 20.0002 23 19.5973 23 19.1002C23 18.6031 22.6592 18.2002 22.2387 18.2002H1.76128Z" fill="#909AAA"/>
</svg>
