<svg width="26" height="26" viewBox="0 0 26 26" fill="#909AAA" xmlns="http://www.w3.org/2000/svg">
<path fill-rule="evenodd" clip-rule="evenodd" d="M11.1947 3.21352C11.8549 1.59597 14.1454 1.59596 14.8056 3.21352L16.8554 8.23618L23.1332 8.86342C24.9429 9.04423 25.5417 11.3852 24.041 12.4127L19.2492 15.6938L20.5418 21.8098C20.919 23.5943 18.8585 24.8736 17.4264 23.7442L12.994 20.2485L8.44248 23.7554C6.99201 24.873 4.9402 23.5559 5.35236 21.7718L6.78166 15.585L2.03628 12.4204C0.51325 11.4047 1.10274 9.03971 2.92431 8.85771L9.14488 8.23618L11.1947 3.21352ZM13.2008 3.86848C13.1274 3.68875 12.8729 3.68875 12.7996 3.86848L10.6758 9.07228C10.4787 9.55519 10.0309 9.88962 9.51188 9.94148L3.09664 10.5825C3.03113 10.589 2.99553 10.611 2.97253 10.632C2.94517 10.6571 2.92032 10.696 2.90794 10.7456C2.89557 10.7953 2.89924 10.8413 2.91165 10.8763C2.92208 10.9057 2.94319 10.9418 2.99797 10.9783L7.93026 14.2675C8.41767 14.5926 8.65295 15.1854 8.52108 15.7562L7.04121 22.162C7.02639 22.2261 7.0358 22.2669 7.04836 22.2954C7.0633 22.3294 7.09221 22.3654 7.13528 22.3931C7.17834 22.4207 7.22314 22.432 7.26022 22.4314C7.29139 22.431 7.33239 22.4226 7.38456 22.3824L12.1367 18.7208C12.648 18.3269 13.3616 18.3309 13.8684 18.7306L18.4998 22.3832C18.5512 22.4237 18.592 22.4327 18.6232 22.4336C18.6602 22.4346 18.705 22.424 18.7483 22.3971C18.7915 22.3703 18.8209 22.3349 18.8364 22.3012C18.8495 22.2728 18.8595 22.2323 18.846 22.1683L17.5084 15.8397C17.3905 15.2821 17.6203 14.7084 18.0906 14.3864L23.0617 10.9825C23.1155 10.9457 23.1362 10.9096 23.1464 10.88C23.1585 10.845 23.1618 10.7992 23.1492 10.7501C23.1366 10.7009 23.1118 10.6623 23.0844 10.6374C23.0612 10.6164 23.0257 10.5946 22.9608 10.5882L16.4884 9.94148C15.9695 9.88962 15.5216 9.55518 15.3245 9.07228L13.2008 3.86848Z"/>
</svg>
