<svg width="24" height="24" viewBox="0 0 24 24" fill="none" xmlns="http://www.w3.org/2000/svg">
<path fill-rule="evenodd" clip-rule="evenodd" d="M12.0001 3.09998C9.2939 3.09998 7.1001 5.29378 7.1001 7.99998C7.1001 9.45088 7.73071 10.7545 8.73279 11.6517C5.5807 12.7532 3.15645 15.404 2.37088 18.691C2.07833 19.915 3.07852 20.9 4.17211 20.9H19.8274C20.9204 20.9 21.9217 19.9156 21.629 18.691C20.8435 15.4041 18.4193 12.7533 15.2673 11.6518C16.2695 10.7546 16.9001 9.45092 16.9001 7.99998C16.9001 5.29378 14.7063 3.09998 12.0001 3.09998ZM8.9001 7.99998C8.9001 6.28789 10.288 4.89998 12.0001 4.89998C13.7122 4.89998 15.1001 6.28789 15.1001 7.99998C15.1001 9.71206 13.7122 11.1 12.0001 11.1C10.288 11.1 8.9001 9.71206 8.9001 7.99998ZM4.17211 19.1C4.15079 19.1 4.13584 19.0943 4.12655 19.0887C4.98529 15.5372 8.18575 12.9 12 12.9C15.8141 12.9 19.0145 15.5371 19.8733 19.0885C19.864 19.0942 19.8489 19.1 19.8274 19.1H4.17211Z" fill="#909AAA"/>
</svg>
