<svg width="24" height="24" viewBox="0 0 24 24" fill="none" xmlns="http://www.w3.org/2000/svg">
<path fill-rule="evenodd" clip-rule="evenodd" d="M12 22C17.5228 22 22 17.5228 22 12C22 6.47715 17.5228 2 12 2C6.47715 2 2 6.47715 2 12C2 17.5228 6.47715 22 12 22ZM12 20.2C16.5287 20.2 20.2 16.5287 20.2 12C20.2 10.0599 19.5262 8.27713 18.3999 6.87299L6.87299 18.3999C8.27713 19.5262 10.0599 20.2 12 20.2ZM5.60019 17.1271L17.1271 5.60019C15.7229 4.47381 13.9402 3.8 12 3.8C7.47126 3.8 3.8 7.47126 3.8 12C3.8 13.9402 4.47381 15.7229 5.60019 17.1271Z" fill="#909AAA"/>
</svg>
