<svg width="24" height="24" viewBox="0 0 24 24" fill="none" xmlns="http://www.w3.org/2000/svg">
<path d="M15.3635 16.6364C15.715 16.9878 16.2848 16.9878 16.6363 16.6364C16.9878 16.2849 16.9878 15.7151 16.6363 15.3636L12.8999 11.6272L12.8999 6.99998C12.8999 6.50292 12.4969 6.09997 11.9999 6.09998C11.5028 6.09998 11.0999 6.50292 11.0999 6.99998L11.0999 12C11.0999 12.2387 11.1947 12.4676 11.3635 12.6364L15.3635 16.6364Z" fill="#909AAA"/>
<path fill-rule="evenodd" clip-rule="evenodd" d="M22 12C22 17.5228 17.5228 22 12 22C6.47715 22 2 17.5228 2 12C2 6.47715 6.47715 2 12 2C17.5228 2 22 6.47715 22 12ZM20.2 12C20.2 16.5287 16.5287 20.2 12 20.2C7.47126 20.2 3.8 16.5287 3.8 12C3.8 7.47126 7.47126 3.8 12 3.8C16.5287 3.8 20.2 7.47126 20.2 12Z" fill="#909AAA"/>
</svg>
