<svg width="24" height="24" viewBox="0 0 24 24" fill="none" xmlns="http://www.w3.org/2000/svg">
<path fill-rule="evenodd" clip-rule="evenodd" d="M10.7374 3.54563C11.2826 3.00042 12.1666 3.00042 12.7118 3.54562L13.3699 4.20375C13.9151 4.74896 13.9151 5.63292 13.3699 6.17813C12.8764 6.67169 12.1052 6.71844 11.559 6.31839C11.2423 6.94594 11.0625 7.66183 11.0625 8.4235C11.0625 10.9385 13.0146 12.9379 15.375 12.9379C17.7354 12.9379 19.6875 10.9385 19.6875 8.4235C19.6875 7.68379 19.5179 6.98726 19.218 6.3729C18.6786 6.71293 17.9571 6.64801 17.4872 6.17813C16.942 5.63292 16.942 4.74897 17.4872 4.20376L18.1454 3.54563C18.6906 3.00042 19.5745 3.00042 20.1197 3.54563C20.665 4.09084 20.665 4.9748 20.1197 5.52001L20.0674 5.57237C20.5414 6.41005 20.8125 7.38504 20.8125 8.4235C20.8125 11.322 18.6931 13.7407 15.9375 14.0332V17.4692C15.9375 19.3159 14.4405 20.8129 12.5937 20.8129C10.747 20.8129 9.25 19.3159 9.25 17.4692V14.6567C9.25 13.5003 8.3126 12.5629 7.15625 12.5629C6.11866 12.5629 5.25736 13.3177 5.09139 14.3081C5.83714 14.5558 6.375 15.259 6.375 16.0879C6.375 17.1235 5.53553 17.9629 4.5 17.9629C3.46447 17.9629 2.625 17.1235 2.625 16.0879C2.625 15.2409 3.18667 14.525 3.95788 14.2925C4.13875 12.6863 5.50171 11.4379 7.15625 11.4379C8.93392 11.4379 10.375 12.879 10.375 14.6567V17.4692C10.375 18.6945 11.3684 19.6879 12.5937 19.6879C13.8191 19.6879 14.8125 18.6945 14.8125 17.4692V14.0332C12.0569 13.7407 9.9375 11.322 9.9375 8.4235C9.9375 7.35674 10.2235 6.35694 10.7218 5.50418C10.1923 4.95782 10.1975 4.08559 10.7374 3.54563ZM12.191 5.38263L11.5329 4.72451C11.427 4.61864 11.427 4.44699 11.5329 4.34112C11.6388 4.23525 11.8104 4.23525 11.9163 4.34112L12.5744 4.99925C12.6803 5.10511 12.6803 5.27676 12.5744 5.38263C12.4686 5.4885 12.2969 5.4885 12.191 5.38263ZM18.9409 4.34113L18.2827 4.99925C18.1769 5.10512 18.1769 5.27677 18.2827 5.38264C18.3886 5.48851 18.5603 5.48851 18.6661 5.38264L19.3243 4.72451C19.4301 4.61864 19.4301 4.447 19.3243 4.34113C19.2184 4.23526 19.0467 4.23526 18.9409 4.34113ZM4.5 16.8379C4.91421 16.8379 5.25 16.5021 5.25 16.0879C5.25 15.6737 4.91421 15.3379 4.5 15.3379C4.08579 15.3379 3.75 15.6737 3.75 16.0879C3.75 16.5021 4.08579 16.8379 4.5 16.8379Z" fill="#909AAA"/>
</svg>
