<svg width="24" height="24" viewBox="0 0 24 24" fill="none" xmlns="http://www.w3.org/2000/svg">
<path fill-rule="evenodd" clip-rule="evenodd" d="M8.25 9.75046C8.25 8.92203 8.92157 8.25046 9.75 8.25046C10.5784 8.25046 11.25 8.92203 11.25 9.75046C11.25 10.5789 10.5784 11.2505 9.75 11.2505C8.92157 11.2505 8.25 10.5789 8.25 9.75046ZM9.75 10.1255C9.54289 10.1255 9.375 9.95756 9.375 9.75046C9.375 9.54335 9.54289 9.37546 9.75 9.37546C9.95711 9.37546 10.125 9.54335 10.125 9.75046C10.125 9.95756 9.95711 10.1255 9.75 10.1255Z" fill="#909AAA"/>
<path fill-rule="evenodd" clip-rule="evenodd" d="M14.25 12.7505C13.4216 12.7505 12.75 13.422 12.75 14.2505C12.75 15.0789 13.4216 15.7505 14.25 15.7505C15.0784 15.7505 15.75 15.0789 15.75 14.2505C15.75 13.422 15.0784 12.7505 14.25 12.7505ZM13.875 14.2505C13.875 14.4576 14.0429 14.6255 14.25 14.6255C14.4571 14.6255 14.625 14.4576 14.625 14.2505C14.625 14.0434 14.4571 13.8755 14.25 13.8755C14.0429 13.8755 13.875 14.0434 13.875 14.2505Z" fill="#909AAA"/>
<path d="M14.9467 10.1747C15.181 9.94042 15.181 9.56053 14.9467 9.32621C14.7124 9.0919 14.3325 9.0919 14.0982 9.32621L9.32523 14.0992C9.09091 14.3335 9.09091 14.7134 9.32523 14.9477C9.55954 15.182 9.93944 15.182 10.1738 14.9477L14.9467 10.1747Z" fill="#909AAA"/>
<path fill-rule="evenodd" clip-rule="evenodd" d="M10.9855 3.18084C11.5592 2.65456 12.4401 2.65456 13.0137 3.18084L13.9355 4.02662C14.256 4.32062 14.6883 4.46107 15.1203 4.41158L16.3633 4.26919C17.1367 4.18059 17.8493 4.69836 18.0041 5.46129L18.2527 6.6874C18.3392 7.11361 18.6063 7.48132 18.985 7.69524L20.0742 8.31062C20.752 8.69354 21.0242 9.53132 20.7009 10.2395L20.1814 11.3776C20.0008 11.7732 20.0009 12.2277 20.1814 12.6234L20.7009 13.7615C21.0242 14.4696 20.752 15.3074 20.0742 15.6903L18.985 16.3057C18.6063 16.5196 18.3392 16.8873 18.2527 17.3135L18.0041 18.5397C17.8493 19.3026 17.1367 19.8204 16.3633 19.7318L15.1203 19.5894C14.6883 19.5399 14.256 19.6803 13.9355 19.9743L13.0137 20.8201C12.4401 21.3464 11.5592 21.3464 10.9855 20.8201L10.0637 19.9743C9.74323 19.6803 9.31096 19.5399 8.8789 19.5894L7.63596 19.7318C6.86255 19.8204 6.1499 19.3026 5.99517 18.5397L5.7465 17.3135C5.66006 16.8873 5.3929 16.5196 5.01426 16.3057L3.92501 15.6903C3.24723 15.3074 2.97502 14.4696 3.29828 13.7615L3.81779 12.6234C3.99838 12.2277 3.99838 11.7732 3.81779 11.3776L3.29828 10.2395C2.97502 9.53132 3.24723 8.69354 3.92501 8.31062L5.01426 7.69524C5.3929 7.48132 5.66006 7.11361 5.7465 6.6874L5.99517 5.46129C6.1499 4.69836 6.86255 4.18059 7.63596 4.26919L8.8789 4.41158C9.31096 4.46107 9.74323 4.32062 10.0637 4.02662L10.9855 3.18084ZM12.2024 4.06507L13.1243 4.91085C13.7011 5.44005 14.4792 5.69287 15.2569 5.60378L16.4998 5.46139C16.6545 5.44367 16.7971 5.54723 16.828 5.69981L17.0767 6.92592C17.2323 7.69309 17.7132 8.35498 18.3947 8.74003L19.484 9.35541C19.6195 9.432 19.674 9.59955 19.6093 9.74119L19.0898 10.8793C18.7647 11.5914 18.7647 12.4095 19.0898 13.1217L19.6093 14.2598C19.674 14.4014 19.6195 14.569 19.484 14.6455L18.3947 15.2609C17.7132 15.646 17.2323 16.3079 17.0767 17.075L16.828 18.3011C16.7971 18.4537 16.6545 18.5573 16.4998 18.5396L15.2569 18.3972C14.4792 18.3081 13.7011 18.5609 13.1243 19.0901L12.2024 19.9359C12.0877 20.0411 11.9115 20.0411 11.7968 19.9359L10.8749 19.0901C10.2981 18.5609 9.52003 18.3081 8.74232 18.3972L7.49938 18.5396C7.3447 18.5573 7.20217 18.4537 7.17122 18.3011L6.92255 17.075C6.76696 16.3079 6.28607 15.646 5.60453 15.2609L4.51527 14.6455C4.37972 14.569 4.32528 14.4014 4.38993 14.2598L4.90944 13.1217C5.23449 12.4095 5.23449 11.5914 4.90944 10.8793L4.38993 9.74119C4.32528 9.59955 4.37972 9.432 4.51527 9.35541L5.60453 8.74003C6.28607 8.35498 6.76696 7.69309 6.92255 6.92592L7.17122 5.69981C7.20217 5.54723 7.3447 5.44367 7.49938 5.46139L8.74232 5.60378C9.52003 5.69287 10.2981 5.44005 10.8749 4.91085L11.7968 4.06507C11.9115 3.95982 12.0877 3.95982 12.2024 4.06507Z" fill="#909AAA"/>
</svg>
