<svg width="24" height="24" viewBox="0 0 24 24" fill="none" xmlns="http://www.w3.org/2000/svg">
<path fill-rule="evenodd" clip-rule="evenodd" d="M9 5.5C9 3.84315 10.3431 2.5 12 2.5C13.6569 2.5 15 3.84315 15 5.5V11.5C15 13.1569 13.6569 14.5 12 14.5C10.3431 14.5 9 13.1569 9 11.5V5.5ZM13.2 5.5V11.5C13.2 12.1627 12.6627 12.7 12 12.7C11.3373 12.7 10.8 12.1627 10.8 11.5V5.5C10.8 4.83726 11.3373 4.3 12 4.3C12.6627 4.3 13.2 4.83726 13.2 5.5Z" fill="#909AAA"/>
<path d="M5.15799 12.3978C5.55976 15.4898 8.00844 17.9391 11.1001 18.3418V20.5C11.1001 20.9971 11.5031 21.4 12.0001 21.4C12.4972 21.4 12.9001 20.9971 12.9001 20.5V18.3418C15.9918 17.9391 18.4405 15.4898 18.8422 12.3978C18.9063 11.9049 18.4972 11.5 18.0001 11.5C17.5031 11.5 17.1084 11.9063 17.0217 12.3958C16.5983 14.7853 14.5112 16.6 12.0001 16.6C9.48908 16.6 7.40189 14.7853 6.97852 12.3958C6.89181 11.9063 6.49717 11.5 6.00011 11.5C5.50306 11.5 5.09395 11.9049 5.15799 12.3978Z" fill="#909AAA"/>
</svg>
