<svg width="24" height="24" viewBox="0 0 24 24" fill="none" xmlns="http://www.w3.org/2000/svg">
<path d="M7.1001 8.99998C7.1001 8.50292 7.50304 8.09998 8.0001 8.09998H16.0001C16.4972 8.09998 16.9001 8.50292 16.9001 8.99998C16.9001 9.49703 16.4972 9.89998 16.0001 9.89998H8.0001C7.50304 9.89998 7.1001 9.49703 7.1001 8.99998Z" fill="#909AAA"/>
<path d="M8.0001 12.1C7.50304 12.1 7.1001 12.5029 7.1001 13C7.1001 13.497 7.50304 13.9 8.0001 13.9H13.0001C13.4972 13.9 13.9001 13.497 13.9001 13C13.9001 12.5029 13.4972 12.1 13.0001 12.1H8.0001Z" fill="#909AAA"/>
<path fill-rule="evenodd" clip-rule="evenodd" d="M2.1001 7.99998C2.1001 5.29378 4.2939 3.09998 7.0001 3.09998H17.0001C19.7063 3.09998 21.9001 5.29378 21.9001 7.99998V19.2338C21.9001 20.7106 20.289 21.6229 19.0226 20.863L16.0121 19.0567C15.8411 18.9542 15.6455 18.9 15.4461 18.9H7.0001C4.2939 18.9 2.1001 16.7062 2.1001 14V7.99998ZM7.0001 4.89998C5.28802 4.89998 3.9001 6.28789 3.9001 7.99998V14C3.9001 15.7121 5.28801 17.1 7.0001 17.1H15.4461C15.9717 17.1 16.4875 17.2428 16.9382 17.5132L19.9486 19.3195C19.9716 19.3333 19.9873 19.3354 19.9987 19.3353C20.0129 19.3353 20.031 19.3312 20.0494 19.3208C20.0678 19.3104 20.0805 19.297 20.0879 19.2848C20.0938 19.2751 20.1001 19.2605 20.1001 19.2338V7.99998C20.1001 6.28789 18.7122 4.89998 17.0001 4.89998H7.0001Z" fill="#909AAA"/>
</svg>
