<svg width="24" height="24" viewBox="0 0 24 24" fill="none" xmlns="http://www.w3.org/2000/svg">
<path d="M7.5 8.625C7.81066 8.625 8.0625 8.87684 8.0625 9.1875V11.0625C8.0625 11.3732 7.81066 11.625 7.5 11.625C7.18934 11.625 6.9375 11.3732 6.9375 11.0625V9.1875C6.9375 8.87684 7.18934 8.625 7.5 8.625Z" fill="#909AAA"/>
<path fill-rule="evenodd" clip-rule="evenodd" d="M13.6454 15.5666H11.8442L11.6637 16.2098C11.5844 16.4923 11.3269 16.6875 11.0335 16.6875C10.5867 16.6875 10.2712 16.2498 10.4125 15.826L11.9294 11.2744C12.0462 10.9239 12.3742 10.6875 12.7436 10.6875C13.1123 10.6875 13.4398 10.923 13.5572 11.2725L15.0842 15.8203C15.2273 16.2465 14.9102 16.6875 14.4606 16.6875C14.1666 16.6875 13.9082 16.4923 13.8279 16.2094L13.6454 15.5666ZM12.1587 14.4499H13.3308L12.7429 12.3688L12.1587 14.4499Z" fill="#909AAA"/>
<path d="M8.0625 13.3125C8.0625 13.0018 7.81066 12.75 7.5 12.75C7.18934 12.75 6.9375 13.0018 6.9375 13.3125V15.1875C6.9375 15.4982 7.18934 15.75 7.5 15.75C7.81066 15.75 8.0625 15.4982 8.0625 15.1875V13.3125Z" fill="#909AAA"/>
<path d="M7.5 16.875C7.81066 16.875 8.0625 17.1268 8.0625 17.4375V19.3125C8.0625 19.6232 7.81066 19.875 7.5 19.875C7.18934 19.875 6.9375 19.6232 6.9375 19.3125V17.4375C6.9375 17.1268 7.18934 16.875 7.5 16.875Z" fill="#909AAA"/>
<path fill-rule="evenodd" clip-rule="evenodd" d="M15.75 1.875C17.7175 1.875 19.3125 3.46999 19.3125 5.4375V18.5625C19.3125 20.53 17.7175 22.125 15.75 22.125H6.75C5.61091 22.125 4.6875 21.2016 4.6875 20.0625V3.9375C4.6875 2.79841 5.61091 1.875 6.75 1.875H15.75ZM5.8125 6.1875V6.59989C6.09378 6.4561 6.41242 6.375 6.75 6.375H15.75C16.6789 6.375 17.5247 6.7305 18.1589 7.31285C17.9787 6.14452 16.9688 5.25 15.75 5.25H6.75C6.23223 5.25 5.8125 5.66973 5.8125 6.1875ZM5.8125 8.4375V20.0625C5.8125 20.5803 6.23223 21 6.75 21H15.75C17.0962 21 18.1875 19.9087 18.1875 18.5625V9.9375C18.1875 8.59131 17.0962 7.5 15.75 7.5H6.75C6.23223 7.5 5.8125 7.91973 5.8125 8.4375ZM18.1589 5.06285C17.5247 4.4805 16.6789 4.125 15.75 4.125H6.75C6.41242 4.125 6.09378 4.2061 5.8125 4.34989V3.9375C5.8125 3.41973 6.23223 3 6.75 3H15.75C16.9688 3 17.9787 3.89452 18.1589 5.06285Z" fill="#909AAA"/>
</svg>
