<svg width="24" height="24" viewBox="0 0 24 24" fill="none" xmlns="http://www.w3.org/2000/svg">
<path fill-rule="evenodd" clip-rule="evenodd" d="M16.3559 15.0828C18.5444 12.2008 18.3234 8.07322 15.6929 5.44275C12.8212 2.571 8.1652 2.57101 5.29345 5.44275C2.42171 8.31449 2.42171 12.9705 5.29345 15.8422C7.97546 18.5242 12.2138 18.7014 15.1014 16.3738L19.2276 20.5C19.579 20.8514 20.1489 20.8514 20.5003 20.5C20.8518 20.1485 20.8518 19.5787 20.5003 19.2272L16.3559 15.0828ZM14.4202 6.71554C16.589 8.88434 16.589 12.4007 14.4202 14.5694C12.2514 16.7382 8.73504 16.7382 6.56625 14.5694C4.39745 12.4007 4.39745 8.88434 6.56625 6.71554C8.73504 4.54674 12.2514 4.54674 14.4202 6.71554Z" fill="#909AAA"/>
</svg>
