<svg width="24" height="24" viewBox="0 0 24 24" fill="none" xmlns="http://www.w3.org/2000/svg">
<path d="M12 7.3C10.7946 7.3 9.89998 8.21518 9.89998 9.24492C9.89998 9.74198 9.49703 10.1449 8.99998 10.1449C8.50292 10.1449 8.09998 9.74198 8.09998 9.24492C8.09998 7.13224 9.89167 5.5 12 5.5C14.1083 5.5 15.9 7.13224 15.9 9.24492C15.9 10.4524 15.3056 11.5141 14.4081 12.1911C13.975 12.5178 13.5817 12.8427 13.2974 13.1882C13.0171 13.5289 12.9 13.8205 12.9 14.0898V14.4C12.9 14.8971 12.497 15.3 12 15.3C11.5029 15.3 11.1 14.8971 11.1 14.4V14.0898C11.1 13.2547 11.475 12.5702 11.9073 12.0447C12.3356 11.524 12.8754 11.0926 13.3241 10.7541C13.8084 10.3887 14.1 9.84198 14.1 9.24492C14.1 8.21518 13.2054 7.3 12 7.3Z" fill="#909AAA"/>
<path d="M13 17.5C13 18.0523 12.5523 18.5 12 18.5C11.4477 18.5 11 18.0523 11 17.5C11 16.9477 11.4477 16.5 12 16.5C12.5523 16.5 13 16.9477 13 17.5Z" fill="#909AAA"/>
<path fill-rule="evenodd" clip-rule="evenodd" d="M23 12C23 18.0751 18.0751 23 12 23C5.92487 23 1 18.0751 1 12C1 5.92487 5.92487 1 12 1C18.0751 1 23 5.92487 23 12ZM21.2 12C21.2 17.081 17.081 21.2 12 21.2C6.91898 21.2 2.8 17.081 2.8 12C2.8 6.91898 6.91898 2.8 12 2.8C17.081 2.8 21.2 6.91898 21.2 12Z" fill="#909AAA"/>
</svg>
