<svg width="24" height="24" viewBox="0 0 24 24" fill="none" xmlns="http://www.w3.org/2000/svg">
<path fill-rule="evenodd" clip-rule="evenodd" d="M8.51352 8.45379L6.68099 10.816C7.35159 12.213 8.26615 13.5231 9.42589 14.6828L8.1531 15.9556C6.69902 14.5015 5.58432 12.8341 4.81066 11.0532C3.88513 8.92262 3.44861 6.63189 3.50018 4.35106C3.5182 3.5539 4.19368 2.96725 4.95155 3L7.02243 3.08949C7.66654 3.11733 8.20836 3.58143 8.3348 4.21362L8.87539 6.91657C8.98352 7.45721 8.85147 8.01816 8.51352 8.45379ZM5.29647 4.81659L6.63128 4.87427L7.11035 7.26958C7.11604 7.29803 7.10909 7.32755 7.0913 7.35048L5.91773 8.86327C5.51366 7.54688 5.30648 6.18253 5.29647 4.81659Z" fill="#909AAA"/>
<path fill-rule="evenodd" clip-rule="evenodd" d="M15.6552 15.5952L13.2929 17.4277C11.8959 16.7571 10.5856 15.8425 9.42589 14.6828L8.1531 15.9556C9.60717 17.4097 11.2748 18.5244 13.0558 19.298C15.1863 20.2236 17.4771 20.6601 19.7579 20.6085C20.555 20.5905 21.1417 19.915 21.1089 19.1571L21.0195 17.0863C20.9916 16.4422 20.5275 15.9003 19.8953 15.7739L17.1924 15.2333C16.6517 15.1252 16.0908 15.2572 15.6552 15.5952ZM19.2924 18.8122L19.2347 17.4774L16.8394 16.9984C16.8109 16.9927 16.7814 16.9996 16.7585 17.0174L15.2457 18.191C16.5621 18.595 17.9264 18.8022 19.2924 18.8122Z" fill="#909AAA"/>
</svg>
