<svg width="24" height="24" viewBox="0 0 24 24" fill="#909AAA" xmlns="http://www.w3.org/2000/svg">
<path fill-rule="evenodd" clip-rule="evenodd" d="M15.1 6.31587V4.99998C15.1 3.39835 16.3983 2.09998 18 2.09998C19.6016 2.09998 20.9 3.39835 20.9 4.99998V14C20.9 18.9153 16.9153 22.9 12 22.9C7.25243 22.9 3.3731 19.1827 3.11378 14.5H3.10003C3.10003 14.4334 3.10169 14.3672 3.10499 14.3015C3.10166 14.2014 3.09998 14.1009 3.09998 14V3.4C3.09998 1.79837 4.39835 0.5 5.99998 0.5C7.6016 0.5 8.89998 1.79837 8.89998 3.4V6.31587C9.23919 6.17671 9.61062 6.09998 9.99998 6.09998C10.7754 6.09998 11.4797 6.40428 12 6.89997C12.5203 6.40428 13.2246 6.09998 14 6.09998C14.3893 6.09998 14.7608 6.17671 15.1 6.31587ZM4.89998 3.4C4.89998 2.79249 5.39246 2.3 5.99998 2.3C6.60749 2.3 7.09998 2.79249 7.09998 3.4V10.6H7.00002C6.22682 10.6 5.50617 10.825 4.89998 11.2131V3.4ZM7.00002 12.4H11.9992H12.0007H14C14.6075 12.4 15.1 12.8925 15.1 13.5C15.1 14.1075 14.6075 14.6 14 14.6H9.00002C8.50297 14.6 8.10002 15.0029 8.10002 15.5C8.10002 15.997 8.50297 16.4 9.00002 16.4L14 16.4C15.6017 16.4 16.9 15.1016 16.9 13.5C16.9 13.2779 16.8751 13.0616 16.8278 12.8538C16.8742 12.7452 16.9 12.6256 16.9 12.5V12.0013L16.9 12V8.99998L16.9 8.9976V4.99998C16.9 4.39246 17.3925 3.89998 18 3.89998C18.6075 3.89998 19.1 4.39246 19.1 4.99998V14C19.1 17.9212 15.9212 21.1 12 21.1C8.18749 21.1 5.07685 18.0951 4.90726 14.3244C4.99644 13.2468 5.89934 12.4 7.00002 12.4ZM15.1 8.99998C15.1 8.39246 14.6075 7.89998 14 7.89998C13.3925 7.89998 12.9 8.39246 12.9 8.99998V10.6H14C14.3894 10.6 14.7608 10.6767 15.1 10.8158V8.99998ZM11.1 8.99998C11.1 8.39246 10.6075 7.89998 9.99998 7.89998C9.39246 7.89998 8.89998 8.39246 8.89998 8.99998V10.6H11.1V8.99998Z"/>
</svg>
