<svg width="24" height="24" viewBox="0 0 24 24" fill="none" xmlns="http://www.w3.org/2000/svg">
<path fill-rule="evenodd" clip-rule="evenodd" d="M10.8841 3.47558C11.6083 2.81902 12.7124 2.81902 13.4365 3.47558L22.7649 11.9333C23.0405 12.1831 23.1339 12.5769 23 12.924C22.8661 13.2711 22.5324 13.5 22.1603 13.5H19.9937V19.6C19.9937 20.6493 19.143 21.5 18.0937 21.5H14.8841C13.9137 21.5 13.127 20.7133 13.127 19.7429V16.6C13.127 15.9925 12.6345 15.5 12.027 15.5C11.4195 15.5 10.927 15.9925 10.927 16.6V19.7429C10.927 20.7133 10.1403 21.5 9.16986 21.5H6.22701C5.17767 21.5 4.32701 20.6493 4.32701 19.6V13.5H2.16034C1.78829 13.5 1.4546 13.2711 1.32067 12.924C1.18674 12.5769 1.28019 12.1831 1.55582 11.9333L10.8841 3.47558ZM12.2275 4.80908C12.1894 4.77452 12.1313 4.77452 12.0932 4.80908L4.49289 11.7H5.22701C5.72406 11.7 6.12701 12.1029 6.12701 12.6V19.6C6.12701 19.6552 6.17178 19.7 6.22701 19.7H9.12701V16.6C9.12701 14.9984 10.4254 13.7 12.027 13.7C13.6286 13.7 14.927 14.9984 14.927 16.6V19.7H18.0937C18.1489 19.7 18.1937 19.6552 18.1937 19.6V12.6C18.1937 12.1029 18.5966 11.7 19.0937 11.7H19.8278L12.2275 4.80908Z" fill="#909AAA"/>
</svg>
