<svg width="24" height="24" viewBox="0 0 24 24" fill="none" xmlns="http://www.w3.org/2000/svg">
<path fill-rule="evenodd" clip-rule="evenodd" d="M22.2579 8.935L21.0875 8.73651C20.9833 8.44647 20.8656 8.16193 20.7354 7.88525L21.4246 6.92102C22.0243 6.07855 21.928 4.94073 21.1979 4.21783L19.7915 2.81122C19.394 2.4137 18.867 2.1947 18.3078 2.1947C17.8674 2.1947 17.4463 2.33038 17.0929 2.58472L16.125 3.27411C15.8256 3.13257 15.5218 3.00751 15.2161 2.89948L15.0225 1.75269C14.8522 0.737 13.981 0 12.9509 0H10.9638C9.93384 0 9.06262 0.737 8.8927 1.75067L8.68927 2.94232C8.40198 3.04724 8.11871 3.16644 7.84131 3.29956L6.89099 2.61511C6.53467 2.35858 6.11188 2.22308 5.66821 2.22308C5.10352 2.22308 4.57635 2.44244 4.18323 2.84088L2.7735 4.24603C2.04547 4.97406 1.95007 6.11096 2.54681 6.94922L3.24719 7.93323C3.1181 8.211 3.00201 8.49683 2.89947 8.78851L1.7525 8.98206C0.736999 9.15253 0 10.0237 0 11.0537V13.0408C0 14.0707 0.736999 14.942 1.75067 15.1121L2.94232 15.3153C3.04724 15.6028 3.16663 15.8862 3.29956 16.1635L2.61768 17.1119C2.01801 17.9544 2.11432 19.0924 2.84436 19.8151L4.25079 21.2217C4.64831 21.6193 5.17529 21.8383 5.7345 21.8383C6.17487 21.8383 6.59601 21.7026 6.94922 21.4484L7.93323 20.748C8.19177 20.8682 8.45984 20.9782 8.73505 21.0773L8.93005 22.2475C9.10052 23.263 9.97174 24 11.0017 24H12.9933C14.0233 24 14.8947 23.263 15.0648 22.2488L15.2633 21.0782C15.5533 20.974 15.8379 20.8563 16.1146 20.7261L17.0757 21.4131C17.432 21.6696 17.8548 21.8053 18.2985 21.8053C18.8575 21.8053 19.3845 21.5863 19.782 21.1888L21.1884 19.7822C21.9166 19.0541 22.0118 17.9172 21.4151 17.079L20.7252 16.1102C20.8588 15.8271 20.9769 15.5427 21.0786 15.26L22.2473 15.0652C23.2628 14.8947 23.9998 14.0235 23.9998 12.9935V11.0105C24.0114 9.97943 23.2797 9.10712 22.2579 8.935ZM22.5936 12.9935C22.5936 13.3339 22.35 13.6219 22.0153 13.6782L20.4651 13.9365C20.1791 13.9841 19.9484 14.1859 19.8625 14.4633C19.7249 14.9095 19.5357 15.3657 19.3008 15.8183C19.1678 16.0735 19.1891 16.3777 19.3561 16.6117L20.2696 17.8945C20.4666 18.1714 20.4349 18.5471 20.1942 18.7879L18.7877 20.1943C18.6539 20.3282 18.4847 20.399 18.2985 20.399C18.1516 20.399 18.013 20.3551 17.8954 20.2705L16.6181 19.3575C16.3832 19.1889 16.0778 19.1677 15.8212 19.3019C15.3917 19.5267 14.9352 19.7159 14.4644 19.8636C14.1898 19.9497 13.9893 20.1797 13.9415 20.4628L13.6782 22.0146C13.6219 22.3502 13.3339 22.5938 12.9933 22.5938H11.0017C10.6611 22.5938 10.3733 22.3502 10.3171 22.0155L10.0587 20.4653C10.0115 20.1812 9.81152 19.9508 9.53686 19.864C9.07288 19.7175 8.63104 19.5359 8.22327 19.324C8.11212 19.2664 7.99182 19.238 7.87207 19.238C7.71716 19.238 7.56299 19.2856 7.43097 19.3795L6.13074 20.3049C6.01355 20.3893 5.88025 20.432 5.7345 20.432C5.54828 20.432 5.37909 20.3613 5.24524 20.2273L3.83624 18.8185C3.59582 18.5804 3.56525 18.2058 3.76135 17.9302L4.66937 16.6672C4.84021 16.4301 4.86108 16.1224 4.72339 15.8637C4.49249 15.4307 4.30115 14.9766 4.15448 14.5139C4.06769 14.241 3.83862 14.0416 3.55664 13.9935L1.98523 13.7256C1.64978 13.6692 1.40625 13.3812 1.40625 13.0408V11.0537C1.40625 10.7133 1.64978 10.4253 1.98578 10.3689L3.51691 10.1105C3.8031 10.0624 4.03363 9.86005 4.11877 9.58173C4.26324 9.10895 4.4491 8.65173 4.6712 8.22327C4.80341 7.96857 4.78217 7.66516 4.61572 7.43097L3.6925 6.13385C3.4953 5.85699 3.52698 5.48126 3.76703 5.24121L5.17822 3.83478L5.18335 3.82947C5.31024 3.70038 5.48236 3.62933 5.66821 3.62933C5.81506 3.62933 5.95386 3.67328 6.06921 3.75641L7.33777 4.66956C7.57526 4.84058 7.88324 4.86108 8.14105 4.72339C8.5741 4.49249 9.0282 4.30115 9.49036 4.15466C9.76318 4.06805 9.96258 3.83936 10.0111 3.55664L10.2792 1.98523C10.3354 1.64978 10.6234 1.40625 10.964 1.40625H12.951C13.2914 1.40625 13.5795 1.64978 13.6359 1.98578L13.8942 3.51746C13.9426 3.80383 14.1453 4.03418 14.4238 4.11914C14.8986 4.26343 15.3721 4.45825 15.8315 4.69849C16.0867 4.83179 16.3909 4.81091 16.626 4.64374L17.9117 3.72803C18.0287 3.64362 18.162 3.60095 18.308 3.60095C18.494 3.60095 18.6632 3.67163 18.7972 3.80566L20.2061 5.21448C20.4465 5.45251 20.4772 5.82715 20.2798 6.10419L19.366 7.38281C19.1982 7.61792 19.1774 7.92297 19.3112 8.17859C19.5363 8.60815 19.7252 9.06464 19.8732 9.53558C19.9594 9.81024 20.1892 10.0106 20.4723 10.0583L22.0228 10.3215L22.0241 10.3217C22.3586 10.3779 22.5983 10.6617 22.5936 10.9966V12.9935Z" fill="#909AAA"/>
<path fill-rule="evenodd" clip-rule="evenodd" d="M12.0002 7.33374C9.42725 7.33374 7.33398 9.427 7.33398 12C7.33398 14.573 9.42725 16.6663 12.0002 16.6663C14.5732 16.6663 16.6665 14.573 16.6665 12C16.6665 9.427 14.5732 7.33374 12.0002 7.33374ZM12.0002 15.26C10.2027 15.26 8.74023 13.7975 8.74023 12C8.74023 10.2025 10.2027 8.73999 12.0002 8.73999C13.7978 8.73999 15.2603 10.2025 15.2603 12C15.2603 13.7975 13.7978 15.26 12.0002 15.26Z" fill="#909AAA"/>
</svg>
