<svg width="24" height="24" viewBox="0 0 24 24" fill="none" xmlns="http://www.w3.org/2000/svg">
<path d="M17.0001 2.09998C19.7063 2.09998 21.9001 4.29378 21.9001 6.99998V17C21.9001 19.7062 19.7063 21.9 17.0001 21.9H7.0001C4.2939 21.9 2.1001 19.7062 2.1001 17V16.5C2.1001 16.0029 2.50304 15.6 3.0001 15.6C3.49715 15.6 3.9001 16.0029 3.9001 16.5V17C3.9001 18.7121 5.28801 20.1 7.0001 20.1H17.0001C18.7122 20.1 20.1001 18.7121 20.1001 17V6.99998C20.1001 5.28789 18.7122 3.89998 17.0001 3.89998H7.0001C5.28801 3.89998 3.9001 5.28789 3.9001 6.99998V7.49998C3.9001 7.99703 3.49715 8.39998 3.0001 8.39998C2.50304 8.39998 2.1001 7.99703 2.1001 7.49998V6.99998C2.1001 4.29378 4.2939 2.09998 7.0001 2.09998H17.0001Z" fill="#909AAA"/>
<path d="M3.00029 11.1C2.50324 11.1 2.10029 11.503 2.10029 12C2.10029 12.4971 2.50324 12.9 3.00029 12.9H13.8275L11.3639 15.3636C11.0124 15.7151 11.0124 16.2849 11.3639 16.6364C11.7154 16.9879 12.2852 16.9879 12.6367 16.6364L16.6367 12.6364C16.9882 12.2849 16.9882 11.7151 16.6367 11.3636L12.6367 7.36363C12.2852 7.01216 11.7154 7.01216 11.3639 7.36363C11.0124 7.7151 11.0124 8.28495 11.3639 8.63642L13.8275 11.1H3.00029Z" fill="#909AAA"/>
</svg>
