<svg width="24" height="24" viewBox="0 0 26 26" fill="#909AAA" xmlns="http://www.w3.org/2000/svg">
<path fill-rule="evenodd" clip-rule="evenodd" d="M15.1663 5.68591C15.6449 5.68591 16.033 5.29789 16.033 4.81924V1.56924C16.033 1.0906 15.6449 0.702576 15.1663 0.702576C14.6876 0.702576 14.2996 1.0906 14.2996 1.56924V2.38354H14.0834C12.4081 2.38354 11.05 3.74161 11.05 5.41687V9.75021C11.05 13.5255 13.89 16.6375 17.55 17.0664V20.0419C17.55 21.6573 16.2405 22.9669 14.625 22.9669C13.0096 22.9669 11.7 21.6573 11.7 20.0419V17.8752C11.7 15.3025 9.61444 13.2169 7.04172 13.2169H6.9063C4.69223 13.2169 2.84974 14.8078 2.45956 16.9088C1.3493 17.247 0.541504 18.2791 0.541504 19.5C0.541504 20.9958 1.75407 22.2083 3.24984 22.2083C4.74561 22.2083 5.95817 20.9958 5.95817 19.5C5.95817 18.3475 5.23831 17.3632 4.2237 16.972C4.55716 15.8047 5.63194 14.9502 6.9063 14.9502H7.04172C8.65715 14.9502 9.96672 16.2598 9.96672 17.8752V20.0419C9.96672 22.6146 12.0523 24.7002 14.625 24.7002C17.1978 24.7002 19.2834 22.6146 19.2834 20.0419V17.0664C22.9435 16.6375 25.7834 13.5255 25.7834 9.75021V5.41687C25.7834 3.74161 24.4253 2.38354 22.75 2.38354H22.533V1.56924C22.533 1.0906 22.1449 0.702576 21.6663 0.702576C21.1876 0.702576 20.7996 1.0906 20.7996 1.56924V4.81924C20.7996 5.29789 21.1876 5.68591 21.6663 5.68591C22.1449 5.68591 22.533 5.29789 22.533 4.81924V4.11687H22.75C23.468 4.11687 24.05 4.6989 24.05 5.41687V9.75021C24.05 12.5667 21.9831 14.9004 19.2834 15.3173V15.3023H17.55V15.3173C14.8503 14.9004 12.7834 12.5667 12.7834 9.75021V5.41687C12.7834 4.6989 13.3654 4.11687 14.0834 4.11687H14.2996V4.81924C14.2996 5.29789 14.6876 5.68591 15.1663 5.68591ZM3.24984 20.475C3.78832 20.475 4.22484 20.0385 4.22484 19.5C4.22484 18.9615 3.78832 18.525 3.24984 18.525C2.71136 18.525 2.27484 18.9615 2.27484 19.5C2.27484 20.0385 2.71136 20.475 3.24984 20.475Z"/>
</svg>
