<svg width="24" height="24" viewBox="0 0 24 24" fill="none" xmlns="http://www.w3.org/2000/svg">
<path fill-rule="evenodd" clip-rule="evenodd" d="M1.90297 1.5C1.44026 1.31843 0.917971 1.54634 0.736403 2.00905C0.554834 2.47175 0.782742 2.99404 1.24545 3.17561L1.70793 3.35709C2.71223 3.75118 3.43941 4.63906 3.62787 5.70132L4.77976 12.1938C5.19483 14.5332 7.22844 16.2378 9.60442 16.2378H16.8366C18.9551 16.2378 20.8337 14.8763 21.4931 12.863L23 8.26255C23.4024 7.03408 22.4871 5.77114 21.1944 5.77114H5.46837L5.4002 5.38688C5.1023 3.70782 3.95288 2.3044 2.36545 1.68148L1.90297 1.5ZM6.55208 11.8793L5.78772 7.57114H21.1944C21.2624 7.57114 21.3106 7.63761 21.2894 7.70227L19.7826 12.3027C19.3654 13.5765 18.1769 14.4378 16.8366 14.4378H9.60442C8.10125 14.4378 6.81468 13.3594 6.55208 11.8793Z" fill="#909AAA"/>
<path d="M10.7362 20.2374C10.7362 21.3419 9.84079 22.2374 8.73622 22.2374C7.63165 22.2374 6.73622 21.3419 6.73622 20.2374C6.73622 19.1328 7.63165 18.2374 8.73622 18.2374C9.84079 18.2374 10.7362 19.1328 10.7362 20.2374Z" fill="#909AAA"/>
<path d="M18.2362 22.2374C19.3408 22.2374 20.2362 21.3419 20.2362 20.2374C20.2362 19.1328 19.3408 18.2374 18.2362 18.2374C17.1317 18.2374 16.2362 19.1328 16.2362 20.2374C16.2362 21.3419 17.1317 22.2374 18.2362 22.2374Z" fill="#909AAA"/>
</svg>
