<svg width="24" height="24" viewBox="0 0 24 24" fill="none" xmlns="http://www.w3.org/2000/svg">
<path fill-rule="evenodd" clip-rule="evenodd" d="M4.6364 3.36358C4.28492 3.01211 3.71508 3.01211 3.3636 3.36358C3.01213 3.71505 3.01213 4.2849 3.3636 4.63637L5.1475 6.42027C4.79765 6.67085 4.46955 6.93008 4.16439 7.19166C3.23445 7.98874 2.49766 8.82374 1.98649 9.53937C1.73147 9.8964 1.52406 10.2357 1.37616 10.5362C1.24801 10.7967 1.1001 11.1526 1.1001 11.5C1.1001 11.8474 1.24801 12.2033 1.37616 12.4637C1.52406 12.7643 1.73147 13.1036 1.98649 13.4606C2.49766 14.1762 3.23445 15.0112 4.16439 15.8083C6.01818 17.3973 8.71825 18.9 12.0001 18.9C13.7057 18.9 15.2542 18.4941 16.6084 17.8812L19.3636 20.6364C19.7151 20.9878 20.2849 20.9878 20.6364 20.6364C20.9879 20.2849 20.9879 19.7151 20.6364 19.3636L4.6364 3.36358ZM15.2309 16.5036L13.8002 15.073C13.2591 15.3461 12.6475 15.5 12 15.5C9.79086 15.5 8 13.7091 8 11.5C8 10.8525 8.15386 10.2409 8.42703 9.69979L6.43999 7.71276C6.04532 7.98119 5.67656 8.26625 5.33581 8.55832C4.51574 9.26123 3.87754 9.98874 3.45121 10.5856C3.23748 10.8848 3.08551 11.1393 2.99122 11.3309C2.953 11.4086 2.93017 11.4641 2.9167 11.5C2.93017 11.5358 2.953 11.5914 2.99122 11.669C3.08551 11.8607 3.23748 12.1151 3.45121 12.4144C3.87754 13.0112 4.51574 13.7387 5.33581 14.4417C6.98202 15.8527 9.28194 17.1 12.0001 17.1C13.1591 17.1 14.2422 16.8732 15.2309 16.5036ZM9.83489 11.1077C9.81197 11.235 9.8 11.3661 9.8 11.5C9.8 12.715 10.785 13.7 12 13.7C12.1339 13.7 12.265 13.688 12.3924 13.6651L9.83489 11.1077Z" fill="#909AAA"/>
<path d="M11.3185 7.55784L15.9422 12.1816C15.9802 11.9601 16 11.7324 16 11.5C16 9.29087 14.2091 7.50001 12 7.50001C11.7677 7.50001 11.5399 7.51982 11.3185 7.55784Z" fill="#909AAA"/>
<path d="M18.6644 14.4417C18.5821 14.5122 18.4981 14.5824 18.4126 14.652L19.6912 15.9306C19.74 15.8899 19.7882 15.8491 19.8358 15.8083C20.7657 15.0112 21.5025 14.1762 22.0137 13.4606C22.2687 13.1036 22.4761 12.7643 22.624 12.4637C22.7522 12.2033 22.9001 11.8474 22.9001 11.5C22.9001 11.1471 22.7461 10.7877 22.6158 10.5289C22.4646 10.2284 22.2529 9.88942 21.9936 9.53305C21.4739 8.81863 20.7273 7.98507 19.7917 7.18939C17.9286 5.60495 15.2292 4.09999 12.0001 4.09999C10.7262 4.09999 9.54005 4.32639 8.45697 4.69635L9.90866 6.14805C10.5727 5.98963 11.2714 5.89999 12.0001 5.89999C14.6606 5.89999 16.9611 7.14502 18.6256 8.56059C19.4538 9.26491 20.103 9.99385 20.538 10.5919C20.7562 10.8918 20.9116 11.1466 21.0081 11.3383C21.0457 11.413 21.0687 11.467 21.0825 11.5025C21.0689 11.5385 21.0463 11.5932 21.009 11.669C20.9147 11.8607 20.7627 12.1151 20.549 12.4144C20.1227 13.0112 19.4845 13.7387 18.6644 14.4417Z" fill="#909AAA"/>
</svg>
