<svg width="26" height="26" viewBox="0 0 26 26" fill="#909AAA" xmlns="http://www.w3.org/2000/svg">
<path fill-rule="evenodd" clip-rule="evenodd" d="M19.6423 10.3991C18.621 11.4205 16.965 11.4205 15.9437 10.3991C14.9223 9.37778 14.9223 7.72185 15.9437 6.7005C16.965 5.67915 18.621 5.67915 19.6423 6.7005C20.6637 7.72185 20.6637 9.37778 19.6423 10.3991ZM18.4167 9.17348C18.0722 9.51792 17.5138 9.51792 17.1693 9.17348C16.8249 8.82904 16.8249 8.27059 17.1693 7.92615C17.5138 7.58171 18.0722 7.58171 18.4167 7.92615C18.7611 8.27059 18.7611 8.82904 18.4167 9.17348Z"/>
<path fill-rule="evenodd" clip-rule="evenodd" d="M24.3393 4.86405C24.1932 3.43237 23.0613 2.3004 21.6296 2.15431L14.6785 1.44502C13.7713 1.35245 12.8706 1.67296 12.2257 2.3178L2.00221 12.5413C0.817622 13.7259 0.817622 15.6465 2.00221 16.8311L9.66254 24.4914C10.8471 25.676 12.7677 25.676 13.9523 24.4914L24.1758 14.2679C24.8207 13.6231 25.1412 12.7223 25.0486 11.8151L24.3393 4.86405ZM21.4536 3.87869C22.0672 3.9413 22.5523 4.42643 22.6149 5.04001L23.3242 11.991C23.3639 12.3799 23.2265 12.7659 22.9502 13.0422L12.7267 23.2658C12.219 23.7734 11.3959 23.7734 10.8882 23.2658L3.22786 15.6054C2.72018 15.0978 2.72018 14.2746 3.22786 13.767L13.4514 3.54345C13.7277 3.26709 14.1138 3.12973 14.5026 3.1694L21.4536 3.87869Z"/>
</svg>
