<svg width="24" height="24" viewBox="0 0 24 24" fill="none" xmlns="http://www.w3.org/2000/svg">
<path fill-rule="evenodd" clip-rule="evenodd" d="M22 12C22 17.5228 17.5228 22 12 22C6.47715 22 2 17.5228 2 12C2 6.47715 6.47715 2 12 2C17.5228 2 22 6.47715 22 12ZM20.2 12C20.2 16.5287 16.5287 20.2 12 20.2C7.47126 20.2 3.8 16.5287 3.8 12C3.8 7.47126 7.47126 3.8 12 3.8C16.5287 3.8 20.2 7.47126 20.2 12Z" fill="#909AAA"/>
<path d="M14.3635 8.36358C14.715 8.01211 15.2848 8.01211 15.6363 8.36358C15.9878 8.71505 15.9878 9.2849 15.6363 9.63637L13.2728 11.9999L15.6365 14.3636C15.988 14.7151 15.988 15.2849 15.6365 15.6364C15.285 15.9878 14.7152 15.9878 14.3637 15.6364L12 13.2727L9.6363 15.6364C9.28483 15.9878 8.71498 15.9878 8.36351 15.6364C8.01203 15.2849 8.01203 14.7151 8.36351 14.3636L10.7272 11.9999L8.3637 9.63637C8.01223 9.2849 8.01223 8.71505 8.3637 8.36358C8.71517 8.01211 9.28502 8.01211 9.63649 8.36358L12 10.7271L14.3635 8.36358Z" fill="#909AAA"/>
</svg>
