<svg width="16" height="16" viewBox="0 0 16 16" fill="none" xmlns="http://www.w3.org/2000/svg">
<path d="M5.3 5.15015C4.92721 5.15015 4.625 5.45235 4.625 5.82515C4.625 6.19794 4.92721 6.50015 5.3 6.50015H11.3C11.6728 6.50015 11.975 6.19794 11.975 5.82515C11.975 5.45235 11.6728 5.15015 11.3 5.15015H5.3Z" fill="#909AAA"/>
<path d="M4.625 8.82515C4.625 8.45235 4.92721 8.15015 5.3 8.15015H9.05C9.42279 8.15015 9.725 8.45235 9.725 8.82515C9.725 9.19794 9.42279 9.50015 9.05 9.50015H5.3C4.92721 9.50015 4.625 9.19794 4.625 8.82515Z" fill="#909AAA"/>
<path fill-rule="evenodd" clip-rule="evenodd" d="M7.03751 0.850098C3.65822 0.850098 0.918762 3.58956 0.918762 6.96885V14.5313C0.918762 14.7448 1.02877 14.9432 1.20982 15.0562C1.39087 15.1692 1.61739 15.181 1.80916 15.0873L4.54847 13.7488C4.65186 13.6982 4.76541 13.672 4.88048 13.672H9.10001C12.4793 13.672 15.2188 10.9325 15.2188 7.55322V6.96885C15.2188 3.58955 12.4793 0.850098 9.10001 0.850098H7.03751ZM2.15626 6.96885C2.15626 4.27301 4.34167 2.0876 7.03751 2.0876H9.10001C11.7959 2.0876 13.9813 4.27301 13.9813 6.96885V7.55322C13.9813 10.2491 11.7959 12.4345 9.10001 12.4345H4.88048C4.57711 12.4345 4.27774 12.5037 4.00517 12.6369L2.15626 13.5403V6.96885Z" fill="#909AAA"/>
</svg>
