<svg width="18" height="18" viewBox="0 0 18 18" fill="none" xmlns="http://www.w3.org/2000/svg">
<path d="M11.3637 5.36358C11.7152 5.01211 12.285 5.01211 12.6365 5.36358C12.988 5.71505 12.988 6.2849 12.6365 6.63637L10.273 8.99988L12.6367 11.3636C12.9882 11.7151 12.9882 12.2849 12.6367 12.6364C12.2852 12.9878 11.7154 12.9878 11.3639 12.6364L9.0002 10.2727L6.63649 12.6364C6.28502 12.9878 5.71517 12.9878 5.3637 12.6364C5.01223 12.2849 5.01223 11.7151 5.3637 11.3636L7.7274 8.99988L5.3639 6.63637C5.01242 6.2849 5.01242 5.71505 5.3639 5.36358C5.71537 5.01211 6.28522 5.01211 6.63669 5.36358L9.0002 7.72709L11.3637 5.36358Z" fill="#909AAA"/>
</svg>
