<svg width="24" height="24" viewBox="0 0 24 24" fill="none" xmlns="http://www.w3.org/2000/svg">
<path d="M6.50026 5.22723C6.14879 4.87576 5.57894 4.87576 5.22747 5.22723C4.876 5.5787 4.876 6.14855 5.22747 6.50002L10.5911 11.8636L5.22747 17.2273C4.876 17.5787 4.876 18.1486 5.22747 18.5001C5.57894 18.8515 6.14879 18.8515 6.50026 18.5001L11.8639 13.1364L17.2275 18.5C17.5789 18.8515 18.1488 18.8515 18.5003 18.5C18.8517 18.1485 18.8517 17.5787 18.5003 17.2272L13.1367 11.8636L18.5003 6.50007C18.8517 6.1486 18.8517 5.57875 18.5003 5.22728C18.1488 4.87581 17.5789 4.87581 17.2275 5.22728L11.8639 10.5909L6.50026 5.22723Z" fill="#909AAA"/>
</svg>
