<svg width="24" height="24" viewBox="0 0 24 24" fill="none" xmlns="http://www.w3.org/2000/svg">
<path fill-rule="evenodd" clip-rule="evenodd" d="M8.25479 11.9082C8.3427 11.5566 8.52454 11.2354 8.78086 10.9791L16.8744 2.88552C18.046 1.71394 19.9455 1.71394 21.1171 2.88552C22.2886 4.05709 22.2886 5.95658 21.1171 7.12816L13.0235 15.2217C12.7672 15.478 12.446 15.6599 12.0944 15.7478L8.59184 16.6234C7.85946 16.8065 7.19606 16.1431 7.37916 15.4107L8.25479 11.9082ZM10.0537 12.2519L18.1472 4.15831C18.6158 3.68968 19.3756 3.68968 19.8443 4.15831C20.3129 4.62694 20.3129 5.38673 19.8443 5.85536L11.7507 13.9489C11.7251 13.9746 11.693 13.9927 11.6578 14.0015L9.44879 14.5538L10.001 12.3448C10.0098 12.3096 10.028 12.2775 10.0537 12.2519Z" fill="#909AAA"/>
<path d="M3.89998 6.99961C3.89998 5.83981 4.84018 4.89961 5.99998 4.89961H12.3496C12.8467 4.89961 13.2496 4.49667 13.2496 3.99961C13.2496 3.50255 12.8467 3.09961 12.3496 3.09961H5.99998C3.84607 3.09961 2.09998 4.8457 2.09998 6.99961V17.9996C2.09998 20.1535 3.84606 21.8996 5.99998 21.8996H17C19.1539 21.8996 20.9 20.1535 20.9 17.9996V11.9996C20.9 11.5026 20.497 11.0996 20 11.0996C19.5029 11.0996 19.1 11.5026 19.1 11.9996V17.9996C19.1 19.1594 18.1598 20.0996 17 20.0996H5.99998C4.84018 20.0996 3.89998 19.1594 3.89998 17.9996V6.99961Z" fill="#909AAA"/>
</svg>
