<svg width="24" height="24" viewBox="0 0 24 24" fill="none" xmlns="http://www.w3.org/2000/svg">
<path fill-rule="evenodd" clip-rule="evenodd" d="M11.9999 2C12.4969 2 12.8999 2.40294 12.8999 2.9L12.8999 14.7272L16.3635 11.2636C16.7149 10.9121 17.2848 10.9121 17.6362 11.2636C17.9877 11.6151 17.9877 12.1849 17.6362 12.5364L12.6362 17.5364C12.2848 17.8879 11.7149 17.8879 11.3635 17.5364L6.36346 12.5364C6.01199 12.1849 6.01199 11.6151 6.36346 11.2636C6.71493 10.9121 7.28478 10.9121 7.63625 11.2636L11.0999 14.7272L11.0999 2.9C11.0999 2.40294 11.5028 2 11.9999 2Z" fill="#909AAA"/>
<path fill-rule="evenodd" clip-rule="evenodd" d="M1.99998 16.0996C2.49703 16.0996 2.89998 16.5026 2.89998 16.9996V18.9996C2.89998 19.6071 3.39246 20.0996 3.99998 20.0996H20C20.6075 20.0996 21.1 19.6071 21.1 18.9996V17.3996C21.1 16.9026 21.5029 16.4996 22 16.4996C22.497 16.4996 22.9 16.9026 22.9 17.3996V18.9996C22.9 20.6012 21.6016 21.8996 20 21.8996H3.99998C2.39835 21.8996 1.09998 20.6012 1.09998 18.9996V16.9996C1.09998 16.5026 1.50292 16.0996 1.99998 16.0996Z" fill="#909AAA"/>
</svg>
