<svg width="24" height="24" viewBox="0 0 24 24" fill="none" xmlns="http://www.w3.org/2000/svg">
<path fill-rule="evenodd" clip-rule="evenodd" d="M3.9 3.5C2.29838 3.5 1 4.79837 1 6.4L1 16.5C1 17.5493 1.85066 18.4 2.9 18.4H3.03733C3.4196 19.6171 4.55669 20.5 5.89999 20.5C7.2433 20.5 8.38039 19.6171 8.76266 18.4H13.5C13.8669 18.4 14.2095 18.296 14.5 18.1158C14.7904 18.296 15.1331 18.4 15.5 18.4H15.6373C16.0196 19.6171 17.1567 20.5 18.5 20.5C19.8433 20.5 20.9804 19.6171 21.3626 18.4H21.5C22.5493 18.4 23.4 17.5493 23.4 16.5V12.3284C23.4 11.5593 23.0945 10.8216 22.5506 10.2778L19.4293 8.0565C19.073 7.70018 18.5897 7.5 18.0858 7.5H16.5C16.1106 7.5 15.7392 7.57673 15.4 7.71589V6.4C15.4 4.79837 14.1016 3.5 12.5 3.5L3.9 3.5ZM21.3626 16.6H21.5C21.5552 16.6 21.6 16.5552 21.6 16.5V12.3284C21.6 12.0367 21.4841 11.7569 21.2778 11.5506L18.1565 9.32929C18.1377 9.31054 18.1123 9.3 18.0858 9.3H16.5C15.8925 9.3 15.4 9.79249 15.4 10.4L15.4 16.5C15.4 16.5552 15.4448 16.6 15.5 16.6H15.6373C16.0196 15.3829 17.1567 14.5 18.5 14.5C19.8433 14.5 20.9803 15.3829 21.3626 16.6ZM5.89999 14.5C4.55671 14.5 3.41963 15.3829 3.03734 16.6H2.9C2.84477 16.6 2.8 16.5552 2.8 16.5L2.8 6.4C2.8 5.79249 3.29249 5.3 3.9 5.3H12.5C13.1075 5.3 13.6 5.79249 13.6 6.4L13.6 16.5C13.6 16.5552 13.5552 16.6 13.5 16.6H8.76265C8.38036 15.3829 7.24328 14.5 5.89999 14.5ZM5.89999 18.7C6.56274 18.7 7.09999 18.1627 7.09999 17.5C7.09999 16.8373 6.56274 16.3 5.89999 16.3C5.23725 16.3 4.69999 16.8373 4.69999 17.5C4.69999 18.1627 5.23725 18.7 5.89999 18.7ZM19.7 17.5C19.7 18.1627 19.1627 18.7 18.5 18.7C17.8372 18.7 17.3 18.1627 17.3 17.5C17.3 16.8373 17.8372 16.3 18.5 16.3C19.1627 16.3 19.7 16.8373 19.7 17.5Z" fill="#909AAA"/>
</svg>
