<svg width="24" height="24" viewBox="0 0 24 24" fill="none" xmlns="http://www.w3.org/2000/svg">
<path fill-rule="evenodd" clip-rule="evenodd" d="M16 11.5C16 13.7091 14.2091 15.5 12 15.5C9.79086 15.5 8 13.7091 8 11.5C8 9.29086 9.79086 7.5 12 7.5C14.2091 7.5 16 9.29086 16 11.5ZM14.2 11.5C14.2 12.715 13.215 13.7 12 13.7C10.785 13.7 9.8 12.715 9.8 11.5C9.8 10.285 10.785 9.3 12 9.3C13.215 9.3 14.2 10.285 14.2 11.5Z" fill="#909AAA"/>
<path fill-rule="evenodd" clip-rule="evenodd" d="M12.0001 4.09998C8.71825 4.09998 6.01818 5.60268 4.16439 7.19164C3.23445 7.98873 2.49766 8.82373 1.98649 9.53936C1.73147 9.89639 1.52406 10.2356 1.37616 10.5362C1.24801 10.7967 1.1001 11.1526 1.1001 11.5C1.1001 11.8473 1.24801 12.2033 1.37616 12.4637C1.52406 12.7643 1.73147 13.1036 1.98649 13.4606C2.49766 14.1762 3.23445 15.0112 4.16439 15.8083C6.01818 17.3973 8.71825 18.9 12.0001 18.9C15.2819 18.9 17.982 17.3973 19.8358 15.8083C20.7657 15.0112 21.5025 14.1762 22.0137 13.4606C22.2687 13.1036 22.4761 12.7643 22.624 12.4637C22.7522 12.2033 22.9001 11.8473 22.9001 11.5C22.9001 11.1471 22.7461 10.7877 22.6158 10.5289C22.4646 10.2284 22.2529 9.88941 21.9936 9.53304C21.4739 8.81862 20.7273 7.98506 19.7917 7.18938C17.9286 5.60494 15.2292 4.09998 12.0001 4.09998ZM2.99122 11.669C2.953 11.5914 2.93017 11.5358 2.9167 11.5C2.93017 11.4641 2.953 11.4086 2.99122 11.3309C3.08551 11.1393 3.23748 10.8848 3.45121 10.5856C3.87754 9.98873 4.51574 9.26122 5.33581 8.55831C6.98202 7.14727 9.28194 5.89998 12.0001 5.89998C14.6606 5.89998 16.9611 7.14501 18.6256 8.56057C19.4538 9.2649 20.103 9.99384 20.538 10.5919C20.7562 10.8918 20.9116 11.1466 21.0081 11.3383C21.0457 11.413 21.0687 11.467 21.0825 11.5025C21.0689 11.5384 21.0463 11.5932 21.009 11.669C20.9147 11.8606 20.7627 12.1151 20.549 12.4144C20.1227 13.0112 19.4845 13.7387 18.6644 14.4416C17.0182 15.8527 14.7183 17.1 12.0001 17.1C9.28194 17.1 6.98202 15.8527 5.33581 14.4416C4.51574 13.7387 3.87754 13.0112 3.45121 12.4144C3.23748 12.1151 3.08551 11.8606 2.99122 11.669Z" fill="#909AAA"/>
</svg>
