<svg width="24" height="24" viewBox="0 0 24 24" fill="none" xmlns="http://www.w3.org/2000/svg">
<path fill-rule="evenodd" clip-rule="evenodd" d="M18.9211 18.2846C18.4197 19.2374 17.4316 19.834 16.3549 19.834H4.56234C2.96072 19.834 1.66234 18.5356 1.66234 16.934V11.434C1.66234 9.83236 2.96072 8.53399 4.56234 8.53399H7.6408L12.5101 2.69089C13.7506 1.20217 16.1624 2.30809 15.8438 4.2196L15.1248 8.53399H19.2496C21.4319 8.53399 22.8323 10.8535 21.8159 12.7847L18.9211 18.2846ZM7.16234 10.334H4.56234C3.95483 10.334 3.46234 10.8265 3.46234 11.434V16.934C3.46234 17.5415 3.95483 18.034 4.56234 18.034H7.16234V10.334ZM8.96234 18.034H16.3549C16.7633 18.034 17.1381 17.8077 17.3283 17.4463L20.223 11.9463C20.6086 11.2138 20.0774 10.334 19.2496 10.334H14.0623C13.7978 10.334 13.5466 10.2176 13.3756 10.0157C13.2046 9.81386 13.1311 9.54698 13.1746 9.28603L14.0683 3.92368C14.0728 3.89688 14.071 3.88182 14.0699 3.87565C14.0687 3.86916 14.0668 3.86439 14.0641 3.85973C14.058 3.84898 14.0417 3.83023 14.0114 3.81634C13.981 3.80244 13.9562 3.80232 13.944 3.80466C13.9388 3.80567 13.9339 3.80736 13.9282 3.81071C13.9228 3.81389 13.9102 3.82235 13.8929 3.84322L8.96234 9.75983V18.034Z" fill="#909AAA"/>
</svg>
