<svg width="24" height="24" viewBox="0 0 24 24" fill="none" xmlns="http://www.w3.org/2000/svg">
<path fill-rule="evenodd" clip-rule="evenodd" d="M21.6809 10.8086V18.9003C21.6809 19.9496 20.8303 20.8003 19.7809 20.8003H4.2194C3.17006 20.8003 2.3194 19.9496 2.3194 18.9003V10.8082C1.70167 10.1926 1.3194 9.34088 1.3194 8.39988V7.78908L2.1567 4.93918C2.36815 4.09337 3.12812 3.5 3.99997 3.5H20C20.8718 3.5 21.632 4.09337 21.8434 4.93918L22.6541 7.6816L22.6807 7.78908L22.6809 8.40027C22.6809 9.34127 22.2987 10.193 21.6809 10.8086ZM4.00016 5.3C3.95428 5.3 3.91428 5.33123 3.90315 5.37575L3.1194 8.01067V8.39988C3.1194 9.28353 3.83574 9.99988 4.7194 9.99988C5.60305 9.99988 6.10003 9.28353 6.10003 8.39988L6.10002 5.3H4.00016ZM7.90002 5.3L7.90003 8.39988C7.90003 9.28353 8.61637 10.0003 9.50002 10.0003C10.3837 10.0003 11.1 9.28392 11.1 8.40027L11.1 5.3H7.90002ZM9.90003 11.777C10.7273 11.68 11.4638 11.2861 12 10.7046C12.6213 11.3783 13.5114 11.8003 14.5 11.8003C15.4887 11.8003 16.3788 11.3783 17 10.7046C17.6213 11.3783 18.2923 11.8003 19.2809 11.8003C19.4857 11.8003 19.6862 11.7822 19.8809 11.7475V18.9003C19.8809 18.9555 19.8362 19.0003 19.7809 19.0003H9.90003V11.777ZM18.0925 9.16177C18.3633 9.66095 18.6729 9.99988 19.2808 9.99988C20.1644 9.99988 20.8808 9.28353 20.8808 8.39988V8.01067L20.097 5.37575C20.0858 5.33123 20.0459 5.3 20 5.3H17.9L17.9 8.40027C17.9 8.63996 17.9527 8.86735 18.0472 9.07147C18.0614 9.1021 18.0765 9.13222 18.0925 9.16177ZM14.5 10.0003C15.3767 10.0003 16.0887 9.2952 16.0999 8.42118L16.0998 8.39988L16.0998 5.3H12.9L12.9 8.40027C12.9 9.28392 13.6164 10.0003 14.5 10.0003ZM4.7194 11.7999C5.70795 11.7999 6.37859 11.378 6.99985 10.7044C7.30752 11.0381 7.68114 11.3101 8.10003 11.4996V19.0003H4.2194C4.16417 19.0003 4.1194 18.9555 4.1194 18.9003V11.7471C4.31416 11.7818 4.51467 11.7999 4.7194 11.7999Z" fill="#909AAA"/>
</svg>
