<svg width="24" height="24" viewBox="0 0 24 24" fill="none" xmlns="http://www.w3.org/2000/svg">
<path d="M8.4165 12.1672C8.96879 12.1672 9.4165 11.7195 9.4165 11.1672C9.4165 10.615 8.96879 10.1672 8.4165 10.1672C7.86422 10.1672 7.4165 10.615 7.4165 11.1672C7.4165 11.7195 7.86422 12.1672 8.4165 12.1672Z" fill="#909AAA"/>
<path d="M13.0834 11.1672C13.0834 11.7195 12.6357 12.1672 12.0834 12.1672C11.5311 12.1672 11.0834 11.7195 11.0834 11.1672C11.0834 10.615 11.5311 10.1672 12.0834 10.1672C12.6357 10.1672 13.0834 10.615 13.0834 11.1672Z" fill="#909AAA"/>
<path d="M15.7499 12.1672C16.3022 12.1672 16.7499 11.7195 16.7499 11.1672C16.7499 10.615 16.3022 10.1672 15.7499 10.1672C15.1977 10.1672 14.7499 10.615 14.7499 11.1672C14.7499 11.7195 15.1977 12.1672 15.7499 12.1672Z" fill="#909AAA"/>
<path fill-rule="evenodd" clip-rule="evenodd" d="M2.55835 10.6251C2.55835 6.11941 6.21096 2.4668 10.7167 2.4668H13.4667C17.9724 2.4668 21.625 6.11941 21.625 10.6251V11.4043C21.625 15.91 17.9724 19.5626 13.4667 19.5626H7.84065C7.68722 19.5626 7.53581 19.5976 7.39796 19.665L3.74555 21.4497C3.48985 21.5746 3.18782 21.559 2.94642 21.4083C2.70502 21.2575 2.55835 20.993 2.55835 20.7085V10.6251ZM10.7167 4.1168C7.12223 4.1168 4.20835 7.03068 4.20835 10.6251V19.3871L6.67357 18.1825C7.03699 18.0049 7.43615 17.9126 7.84065 17.9126H13.4667C17.0611 17.9126 19.975 14.9987 19.975 11.4043V10.6251C19.975 7.03068 17.0611 4.1168 13.4667 4.1168H10.7167Z" fill="#909AAA"/>
</svg>
