<svg width="24" height="24" viewBox="0 0 24 24" fill="none" xmlns="http://www.w3.org/2000/svg">
<path d="M12.9001 7.9C12.9001 8.39706 12.4972 8.8 12.0001 8.8C11.503 8.8 11.1001 8.39706 11.1001 7.9C11.1001 7.40294 11.503 7 12.0001 7C12.4972 7 12.9001 7.40294 12.9001 7.9Z" fill="#909AAA"/>
<path d="M12.0001 9.7C12.4972 9.7 12.9001 10.1029 12.9001 10.6V16.6C12.9001 17.0971 12.4972 17.5 12.0001 17.5C11.503 17.5 11.1001 17.0971 11.1001 16.6V10.6C11.1001 10.1029 11.503 9.7 12.0001 9.7Z" fill="#909AAA"/>
<path fill-rule="evenodd" clip-rule="evenodd" d="M22 12C22 17.5228 17.5228 22 12 22C6.47715 22 2 17.5228 2 12C2 6.47715 6.47715 2 12 2C17.5228 2 22 6.47715 22 12ZM20.2 12C20.2 16.5287 16.5287 20.2 12 20.2C7.47126 20.2 3.8 16.5287 3.8 12C3.8 7.47126 7.47126 3.8 12 3.8C16.5287 3.8 20.2 7.47126 20.2 12Z" fill="#909AAA"/>
</svg>
