<svg width="24" height="24" viewBox="0 0 24 24" xmlns="http://www.w3.org/2000/svg">
    <path d="M1.903 1.5a.9.9 0 10-.658 1.676l.463.181a3.1 3.1 0 011.92 2.344l1.152 6.493a4.9 4.9 0 004.824 4.044h7.233a4.9 4.9 0 004.656-3.375L23 8.263a1.9 1.9 0 00-1.806-2.492H5.468L5.4 5.387A4.9 4.9 0 002.365 1.68L1.903 1.5z M10.736 20.237a2 2 0 11-4 0 2 2 0 014 0zM18.236 22.237a2 2 0 100-4 2 2 0 000 4z" fill="#909AAA"/>
    <path d="M15.325 8.727a.657.657 0 01.968 0 .705.705 0 010 .956l-3.265 3.504a.657.657 0 01-.95.019l-1.722-1.494a.705.705 0 01-.03-.985.657.657 0 01.946-.021l1.239 1.042 2.814-3.021z" fill="#fff"/>
</svg>