<svg width="24" height="24" viewBox="0 0 24 24" fill="none" xmlns="http://www.w3.org/2000/svg">
<path fill-rule="evenodd" clip-rule="evenodd" d="M3.11378 4.50049C0.691242 6.92302 0.691244 10.8507 3.11378 13.2733L10.7274 20.8869C11.4303 21.5898 12.57 21.5898 13.273 20.8869L20.8866 13.2736C23.3091 10.851 23.3091 6.92334 20.8866 4.50081C18.4641 2.07827 14.5364 2.07827 12.1138 4.50081C12.0512 4.56348 11.9492 4.56316 11.8866 4.50049C9.46402 2.07795 5.53631 2.07795 3.11378 4.50049ZM12.6456 6.39942C12.273 6.71409 11.7277 6.71409 11.3551 6.39941L10.6138 5.77328C8.89417 4.05369 6.10616 4.05369 4.38657 5.77328C2.66698 7.49287 2.66698 10.2809 4.38657 12.0005L11.8587 19.4726C11.9368 19.5508 12.0635 19.5508 12.1416 19.4727L19.6138 12.0008C21.3334 10.2812 21.3334 7.49319 19.6138 5.7736C17.8942 4.05401 15.1062 4.05401 13.3866 5.7736L12.6456 6.39942Z" fill="#909AAA"/>
</svg>
