<svg width="24" height="24" viewBox="0 0 24 24" fill="none" xmlns="http://www.w3.org/2000/svg">
<path fill-rule="evenodd" clip-rule="evenodd" d="M13.6875 17.25C13.6875 16.5251 14.2751 15.9375 15 15.9375C15.7249 15.9375 16.3125 16.5251 16.3125 17.25C16.3125 17.9749 15.7249 18.5625 15 18.5625C14.2751 18.5625 13.6875 17.9749 13.6875 17.25ZM15 17.0625C14.8964 17.0625 14.8125 17.1464 14.8125 17.25C14.8125 17.3536 14.8964 17.4375 15 17.4375C15.1036 17.4375 15.1875 17.3536 15.1875 17.25C15.1875 17.1464 15.1036 17.0625 15 17.0625Z" fill="#909AAA"/>
<path fill-rule="evenodd" clip-rule="evenodd" d="M10.125 15.1875C9.19302 15.1875 8.4375 15.943 8.4375 16.875C8.4375 17.807 9.19302 18.5625 10.125 18.5625C11.057 18.5625 11.8125 17.807 11.8125 16.875C11.8125 15.943 11.057 15.1875 10.125 15.1875ZM9.5625 16.875C9.5625 16.5643 9.81434 16.3125 10.125 16.3125C10.4357 16.3125 10.6875 16.5643 10.6875 16.875C10.6875 17.1857 10.4357 17.4375 10.125 17.4375C9.81434 17.4375 9.5625 17.1857 9.5625 16.875Z" fill="#909AAA"/>
<path fill-rule="evenodd" clip-rule="evenodd" d="M8.25 2.4375C8.25 2.12684 8.50184 1.875 8.8125 1.875H15.5625C15.8732 1.875 16.125 2.12684 16.125 2.4375C16.125 2.74816 15.8732 3 15.5625 3H15.0662V5.2223C15.0662 5.62353 15.3395 6.01931 15.7857 6.22281C18.6365 7.5231 20.625 10.3298 20.625 13.5982C20.625 18.1197 16.8276 21.75 12.1875 21.75C7.54737 21.75 3.75 18.1197 3.75 13.5982C3.75 10.3298 5.73848 7.5231 8.5893 6.22281C9.03547 6.01931 9.30882 5.62353 9.30882 5.2223V3H8.8125C8.50184 3 8.25 2.74816 8.25 2.4375ZM10.4338 3H13.9412V5.2223C13.9412 6.14985 14.556 6.89845 15.3188 7.24637C17.2785 8.14021 18.7508 9.84121 19.2832 11.8934C18.6175 12.4024 17.3546 13.125 15.4902 13.125C14.3832 13.125 13.608 12.7071 12.7269 12.189L12.587 12.1065C11.747 11.6105 10.7865 11.0433 9.44972 10.9087C7.48765 10.7113 5.99228 11.428 5.05153 12.0572C5.5466 9.93185 7.04456 8.16388 9.05616 7.24637C9.81895 6.89845 10.4338 6.14985 10.4338 5.2223V3ZM4.875 13.6058C4.87924 17.4637 8.13179 20.625 12.1875 20.625C16.2459 20.625 19.5 17.4596 19.5 13.5982C19.5 13.4387 19.4945 13.2805 19.4836 13.1236C18.6217 13.671 17.2898 14.25 15.4902 14.25C14.0568 14.25 13.0537 13.6862 12.1567 13.1587L12.0529 13.0977C11.8522 12.9795 11.6566 12.8643 11.4609 12.7557C11.1036 13.641 10.2052 14.25 9.1875 14.25C8.03443 14.25 7.03438 13.4681 6.8012 12.3884C5.95956 12.732 5.34389 13.228 4.93873 13.5545L4.875 13.6058ZM10.4369 12.2774C10.1 12.1567 9.74041 12.0687 9.33706 12.0281C8.8101 11.9751 8.32746 11.9994 7.88791 12.0753C7.97567 12.6493 8.50184 13.125 9.1875 13.125C9.79074 13.125 10.2705 12.7568 10.4369 12.2774Z" fill="#909AAA"/>
</svg>
