<svg width="24" height="24" viewBox="0 0 24 24" fill="none" xmlns="http://www.w3.org/2000/svg">
<path fill-rule="evenodd" clip-rule="evenodd" d="M8.96937 3.61553C9.36116 3.20703 9.96509 3.08321 10.4861 3.31877L10.4874 3.31938C10.9986 3.55168 11.3 4.06605 11.3 4.60051V7.5C17.2145 8.03521 21.7999 13.0699 21.7999 19.4003C21.7999 20.0037 21.4143 20.5826 20.7877 20.7537C20.6665 20.7869 20.5486 20.8003 20.4375 20.8003C19.9208 20.8003 19.4645 20.5031 19.2336 20.0563L19.2327 20.0545L19.2181 20.0264C17.6646 17.033 14.7231 15.1 11.5635 15.1H11.3V17.8003C11.3 18.3348 10.9986 18.8492 10.4874 19.0815L10.4847 19.0827C9.96254 19.3176 9.36198 19.1906 8.97136 18.7874L2.59693 12.1881L2.59613 12.1872C2.3364 11.9192 2.19995 11.562 2.19995 11.2004C2.19995 10.8389 2.3364 10.4816 2.59611 10.2137L2.59693 10.2128L8.96937 3.61553ZM9.69995 5.16218L3.86748 11.2004L9.69995 17.2387V14.3C9.69995 13.8582 10.0581 13.5 10.5 13.5H11.5635C15.0476 13.5 18.2578 15.4548 20.1616 18.4599C19.7197 13.0756 15.5211 9.15002 10.4852 9.05706C10.0492 9.04902 9.69995 8.69327 9.69995 8.2572V5.16218Z" fill="#909AAA"/>
</svg>
