<svg width="26" height="26" viewBox="0 0 26 26" fill="#909AAA" xmlns="http://www.w3.org/2000/svg">
<path fill-rule="evenodd" clip-rule="evenodd" d="M24.0501 4.51668C24.0501 3.63747 23.1956 3.01182 22.3574 3.27742L10.6696 6.9812V15.2911L22.3574 18.9949C23.1956 19.2605 24.0501 18.6349 24.0501 17.7557V4.51668ZM10.6696 17.1094L21.8338 20.6473C23.7894 21.267 25.7835 19.8071 25.7835 17.7557V4.51668C25.7835 2.4652 23.7894 1.00534 21.8338 1.62507L9.66894 5.48003H5.15257C4.30375 5.48003 3.07784 5.77156 2.04906 6.64342C0.987245 7.54327 0.216797 8.99279 0.216797 11.1362C0.216797 13.2795 0.987245 14.7291 2.04906 15.6289C2.76371 16.2346 3.57349 16.5602 4.2859 16.7025V23.2239C4.2859 24.3008 5.15895 25.1739 6.2359 25.1739H8.71964C9.7966 25.1739 10.6696 24.3008 10.6696 23.2239V17.1094ZM8.93631 15.059H5.15257C4.64502 15.059 3.83638 14.8716 3.1697 14.3066C2.53605 13.7696 1.95013 12.8244 1.95013 11.1362C1.95013 9.44797 2.53605 8.50276 3.1697 7.96577C3.83638 7.40078 4.64502 7.21337 5.15257 7.21337H8.93631V15.059ZM8.93631 16.7923V23.2239C8.93631 23.3436 8.83931 23.4406 8.71964 23.4406H6.2359C6.11624 23.4406 6.01924 23.3436 6.01924 23.2239V16.7923H8.93631Z"/>
</svg>
