<svg width="24" height="24" viewBox="0 0 24 24" fill="none" xmlns="http://www.w3.org/2000/svg">
<path d="M16.5773 10.4927C16.9046 10.1186 16.8667 9.55001 16.4927 9.22269C16.1186 8.89538 15.55 8.93328 15.2227 9.30736L11.4659 13.6008L9.52069 11.7483C9.16075 11.4055 8.59107 11.4194 8.24828 11.7793C7.90548 12.1393 7.91937 12.7089 8.27931 13.0517L10.9043 15.5517C11.0819 15.7209 11.3209 15.8102 11.5659 15.7991C11.8109 15.7879 12.0408 15.6773 12.2023 15.4927L16.5773 10.4927Z" fill="#909AAA"/>
<path fill-rule="evenodd" clip-rule="evenodd" d="M11.4421 1.1395C11.8183 0.812714 12.3776 0.812714 12.7538 1.1395L14.6918 2.82315C14.8965 3.00092 15.1645 3.088 15.4345 3.06446L17.992 2.84151C18.4884 2.79823 18.9409 3.127 19.0532 3.61247L19.6315 6.11373C19.6925 6.37782 19.8582 6.60581 20.0905 6.74548L22.2906 8.06839C22.7176 8.32516 22.8905 8.85712 22.6959 9.31584L21.6936 11.6793C21.5877 11.9288 21.5877 12.2107 21.6936 12.4602L22.6959 14.8237C22.8905 15.2824 22.7176 15.8144 22.2906 16.0711L20.0905 17.394C19.8582 17.5337 19.6925 17.7617 19.6315 18.0258L19.0532 20.527C18.9409 21.0125 18.4884 21.3413 17.992 21.298L15.4345 21.0751C15.1645 21.0515 14.8965 21.1386 14.6918 21.3164L12.7538 23C12.3776 23.3268 11.8183 23.3268 11.4421 23L9.5041 21.3164C9.29948 21.1386 9.03146 21.0515 8.76143 21.0751L6.20389 21.298C5.7075 21.3413 5.25499 21.0125 5.14275 20.527L4.56447 18.0258C4.50341 17.7617 4.33777 17.5337 4.10547 17.394L1.90533 16.0711C1.4783 15.8144 1.30546 15.2824 1.50001 14.8237L2.50237 12.4602C2.6082 12.2107 2.6082 11.9288 2.50237 11.6793L1.50001 9.31584C1.30546 8.85712 1.4783 8.32516 1.90533 8.06839L4.10547 6.74548C4.33777 6.60581 4.50341 6.37782 4.56447 6.11373L5.14275 3.61247C5.25499 3.127 5.7075 2.79823 6.20389 2.84151L8.76143 3.06446C9.03146 3.088 9.29948 3.00091 9.5041 2.82315L11.4421 1.1395ZM10.6846 4.182L12.098 2.95413L13.5113 4.182C14.0843 4.67973 14.8347 4.92357 15.5908 4.85766L17.456 4.69506L17.8777 6.51919C18.0487 7.25863 18.5125 7.89701 19.1629 8.2881L20.7674 9.25287L20.0364 10.9765C19.7401 11.6752 19.7401 12.4643 20.0364 13.163L20.7674 14.8866L19.1629 15.8514C18.5125 16.2425 18.0487 16.8809 17.8777 17.6203L17.456 19.4444L15.5908 19.2819C14.8347 19.2159 14.0843 19.4598 13.5113 19.9575L12.098 21.1854L10.6846 19.9575C10.1116 19.4598 9.36119 19.2159 8.60511 19.2819L6.73994 19.4444L6.31821 17.6203C6.14725 16.8809 5.68344 16.2425 5.03302 15.8514L3.42849 14.8866L4.1595 13.163C4.45583 12.4643 4.45583 11.6752 4.1595 10.9765L3.42849 9.25287L5.03302 8.2881C5.68345 7.89701 6.14725 7.25863 6.31821 6.51919L6.73994 4.69506L8.60511 4.85766C9.36119 4.92357 10.1116 4.67973 10.6846 4.182Z" fill="#909AAA"/>
</svg>
