<svg width="24" height="24" viewBox="0 0 24 24" fill="none" xmlns="http://www.w3.org/2000/svg">
<path d="M12.9001 6.99998C12.9001 6.50292 12.4972 6.09998 12.0001 6.09998C11.503 6.09998 11.1001 6.50292 11.1001 6.99998V11.1H7.0001C6.50304 11.1 6.1001 11.503 6.1001 12C6.1001 12.4971 6.50304 12.9 7.0001 12.9H11.1001V17C11.1001 17.497 11.503 17.9 12.0001 17.9C12.4972 17.9 12.9001 17.497 12.9001 17V12.9H17.0001C17.4972 12.9 17.9001 12.4971 17.9001 12C17.9001 11.503 17.4972 11.1 17.0001 11.1H12.9001V6.99998Z" fill="#909AAA"/>
</svg>
