<svg width="24" height="24" viewBox="0 0 24 24" fill="none" xmlns="http://www.w3.org/2000/svg">
<path d="M12 23.2012C17.9941 23.2012 22.957 18.2383 22.957 12.2441C22.957 6.26074 17.9834 1.28711 11.9893 1.28711C6.00586 1.28711 1.04297 6.26074 1.04297 12.2441C1.04297 18.2383 6.0166 23.2012 12 23.2012ZM12 21.375C6.92969 21.375 2.87988 17.3145 2.87988 12.2441C2.87988 7.18457 6.91895 3.11328 11.9893 3.11328C17.0596 3.11328 21.1201 7.18457 21.1309 12.2441C21.1416 17.3145 17.0703 21.375 12 21.375ZM7.6709 13.1572H16.3184C16.9199 13.1572 17.3281 12.8457 17.3281 12.2764C17.3281 11.6963 16.9414 11.3633 16.3184 11.3633H7.6709C7.04785 11.3633 6.65039 11.6963 6.65039 12.2764C6.65039 12.8457 7.06934 13.1572 7.6709 13.1572Z" fill="#909AAA"/>
</svg>
