<svg width="24" height="24" viewBox="0 0 24 24" fill="none" xmlns="http://www.w3.org/2000/svg">
<path d="M5.8 12C5.8 8.63104 8.53106 5.89998 11.9 5.89998C13.3528 5.89998 14.6871 6.40741 15.7353 7.25612L14.2739 8.71754C14.1309 8.86054 14.0881 9.0756 14.1655 9.26244C14.2429 9.44928 14.4252 9.5711 14.6275 9.5711H18.8701C19.1462 9.5711 19.3701 9.34724 19.3701 9.0711V4.82846C19.3701 4.62622 19.2483 4.44391 19.0614 4.36652C18.8746 4.28912 18.6596 4.3319 18.5166 4.4749L17.0134 5.97804C15.6359 4.80736 13.8506 4.09998 11.9 4.09998C7.53695 4.09998 4 7.63693 4 12C4 16.363 7.53695 19.9 11.9 19.9C15.2263 19.9 18.0703 17.8446 19.2354 14.9379C19.4203 14.4765 19.1962 13.9526 18.7349 13.7677C18.2735 13.5827 17.7495 13.8068 17.5646 14.2682C16.6638 16.5155 14.4659 18.1 11.9 18.1C8.53106 18.1 5.8 15.3689 5.8 12Z" fill="#909AAA"/>
</svg>
