<svg width="24" height="24" viewBox="0 0 24 24" fill="none" xmlns="http://www.w3.org/2000/svg">
<path d="M11.8087 1.53807C11.9955 1.46068 12.2106 1.50346 12.3536 1.64646L15.3536 4.64646C15.5488 4.84172 15.5488 5.15831 15.3536 5.35357L12.3536 8.35357C12.2106 8.49657 11.9955 8.53935 11.8087 8.46195C11.6218 8.38456 11.5 8.20225 11.5 8.00001V5.92018C8.36499 6.17457 5.9001 8.79942 5.9001 12C5.9001 12.9372 6.11084 13.8227 6.48666 14.6138C6.69995 15.0628 6.50888 15.5996 6.05991 15.8129C5.61094 16.0262 5.07408 15.8351 4.86079 15.3862C4.37274 14.3588 4.1001 13.21 4.1001 12C4.1001 7.8049 7.36995 4.37354 11.5 4.11555V2.00001C11.5 1.79778 11.6218 1.61547 11.8087 1.53807Z" fill="#909AAA"/>
<path d="M12.1913 15.5381C12.0045 15.4607 11.7894 15.5035 11.6464 15.6465L8.64645 18.6465C8.45118 18.8417 8.45118 19.1583 8.64645 19.3536L11.6464 22.3536C11.7894 22.4966 12.0045 22.5393 12.1913 22.462C12.3782 22.3846 12.5 22.2022 12.5 22V19.8844C16.6301 19.6265 19.9001 16.1951 19.9001 12C19.9001 10.79 19.6275 9.64117 19.1394 8.61379C18.9261 8.16482 18.3893 7.97376 17.9403 8.18704C17.4913 8.40032 17.3002 8.93719 17.5135 9.38616C17.8894 10.1773 18.1001 11.0628 18.1001 12C18.1001 15.2006 15.6351 17.8255 12.5 18.0798V16C12.5 15.7978 12.3782 15.6155 12.1913 15.5381Z" fill="#909AAA"/>
</svg>
