<svg width="24" height="24" viewBox="0 0 24 24" fill="none" xmlns="http://www.w3.org/2000/svg">
<path fill-rule="evenodd" clip-rule="evenodd" d="M4.89478 5.54934C5.39625 4.59654 6.38433 4 7.46104 4H19.2536C20.8552 4 22.1536 5.29837 22.1536 6.9V12.4C22.1536 14.0016 20.8552 15.3 19.2536 15.3H16.1751L11.3059 21.1431C10.0653 22.6318 7.65351 21.5259 7.9721 19.6144L8.69116 15.3H4.5663C2.38402 15.3 0.983654 12.9805 2.00004 11.0493L4.89478 5.54934ZM16.6536 13.5H19.2536C19.8611 13.5 20.3536 13.0075 20.3536 12.4V6.9C20.3536 6.29249 19.8611 5.8 19.2536 5.8H16.6536V13.5ZM14.8536 5.8H7.46104C7.05263 5.8 6.67784 6.02627 6.48763 6.38768L3.59289 11.8877C3.20737 12.6202 3.73854 13.5 4.5663 13.5H9.75358C10.0181 13.5 10.2693 13.6164 10.4403 13.8183C10.6113 14.0201 10.6848 14.287 10.6413 14.548L9.74761 19.9103C9.74314 19.9371 9.74495 19.9522 9.74607 19.9583C9.74723 19.9648 9.7491 19.9696 9.75178 19.9743C9.75796 19.985 9.77426 20.0037 9.80456 20.0176C9.83487 20.0315 9.85971 20.0317 9.87189 20.0293C9.87716 20.0283 9.882 20.0266 9.88768 20.0233C9.89308 20.0201 9.90567 20.0116 9.92307 19.9908L14.8536 14.0742V5.8Z" fill="#909AAA"/>
</svg>
