<svg width="24" height="24" viewBox="0 0 24 24" fill="none" xmlns="http://www.w3.org/2000/svg">
<path d="M16.8772 10.3496C17.2361 10.0057 17.8058 10.0178 18.1497 10.3766C18.4937 10.7355 18.4815 11.3052 18.1227 11.6491L13.14 16.4242C12.7858 16.7636 12.2249 16.7568 11.879 16.4089L9.36923 13.8841C9.0188 13.5316 9.0205 12.9617 9.37302 12.6113C9.72554 12.2609 10.2954 12.2626 10.6458 12.6151L12.5326 14.5132L16.8772 10.3496Z" fill="#909AAA"/>
<path fill-rule="evenodd" clip-rule="evenodd" d="M21.9 18.9996C21.9 20.6012 20.6016 21.8996 19 21.8996H7.99997C6.39835 21.8996 5.09997 20.6012 5.09997 18.9996V18.8996H4.99998C3.39835 18.8996 2.09998 17.6012 2.09998 15.9996V4.99961C2.09998 3.39798 3.39835 2.09961 4.99998 2.09961H16C17.6016 2.09961 18.9 3.39798 18.9 4.99961V5.09961H19C20.6016 5.09961 21.9 6.39798 21.9 7.99961V18.9996ZM7.99998 6.89961C7.39246 6.89961 6.89997 7.3921 6.89997 7.99961L6.89997 18.9996C6.89997 19.6071 7.39246 20.0996 7.99997 20.0996H19C19.6075 20.0996 20.1 19.6071 20.1 18.9996V17.4721L20.1 17.4702L20.1 7.99961C20.1 7.3921 19.6075 6.89961 19 6.89961L7.99998 6.89961ZM17.1 5.09961V4.99961C17.1 4.3921 16.6075 3.89961 16 3.89961L4.99998 3.89961C4.39246 3.89961 3.89997 4.3921 3.89997 4.99961L3.89997 15.9996C3.89997 16.6071 4.39246 17.0996 4.99998 17.0996H5.09997L5.09998 7.99961C5.09998 6.39798 6.39835 5.09961 7.99998 5.09961L17.1 5.09961Z" fill="#909AAA"/>
</svg>
