<svg width="26" height="26" viewBox="0 0 26 26" fill="#909AAA" xmlns="http://www.w3.org/2000/svg">
<path fill-rule="evenodd" clip-rule="evenodd" d="M24.8922 0.916442C23.7091 -0.266684 21.7909 -0.266682 20.6077 0.916443L15.8906 5.63355H5.41631C2.54442 5.63355 0.216309 7.96167 0.216309 10.8336V23.055C0.216309 24.5503 1.82998 25.4892 3.12993 24.7502L6.73091 22.7034C6.92672 22.5921 7.14809 22.5335 7.37332 22.5335H17.333C20.2049 22.5335 22.533 20.2054 22.533 17.3335V7.56015L24.8922 5.20092C26.0753 4.01779 26.0753 2.09957 24.8922 0.916442ZM21.8334 2.14209C22.3396 1.63588 23.1603 1.63588 23.6666 2.14209C24.1728 2.64831 24.1728 3.46905 23.6666 3.97527L15.4023 12.2395C15.3828 12.259 15.3598 12.2746 15.3345 12.2854L12.1648 13.6439L13.5232 10.4742C13.5341 10.4489 13.5497 10.4258 13.5691 10.4063L21.8334 2.14209ZM20.7996 9.29348L16.628 13.4652C16.4525 13.6406 16.2453 13.7809 16.0173 13.8786L11.105 15.9839C10.296 16.3306 9.47806 15.5126 9.82477 14.7036L11.93 9.7914C12.0277 9.56338 12.1681 9.3561 12.3435 9.18068L14.1573 7.36688H5.41631C3.50172 7.36688 1.94964 8.91896 1.94964 10.8336V23.055C1.94964 23.2211 2.12894 23.3254 2.27338 23.2433L5.87435 21.1965C6.33125 20.9368 6.84778 20.8002 7.37332 20.8002H17.333C19.2476 20.8002 20.7996 19.2481 20.7996 17.3335V9.29348Z"/>
</svg>
