<svg width="24" height="24" viewBox="0 0 24 24" fill="none" xmlns="http://www.w3.org/2000/svg">
<path fill-rule="evenodd" clip-rule="evenodd" d="M12.9488 18.454C12.8531 18.5748 12.7969 18.7272 12.7969 18.8905V20.6741C12.7969 20.914 12.9191 21.1366 13.1198 21.2655C13.1285 21.2711 13.1374 21.2766 13.1464 21.2818C13.3645 21.4087 13.5 21.642 13.5 21.8906C13.5 22.2783 13.1846 22.5938 12.7969 22.5938H11.3906C11.0029 22.5938 10.6875 22.2783 10.6875 21.8906C10.6875 21.642 10.823 21.4087 11.0411 21.2818C11.0501 21.2766 11.059 21.2711 11.0677 21.2655C11.2683 21.1366 11.3906 20.914 11.3906 20.6741V18.8905C11.3906 18.7165 11.3269 18.555 11.2195 18.4308C10.1029 18.2669 9.07856 17.8191 8.22218 17.1631L8.21653 17.1631C8.03503 17.1631 7.85487 17.2333 7.71902 17.3692L6.45741 18.6307C6.28775 18.8004 6.2168 19.0442 6.26751 19.2773C6.26972 19.2874 6.27216 19.2976 6.27483 19.3077C6.33933 19.5516 6.27019 19.8123 6.09436 19.9882C5.82019 20.2623 5.37408 20.2623 5.1 19.9882L4.10559 18.9938C3.97388 18.862 3.90136 18.6855 3.90141 18.4966C3.90141 18.3077 3.97392 18.1311 4.10564 17.9994C4.28142 17.8237 4.54209 17.7543 4.78612 17.819C4.79621 17.8216 4.80632 17.8241 4.81645 17.8263C5.04949 17.8768 5.29346 17.8059 5.46313 17.6362L6.72473 16.3746C6.86868 16.2306 6.93873 16.0369 6.92978 15.8446C6.31676 15.0102 5.89818 14.0241 5.74081 12.9531C5.61066 12.7988 5.41632 12.7031 5.20317 12.7031H3.41963C3.17973 12.7031 2.95715 12.8254 2.82821 13.0261C2.82259 13.0348 2.81715 13.0437 2.81189 13.0527C2.68505 13.2707 2.45175 13.4062 2.20312 13.4062C1.81542 13.4062 1.5 13.0908 1.5 12.7031V11.2969C1.5 10.9092 1.81542 10.5938 2.20312 10.5938C2.45175 10.5938 2.685 10.7293 2.81184 10.9473C2.8171 10.9563 2.82255 10.9652 2.82817 10.974C2.95713 11.1746 3.17977 11.2969 3.41967 11.2969H5.20317C5.41631 11.2969 5.61066 11.2012 5.7408 11.0469C5.89818 9.97582 6.31683 8.98964 6.92993 8.15521C6.93879 7.96289 6.86867 7.7693 6.72473 7.62534L5.463 6.36366C5.29337 6.19402 5.04947 6.12311 4.81642 6.17374C4.8063 6.17594 4.7962 6.17837 4.78612 6.18103C4.54209 6.24563 4.28142 6.17634 4.10559 6.00056C3.97388 5.86884 3.90136 5.69231 3.90136 5.50341C3.90136 5.3145 3.97388 5.13792 4.10559 5.00625L5.1 4.01189C5.37413 3.73781 5.82019 3.73772 6.09436 4.01189C6.27014 4.18772 6.33933 4.44844 6.27483 4.69237C6.27216 4.70247 6.26972 4.71259 6.26751 4.72274C6.21679 4.95579 6.28777 5.19968 6.45741 5.3693L7.71914 6.63103C7.85639 6.76828 8.03874 6.83838 8.2221 6.83694C9.07849 6.18088 10.1028 5.73308 11.2195 5.56921C11.3268 5.44497 11.3906 5.28348 11.3906 5.10947V3.32592C11.3906 3.08599 11.2684 2.86342 11.0677 2.73448C11.059 2.72887 11.0501 2.72343 11.0411 2.71819C10.823 2.5913 10.6875 2.358 10.6875 2.10938C10.6875 1.72167 11.0029 1.40625 11.3906 1.40625H12.7969C13.1846 1.40625 13.5 1.72167 13.5 2.10938C13.5 2.358 13.3645 2.5913 13.1464 2.71819C13.1374 2.72343 13.1285 2.72887 13.1198 2.73448C12.9191 2.86342 12.7969 3.08599 12.7969 3.32592V5.10947C12.7969 5.27284 12.8531 5.42517 12.9488 5.546C14.1259 5.6863 15.2065 6.14118 16.1041 6.82421C16.2385 6.79837 16.3661 6.73329 16.4685 6.63087L17.7301 5.3693C17.8998 5.19968 17.9708 4.95581 17.92 4.72274C17.9178 4.71259 17.9154 4.70247 17.9127 4.69237C17.8482 4.44848 17.9174 4.18772 18.0932 4.01189C18.3673 3.73772 18.8134 3.73772 19.0875 4.01189L20.082 5.0063C20.2137 5.13802 20.2862 5.31455 20.2861 5.50345C20.2861 5.69236 20.2136 5.86894 20.0819 6.00061C19.9061 6.17639 19.6454 6.24567 19.4014 6.18108C19.3913 6.17841 19.3812 6.17598 19.3711 6.17378C19.138 6.12308 18.894 6.19412 18.7244 6.36383L17.4627 7.62551C17.3649 7.72343 17.3012 7.84426 17.2733 7.97203C17.9922 8.88141 18.4732 9.98756 18.6223 11.1965C18.7287 11.2605 18.853 11.2969 18.9844 11.2969H20.7679C21.0078 11.2969 21.2304 11.1746 21.3594 10.974C21.365 10.9652 21.3705 10.9564 21.3757 10.9473C21.5025 10.7293 21.7358 10.5938 21.9844 10.5938C22.3721 10.5938 22.6875 10.9092 22.6875 11.2969V12.7031C22.6875 13.0908 22.3721 13.4062 21.9844 13.4062C21.7358 13.4062 21.5025 13.2707 21.3756 13.0527C21.3704 13.0437 21.3649 13.0348 21.3593 13.0261C21.2304 12.8255 21.0077 12.7032 20.7678 12.7031H18.9843C18.8529 12.7031 18.7287 12.7395 18.6223 12.8035C18.4732 14.0125 17.9922 15.1188 17.2731 16.0282C17.3011 16.1559 17.3648 16.2768 17.4627 16.3747L18.7245 17.6363C18.8941 17.806 19.138 17.877 19.3711 17.8263L19.3842 17.8233L19.4013 17.819C19.6453 17.7544 19.906 17.8237 20.0819 17.9994C20.2136 18.1312 20.2861 18.3077 20.2861 18.4966C20.2861 18.6855 20.2136 18.8621 20.0819 18.9938L19.0875 19.9881C18.8133 20.2622 18.3673 20.2623 18.0931 19.9881C17.9174 19.8123 17.8482 19.5516 17.9127 19.3076C17.9153 19.2975 17.9178 19.2874 17.92 19.2773C17.9707 19.0442 17.8998 18.8003 17.7301 18.6307L16.4684 17.369C16.366 17.2666 16.2384 17.2015 16.1041 17.1757C15.2066 17.8588 14.126 18.3137 12.9488 18.454ZM17 12C17 14.6667 14.8382 16.8286 12.1714 16.8286C9.50468 16.8286 7.34286 14.6667 7.34286 12C7.34286 9.33325 9.50468 7.17143 12.1714 7.17143C14.8382 7.17143 17 9.33325 17 12Z" fill="#909AAA"/>
</svg>
