<?xml version="1.0" standalone="no"?>
<!DOCTYPE svg PUBLIC "-//W3C//DTD SVG 1.1//EN" "http://www.w3.org/Graphics/SVG/1.1/DTD/svg11.dtd" >
<svg xmlns="http://www.w3.org/2000/svg">
<metadata>Generated by IcoMoon</metadata>
<defs>
<font id="icomoon" horiz-adv-x="1024">
<font-face units-per-em="1024" ascent="960" descent="-64" />
<missing-glyph horiz-adv-x="1024" />
<glyph unicode="&#x20;" horiz-adv-x="512" d="" />
<glyph unicode="&#xe900;" glyph-name="icon-done-circle" d="M355.349 472.111c-14.996 14.997-39.31 14.997-54.306 0s-14.996-39.309 0-54.306l135.411-135.411c14.997-14.993 39.309-14.993 54.306 0l253.026 253.028c14.997 14.996 14.997 39.31 0 54.306s-39.309 14.996-54.306 0l-225.873-225.874-108.258 108.258zM981.333 448c0 259.206-210.129 469.333-469.333 469.333-259.206 0-469.333-210.128-469.333-469.333 0-259.204 210.128-469.333 469.333-469.333s469.333 210.129 469.333 469.333zM904.533 448c0-216.789-175.744-392.533-392.533-392.533s-392.533 175.744-392.533 392.533c0 216.79 175.743 392.533 392.533 392.533s392.533-175.743 392.533-392.533z" />
<glyph unicode="&#xe901;" glyph-name="icon-alphabet" d="M320 592c13.255 0 24-10.745 24-24v-80c0-13.257-10.745-24-24-24s-24 10.743-24 24v80c0 13.255 10.745 24 24 24zM582.204 295.825h-76.851l-7.701-27.443c-3.383-12.053-14.37-20.382-26.889-20.382-19.063 0-32.525 18.675-26.496 36.757l64.721 194.202c4.983 14.955 18.978 25.041 34.739 25.041 15.731 0 29.705-10.048 34.714-24.96l65.152-194.039c6.106-18.185-7.424-37.001-26.607-37.001-12.544 0-23.569 8.329-26.995 20.399l-7.787 27.426zM518.771 343.471h50.010l-25.084 88.794-24.926-88.794zM344 392c0 13.257-10.745 24-24 24s-24-10.743-24-24v-80c0-13.257 10.745-24 24-24s24 10.743 24 24v80zM320 240c13.255 0 24-10.743 24-24v-80c0-13.257-10.745-24-24-24s-24 10.743-24 24v80c0 13.257 10.745 24 24 24zM672 880c83.947 0 152-68.053 152-152v-560c0-83.947-68.053-152-152-152h-384c-48.601 0-88 39.398-88 88v688c0 48.601 39.399 88 88 88h384zM248 696v-17.595c12.001 6.135 25.597 9.595 40 9.595h384c39.633 0 75.721-15.168 102.78-40.015-7.689 49.849-50.778 88.015-102.78 88.015h-384c-22.092 0-40-17.908-40-40zM248 600v-496c0-22.093 17.908-40 40-40h384c57.438 0 104 46.562 104 104v368c0 57.437-46.562 104-104 104h-384c-22.092 0-40-17.908-40-40zM774.78 743.985c-27.059 24.847-63.147 40.015-102.78 40.015h-384c-14.403 0-27.999-3.46-40-9.595v17.595c0 22.092 17.908 40 40 40h384c52.002 0 95.091-38.166 102.78-88.015z" />
<glyph unicode="&#xe902;" glyph-name="icon-arrow-down" d="M511.996 790.875c21.205 0 38.4-17.192 38.4-38.4v-547.295l147.78 147.78c14.993 14.997 39.309 14.997 54.302 0 14.997-14.993 14.997-39.309 0-54.306l-213.333-213.333c-14.993-14.993-39.309-14.993-54.302 0l-213.335 213.333c-14.996 14.997-14.996 39.313 0 54.306 14.996 14.997 39.31 14.997 54.306 0l147.782-147.78v547.295c0 21.208 17.19 38.4 38.4 38.4z" />
<glyph unicode="&#xe903;" glyph-name="icon-arrow-left" d="M854.874 448.004c0-21.205-17.19-38.4-38.4-38.4h-547.293l147.78-147.78c14.996-14.993 14.996-39.309 0-54.306-14.996-14.993-39.31-14.993-54.306 0l-213.333 213.333c-14.996 14.997-14.996 39.313 0 54.306l213.333 213.335c14.996 14.996 39.31 14.996 54.306 0s14.996-39.31 0-54.306l-147.78-147.782h547.293c21.21 0 38.4-17.19 38.4-38.4z" />
<glyph unicode="&#xe904;" glyph-name="icon-arrow-right" d="M169.12 447.983c0 21.21 17.193 38.4 38.4 38.4h547.296l-147.785 147.781c-14.993 14.996-14.993 39.31 0 54.306 14.997 14.996 39.313 14.996 54.306 0l213.333-213.334c14.997-14.997 14.997-39.309 0-54.306l-213.333-213.333c-14.993-14.997-39.309-14.997-54.306 0-14.993 14.997-14.993 39.309 0 54.306l147.785 147.78h-547.296c-21.207 0-38.4 17.195-38.4 38.4z" />
<glyph unicode="&#xe905;" glyph-name="icon-arrow-up" d="M512.004 105.126c-21.205 0-38.4 17.19-38.4 38.4v547.293l-147.779-147.78c-14.996-14.996-39.31-14.996-54.306 0s-14.996 39.31 0 54.306l213.331 213.333c14.997 14.996 39.313 14.996 54.306 0l213.333-213.333c14.997-14.996 14.997-39.31 0-54.306-14.993-14.996-39.309-14.996-54.306 0l-147.78 147.78v-547.293c0-21.21-17.19-38.4-38.4-38.4z" />
<glyph unicode="&#xe906;" glyph-name="icon-arrow-vector-right" d="M382.693 805.737c16.716 17.429 42.484 22.712 64.714 12.662l0.055-0.026c21.811-9.911 34.671-31.858 34.671-54.662v-123.712c252.352-22.836 447.996-237.649 447.996-507.746 0-25.745-16.452-50.445-43.187-57.745-5.171-1.417-10.202-1.988-14.942-1.988-22.046 0-41.515 12.681-51.366 31.744l-0.038 0.077-0.623 1.199c-66.283 127.718-191.787 210.193-326.596 210.193h-11.243v-115.213c0-22.805-12.86-44.753-34.671-54.665l-0.115-0.051c-22.279-10.022-47.903-4.604-64.569 12.599l-272.010 281.609c-11.082 11.435-16.904 26.675-16.904 42.103 0 15.424 5.822 30.669 16.903 42.099l0.035 0.038 271.891 281.484zM413.865 739.747l-248.852-257.631 248.852-257.634v125.385c0 18.85 15.281 34.133 34.135 34.133h45.376c148.655 0 285.623-83.405 366.852-211.622-18.854 229.73-197.995 397.222-412.86 401.188-18.603 0.343-33.504 15.522-33.504 34.127v132.054z" />
<glyph unicode="&#xe907;" glyph-name="icon-awesome" d="M644.267 690.523c-14.473 5.937-30.323 9.211-46.933 9.211-33.084 0-63.134-12.983-85.333-34.133-22.199 21.149-52.25 34.133-85.334 34.133-16.613 0-32.46-3.274-46.933-9.211v124.41c0 68.336-55.398 123.733-123.733 123.733s-123.733-55.397-123.733-123.733v-452.267c0-4.305 0.072-8.593 0.214-12.864-0.141-2.803-0.212-5.628-0.212-8.469h0.587c11.064-199.795 176.582-358.4 379.145-358.4 209.719 0 379.733 170.014 379.733 379.733v384.001c0 68.336-55.398 123.733-123.733 123.733-68.339 0-123.733-55.397-123.733-123.733v-56.145zM209.066 814.933c0 25.92 21.012 46.933 46.933 46.933s46.933-21.013 46.933-46.933v-307.2h-4.265c-32.99 0-63.738-9.6-89.602-26.159v333.359zM298.668 430.933h298.666c25.92 0 46.933-21.013 46.933-46.933s-21.013-46.933-46.933-46.933h-213.332c-21.207 0-38.4-17.19-38.4-38.4 0-21.205 17.193-38.4 38.4-38.4h213.332c68.339 0 123.733 55.398 123.733 123.733 0 9.476-1.062 18.705-3.081 27.571 1.98 4.634 3.081 9.737 3.081 15.095v320.001c0 25.921 21.013 46.933 46.933 46.933s46.933-21.012 46.933-46.933v-384.001c0-167.305-135.629-302.933-302.933-302.933-162.667 0-295.388 128.209-302.624 289.092 3.805 45.978 42.329 82.108 89.291 82.108zM644.267 576.001v-77.475c-14.473 5.935-30.319 9.207-46.933 9.207h-46.933v68.268c0 25.921 21.013 46.933 46.933 46.933s46.933-21.012 46.933-46.933zM473.6 576.001v-68.268h-93.868v68.268c0 25.921 21.012 46.933 46.933 46.933s46.934-21.012 46.934-46.933z" />
<glyph unicode="&#xe908;" glyph-name="icon-bordered-star" d="M440.899 833.437c26.002 63.707 116.212 63.707 142.214 0l80.731-197.816 247.249-24.704c71.274-7.121 94.858-99.319 35.753-139.787l-188.723-129.225 50.909-240.876c14.856-70.282-66.296-120.667-122.699-76.186l-174.568 137.677-179.26-138.118c-57.126-44.016-137.936 7.857-121.703 78.123l56.292 243.665-186.895 124.637c-59.984 40.003-36.767 133.147 34.975 140.315l244.995 24.479 80.731 197.816zM519.908 807.641c-2.891 7.079-12.914 7.079-15.801 0l-83.645-204.95c-7.763-19.019-25.399-32.191-45.841-34.233l-252.662-25.246c-2.58-0.256-3.982-1.122-4.888-1.95-1.078-0.989-2.056-2.521-2.544-4.474-0.487-1.957-0.343-3.769 0.146-5.148 0.411-1.158 1.242-2.58 3.4-4.017l194.256-129.544c19.196-12.804 28.463-36.151 23.269-58.632l-58.284-252.29c-0.584-2.525-0.213-4.131 0.282-5.254 0.588-1.339 1.727-2.757 3.423-3.848 1.696-1.087 3.46-1.532 4.921-1.508 1.228 0.016 2.842 0.347 4.897 1.93l187.161 144.211c20.137 15.514 48.242 15.356 68.202-0.386l182.406-143.856c2.024-1.595 3.631-1.95 4.86-1.985 1.457-0.039 3.222 0.378 4.927 1.438 1.701 1.056 2.859 2.45 3.47 3.777 0.516 1.119 0.91 2.714 0.378 5.234l-52.681 249.249c-4.643 21.961 4.407 44.556 22.93 57.238l195.785 134.061c2.119 1.449 2.934 2.871 3.336 4.037 0.477 1.378 0.607 3.182 0.11 5.116-0.496 1.938-1.473 3.458-2.552 4.439-0.914 0.827-2.312 1.686-4.868 1.938l-254.913 25.471c-20.437 2.042-38.077 15.214-45.84 34.233l-83.641 204.95z" />
<glyph unicode="&#xe909;" glyph-name="icon-cart" d="M81.193 896c-19.742 7.747-42.027-1.977-49.774-21.719s1.977-42.026 21.719-49.773l19.732-7.743c42.85-16.815 73.876-54.697 81.917-100.020l49.147-277.012c17.71-99.814 104.477-172.544 205.852-172.544h308.573c90.389 0 170.543 58.091 198.677 143.991l64.294 196.286c17.169 52.415-21.884 106.3-77.039 106.3h-670.977l-2.909 16.395c-12.71 71.64-61.752 131.519-129.483 158.097l-19.732 7.743zM279.555 453.15l-32.613 183.815h657.352c2.901 0 4.958-2.836 4.053-5.595l-64.29-196.285c-17.801-54.349-68.51-91.098-125.696-91.098h-308.573c-64.135 0-119.029 46.012-130.233 109.163zM458.078 96.538c0-47.125-38.204-85.333-85.332-85.333s-85.333 38.208-85.333 85.333c0 47.13 38.205 85.333 85.333 85.333s85.332-38.204 85.332-85.333zM778.078 11.204c47.13 0 85.333 38.208 85.333 85.333 0 47.13-38.204 85.333-85.333 85.333-47.125 0-85.333-38.204-85.333-85.333 0-47.125 38.208-85.333 85.333-85.333z" />
<glyph unicode="&#xe90a;" d="M81.195 896c-4.16 1.681-8.985 2.657-14.037 2.657-21.214 0-38.411-17.197-38.411-38.411 0-16.162 9.981-29.992 24.116-35.663l0.259-0.092 19.755-7.723c42.429-16.971 73.555-54.090 81.797-99.201l0.123-0.81 49.152-277.035c17.984-98.69 103.278-172.53 205.822-172.544h308.61c92.19 0.013 170.437 59.693 198.227 142.525l0.429 1.475 64.299 196.267c2.559 7.541 4.035 16.227 4.035 25.259 0 44.772-36.295 81.067-81.067 81.067-0.009 0-0.017 0-0.026 0h-670.975l-2.901 16.384c-13.197 72.619-62.406 131.327-128.086 157.667l-1.408 0.498-19.712 7.68zM458.069 96.555c0-47.128-38.205-85.333-85.333-85.333s-85.333 38.205-85.333 85.333v0c0 47.128 38.205 85.333 85.333 85.333s85.333-38.205 85.333-85.333v0zM778.069 11.221c47.128 0 85.333 38.205 85.333 85.333s-38.205 85.333-85.333 85.333v0c-47.128 0-85.333-38.205-85.333-85.333s38.205-85.333 85.333-85.333v0z" />
<glyph unicode="&#xe90b;" d="M653.867 587.648c5.141 5.587 12.488 9.076 20.651 9.076s15.51-3.488 20.633-9.056l0.018-0.020c4.94-5.343 7.97-12.515 7.97-20.395s-3.030-15.052-7.988-20.415l0.018 0.020-139.307-149.504c-5.141-5.589-12.49-9.079-20.654-9.079-7.77 0-14.801 3.161-19.878 8.267l-0.001 0.001-73.472 63.744c-5.685 5.48-9.216 13.162-9.216 21.668 0 7.862 3.017 15.020 7.955 20.379l-0.019-0.021c5.139 5.563 12.47 9.035 20.613 9.035 7.705 0 14.684-3.109 19.751-8.14l-0.002 0.002 52.864-44.459 120.064 128.896z" />
<glyph unicode="&#xe90c;" glyph-name="icon-chat-appeal" d="M546.133 686.933c0 21.208-17.19 38.4-38.4 38.4s-38.4-17.192-38.4-38.4v-243.2c0-21.21 17.195-38.4 38.4-38.4 21.21 0 38.4 17.19 38.4 38.4v243.2zM507.733 341.333c21.21 0 38.4-17.19 38.4-38.4s-17.19-38.417-38.4-38.417c-21.21 0-38.4 17.195-38.4 38.4 0 21.21 17.19 38.417 38.4 38.417zM452.271 891.75c-209.722 0-379.735-170.013-379.735-379.733v-469.333c0-13.248 6.827-25.557 18.063-32.572s25.295-7.744 37.196-1.929l170.003 83.068c6.416 3.136 13.463 4.766 20.605 4.766h261.868c209.719 0 379.733 170.014 379.733 379.733v36.267c0 209.721-170.014 379.733-379.733 379.733h-128zM149.336 512.017c0 167.305 135.628 302.933 302.935 302.933h128c167.305 0 302.933-135.628 302.933-302.933v-36.267c0-167.305-135.629-302.933-302.933-302.933h-261.868c-18.828 0-37.406-4.297-54.322-12.561l-114.745-56.068v407.829z" />
<glyph unicode="&#xe90d;" glyph-name="icon-chat-dots" d="M359.104 440.866c23.564 0 42.667 19.102 42.667 42.667 0 23.561-19.102 42.667-42.667 42.667s-42.667-19.106-42.667-42.667c0-23.565 19.103-42.667 42.667-42.667zM558.225 483.533c0-23.565-19.102-42.667-42.667-42.667s-42.667 19.102-42.667 42.667c0 23.561 19.102 42.667 42.667 42.667s42.667-19.106 42.667-42.667zM671.996 440.866c23.565 0 42.667 19.102 42.667 42.667 0 23.561-19.102 42.667-42.667 42.667-23.561 0-42.667-19.106-42.667-42.667 0-23.565 19.106-42.667 42.667-42.667zM109.156 506.662c0 192.243 155.845 348.087 348.090 348.087h117.333c192.243 0 348.087-155.845 348.087-348.087v-33.246c0-192.243-155.844-348.087-348.087-348.087h-240.045c-6.546 0-13.007-1.493-18.888-4.369l-155.836-76.147c-10.91-5.329-23.796-4.663-34.096 1.766-10.3 6.434-16.558 17.719-16.558 29.858v430.225zM457.246 784.35c-153.364 0-277.69-124.326-277.69-277.687v-373.845l105.183 51.396c15.506 7.578 32.537 11.516 49.795 11.516h240.045c153.361 0 277.687 124.326 277.687 277.687v33.246c0 153.362-124.326 277.687-277.687 277.687h-117.333z" />
<glyph unicode="&#xe90e;" glyph-name="icon-chat-lines" d="M339.2 630.39c-23.859 0-43.2-19.341-43.2-43.2s19.341-43.2 43.2-43.2h384c23.859 0 43.2 19.341 43.2 43.2s-19.341 43.2-43.2 43.2h-384zM296 395.19c0 23.859 19.341 43.2 43.2 43.2h240c23.859 0 43.2-19.341 43.2-43.2s-19.341-43.2-43.2-43.2h-240c-23.859 0-43.2 19.341-43.2 43.2zM450.401 905.594c-216.275 0-391.6-175.326-391.6-391.6v-483.997c0-13.664 7.041-26.362 18.628-33.594s26.084-7.987 38.358-1.99l175.316 85.664c6.617 3.238 13.884 4.915 21.249 4.915h270.050c216.275 0 391.603 175.328 391.603 391.602v37.4c0 216.275-175.328 391.6-391.603 391.6h-132zM138.001 513.994c0 172.534 139.866 312.4 312.4 312.4h132c172.537 0 312.403-139.866 312.403-312.4v-37.4c0-172.536-139.866-312.402-312.403-312.402h-270.050c-19.416 0-38.575-4.429-56.020-12.954l-118.33-57.818v420.573z" />
<glyph unicode="&#xe90f;" glyph-name="icon-chevron-down" d="M748.203 576c14.997-14.996 14.997-39.31 0-54.306l-211.191-211.187c-14.993-14.997-39.309-14.997-54.306 0l-211.187 211.187c-14.996 14.996-14.996 39.31 0 54.306s39.31 14.996 54.306 0l184.035-184.038 184.038 184.038c14.997 14.996 39.309 14.996 54.306 0z" />
<glyph unicode="&#xe910;" glyph-name="icon-chevron-left" d="M640.004 211.797c-14.997-14.997-39.309-14.997-54.306 0l-211.188 211.191c-14.996 14.993-14.996 39.309 0 54.306l211.188 211.187c14.997 14.996 39.309 14.996 54.306 0s14.997-39.31 0-54.306l-184.034-184.035 184.034-184.038c14.997-14.997 14.997-39.309 0-54.306z" />
<glyph unicode="&#xe911;" glyph-name="icon-chevron-right" d="M383.995 684.202c14.996 14.996 39.31 14.996 54.307 0l211.187-211.191c14.997-14.993 14.997-39.309 0-54.306l-211.187-211.187c-14.997-14.997-39.311-14.997-54.307 0s-14.996 39.309 0 54.306l184.035 184.034-184.035 184.038c-14.996 14.996-14.996 39.31 0 54.306z" />
<glyph unicode="&#xe912;" glyph-name="icon-chevron-up" d="M275.798 320c-14.996 14.997-14.996 39.309 0 54.306l211.191 211.189c14.993 14.996 39.309 14.996 54.306 0l211.187-211.189c14.997-14.997 14.997-39.309 0-54.306s-39.309-14.997-54.306 0l-184.034 184.038-184.038-184.038c-14.996-14.997-39.31-14.997-54.306 0z" />
<glyph unicode="&#xe913;" glyph-name="icon-clock" d="M655.509 250.18c14.997-14.993 39.309-14.993 54.306 0 14.997 14.997 14.997 39.309 0 54.306l-159.42 159.42v197.428c0 21.208-17.195 38.4-38.4 38.4-21.21 0-38.4-17.192-38.4-38.4v-213.334c0-10.185 4.045-19.951 11.247-27.153l170.667-170.667zM938.667 448c0 235.642-191.027 426.667-426.667 426.667-235.642 0-426.667-191.025-426.667-426.667 0-235.639 191.025-426.667 426.667-426.667 235.639 0 426.667 191.027 426.667 426.667zM861.867 448c0-193.225-156.642-349.867-349.867-349.867-193.226 0-349.867 156.642-349.867 349.867 0 193.226 156.64 349.867 349.867 349.867 193.225 0 349.867-156.64 349.867-349.867z" />
<glyph unicode="&#xe914;" glyph-name="icon-close" d="M277.344 736.972c-14.996 14.996-39.31 14.996-54.306 0s-14.996-39.31 0-54.306l228.848-228.846-228.848-228.851c-14.996-14.993-14.996-39.309 0-54.306 14.996-14.993 39.31-14.993 54.306 0l228.849 228.851 228.847-228.847c14.993-14.997 39.309-14.997 54.306 0 14.993 14.997 14.993 39.309 0 54.306l-228.847 228.847 228.847 228.844c14.993 14.996 14.993 39.31 0 54.306-14.997 14.996-39.313 14.996-54.306 0l-228.847-228.848-228.849 228.85z" />
<glyph unicode="&#xe915;" glyph-name="icon-close-small" d="M646.468 654.872c19.996 19.995 52.412 19.995 72.408 0s19.996-52.413 0-72.408l-134.457-134.457 134.468-134.469c19.996-19.996 19.996-52.412 0-72.408-19.996-19.991-52.412-19.991-72.408 0l-134.468 134.468-134.469-134.468c-19.995-19.991-52.413-19.991-72.408 0-19.995 19.996-19.995 52.412 0 72.408l134.468 134.469-134.457 134.457c-19.995 19.995-19.995 52.413 0 72.408s52.413 19.995 72.408 0l134.457-134.457 134.457 134.457z" />
<glyph unicode="&#xe916;" glyph-name="icon-comment" d="M302.938 576.001c0 21.208 17.192 38.4 38.4 38.4h341.333c21.21 0 38.4-17.192 38.4-38.4s-17.19-38.4-38.4-38.4h-341.333c-21.208 0-38.4 17.193-38.4 38.4zM341.338 443.733c-21.208 0-38.4-17.19-38.4-38.4 0-21.205 17.192-38.4 38.4-38.4h213.333c21.21 0 38.4 17.195 38.4 38.4 0 21.21-17.19 38.4-38.4 38.4h-213.333zM89.604 618.668c0 115.465 93.602 209.067 209.067 209.067h426.667c115.465 0 209.067-93.602 209.067-209.067v-479.31c0-63.010-68.74-101.935-122.773-69.513l-128.448 77.069c-7.296 4.373-15.642 6.686-24.149 6.686h-360.363c-115.465 0-209.067 93.602-209.067 209.067v256.001zM298.671 750.934c-73.049 0-132.267-59.217-132.267-132.267v-256.001c0-73.050 59.217-132.267 132.267-132.267h360.363c22.426 0 44.433-6.093 63.663-17.63l128.444-77.069c0.981-0.589 1.651-0.678 2.138-0.674 0.606 0 1.378 0.175 2.163 0.619s1.327 1.015 1.643 1.536c0.252 0.414 0.521 1.037 0.521 2.176v479.31c0 73.049-59.217 132.267-132.267 132.267h-426.667z" />
<glyph unicode="&#xe917;" glyph-name="icon-comment-edit" d="M980.37 923.906c46.596-46.597 46.596-122.145 0-168.743l-92.916-92.917v-384.92c0-113.109-91.691-204.8-204.8-204.8h-392.258c-8.871 0-17.589-2.308-25.301-6.691l-141.823-80.612c-51.198-29.105-114.752 7.873-114.752 66.765v481.335c0 113.11 91.692 204.802 204.8 204.802h412.526l185.781 185.781c46.6 46.597 122.147 46.597 168.743 0zM859.9 875.635l-325.486-325.483c-0.764-0.768-1.378-1.678-1.808-2.674l-53.5-124.837 124.837 53.504c0.996 0.425 1.902 1.040 2.67 1.808l325.486 325.484c19.936 19.937 19.936 52.262 0 72.199-19.94 19.937-52.263 19.937-72.2 0zM819.184 593.98l-164.297-164.302c-6.912-6.908-15.072-12.434-24.052-16.282l-193.469-82.916c-31.862-13.655-64.076 18.562-50.421 50.424l82.914 193.465c3.848 8.98 9.377 17.144 16.286 24.053l71.436 71.436h-344.261c-75.405 0-136.533-61.128-136.533-136.535v-481.335c0-6.542 7.062-10.65 12.75-7.416l141.823 80.612c17.995 10.228 38.338 15.608 59.036 15.608h392.258c75.406 0 136.531 61.129 136.531 136.535v316.653z" />
<glyph unicode="&#xe918;" glyph-name="icon-delivery" d="M166.4 810.667c-68.336 0-123.733-55.397-123.733-123.733v-430.933c0-44.77 36.295-81.067 81.067-81.067h5.859c16.31-51.93 64.826-89.6 122.14-89.6s105.83 37.67 122.141 89.6h202.127c15.654 0 30.272 4.437 42.667 12.126 12.39-7.689 27.012-12.126 42.667-12.126h5.858c16.311-51.93 64.828-89.6 122.142-89.6s105.83 37.67 122.138 89.6h5.862c44.77 0 81.067 36.297 81.067 81.067v177.988c0 32.815-13.035 64.29-36.241 87.492l-133.175 94.775c-15.202 15.203-35.823 23.744-57.323 23.744h-67.661c-16.614 0-32.461-3.274-46.933-9.211v56.145c0 68.336-55.398 123.733-123.733 123.733h-366.933zM911.471 251.733c-16.311 51.93-64.823 89.6-122.138 89.6s-105.83-37.67-122.142-89.6h-5.858c-2.355 0-4.267 1.911-4.267 4.267v260.267c0 25.92 21.013 46.933 46.933 46.933h67.661c1.131 0 2.214-0.45 3.017-1.25l133.175-94.776c8.802-8.802 13.747-20.74 13.747-33.186v-177.988c0-2.355-1.911-4.267-4.267-4.267h-5.862zM251.733 341.333c-57.313 0-105.829-37.67-122.14-89.6h-5.86c-2.356 0-4.267 1.911-4.267 4.267v430.933c0 25.92 21.013 46.933 46.933 46.933h366.933c25.92 0 46.933-21.013 46.933-46.933v-430.933c0-2.355-1.911-4.267-4.267-4.267h-202.127c-16.311 51.93-64.826 89.6-122.14 89.6zM251.733 162.133c-28.277 0-51.2 22.925-51.2 51.2s22.923 51.2 51.2 51.2c28.277 0 51.2-22.925 51.2-51.2s-22.923-51.2-51.2-51.2zM840.533 213.333c0-28.275-22.925-51.2-51.2-51.2-28.279 0-51.2 22.925-51.2 51.2s22.921 51.2 51.2 51.2c28.275 0 51.2-22.925 51.2-51.2z" />
<glyph unicode="&#xe919;" glyph-name="icon-dislike" d="M208.844 723.228c21.396 40.653 63.554 66.105 109.494 66.105h503.149c68.335 0 123.733-55.397 123.733-123.733v-234.667c0-68.335-55.398-123.733-123.733-123.733h-131.349l-207.753-249.306c-52.932-63.518-155.835-16.333-142.242 65.225l30.68 184.081h-175.994c-93.111 0-152.86 98.965-109.494 181.363l123.509 234.665zM710.554 384h110.933c25.92 0 46.933 21.013 46.933 46.933v234.667c0 25.92-21.013 46.933-46.933 46.933h-110.933v-328.533zM633.754 712.533h-315.416c-17.425 0-33.417-9.654-41.532-25.074l-123.509-234.668c-16.449-31.253 6.214-68.791 41.532-68.791h221.324c11.286 0 22.004-4.966 29.3-13.581 7.296-8.61 10.432-19.998 8.576-31.134l-38.131-228.791c-0.191-1.143-0.113-1.788-0.066-2.048 0.049-0.277 0.129-0.482 0.244-0.683 0.264-0.457 0.959-1.254 2.252-1.847s2.353-0.602 2.873-0.499c0.225 0.043 0.431 0.115 0.674 0.256 0.23 0.137 0.768 0.499 1.51 1.387l210.369 252.442v353.033z" />
<glyph unicode="&#xe91a;" glyph-name="icon-done" d="M801.075 657.752c21.589-18.265 24.28-50.571 6.013-72.157l-272.95-322.58c-40.847-48.276-114.229-51.325-158.944-6.61l-155.393 155.393c-19.995 19.995-19.995 52.413 0 72.408s52.413 19.995 72.408 0l155.393-155.392c2.353-2.355 6.216-2.196 8.366 0.347l272.949 322.58c18.267 21.586 50.574 24.278 72.158 6.013z" />
<glyph unicode="&#xe91b;" glyph-name="icon-download" d="M511.996 874.667c21.205 0 38.4-17.192 38.4-38.4v-504.627l147.78 147.78c14.993 14.997 39.309 14.997 54.302 0 14.997-14.997 14.997-39.309 0-54.306l-213.333-213.333c-14.993-14.997-39.309-14.997-54.302 0l-213.335 213.333c-14.996 14.997-14.996 39.309 0 54.306s39.31 14.997 54.306 0l147.782-147.78v504.627c0 21.208 17.19 38.4 38.4 38.4zM85.332 273.084c21.207 0 38.4-17.195 38.4-38.4v-85.333c0-25.92 21.012-46.933 46.933-46.933h682.668c25.92 0 46.933 21.013 46.933 46.933v68.267c0 21.205 17.19 38.4 38.4 38.4 21.205 0 38.4-17.195 38.4-38.4v-68.267c0-68.335-55.398-123.733-123.733-123.733h-682.668c-68.336 0-123.733 55.398-123.733 123.733v85.333c0 21.205 17.192 38.4 38.4 38.4z" />
<glyph unicode="&#xe91c;" glyph-name="icon-earphone" d="M363.244 599.305l-78.188-100.788c28.612-59.605 67.633-115.503 117.116-164.983l-54.306-54.306c-62.041 62.042-109.601 133.184-142.611 209.169-39.489 90.905-58.114 188.643-55.914 285.958 0.769 34.012 29.589 59.043 61.925 57.645l88.358-3.818c27.482-1.188 50.6-20.989 55.994-47.963l23.065-115.326c4.614-23.067-1.021-47.001-15.44-65.588zM225.983 754.492l56.952-2.461 20.44-102.2c0.243-1.214-0.054-2.473-0.813-3.452l-50.072-64.546c-17.24 56.166-26.080 114.378-26.507 172.658zM667.955 294.605c18.586 14.421 42.517 20.053 65.587 15.441l115.324-23.066c26.974-5.393 46.775-28.514 47.966-55.996l3.814-88.354c1.399-32.337-23.633-61.158-57.643-61.926-97.314-2.202-195.055 16.422-285.956 55.915-75.989 33.007-147.142 80.567-209.182 142.609l54.306 54.306c49.481-49.481 105.387-88.503 164.992-117.116l100.791 78.187zM823.142 157.346l-2.462 56.951-102.199 20.437c-1.216 0.243-2.475-0.051-3.452-0.811l-64.546-50.074c56.166-17.237 114.377-26.078 172.659-26.505z" />
<glyph unicode="&#xe91d;" glyph-name="icon-edit" d="M352.204 451.917l-37.36-149.44c-7.812-31.249 20.493-59.554 51.741-51.742l149.443 37.359c15.002 3.75 28.706 11.511 39.642 22.447l345.327 345.324c49.984 49.987 49.984 131.032 0 181.019-49.988 49.987-131.034 49.987-181.022 0l-345.324-345.326c-10.936-10.935-18.695-24.64-22.446-39.642zM428.958 437.252l345.323 345.327c19.994 19.995 52.412 19.995 72.41 0 19.994-19.995 19.994-52.413 0-72.407l-345.327-345.324c-1.092-1.097-2.462-1.869-3.964-2.244l-94.251-23.565 23.561 94.251c0.375 1.502 1.152 2.871 2.249 3.964zM166.399 661.35c0 49.485 40.115 89.6 89.6 89.6h270.917c21.21 0 38.4 17.192 38.4 38.4s-17.19 38.4-38.4 38.4h-270.917c-91.9 0-166.4-74.5-166.4-166.4v-469.333c0-91.9 74.499-166.4 166.4-166.4h469.334c91.9 0 166.4 74.5 166.4 166.4v256c0 21.205-17.195 38.4-38.4 38.4-21.21 0-38.4-17.195-38.4-38.4v-256c0-49.485-40.115-89.6-89.6-89.6h-469.334c-49.485 0-89.6 40.115-89.6 89.6v469.333z" />
<glyph unicode="&#xe91e;" glyph-name="icon-envelope" d="M224.2 712.533h575.6l-256.619-228.105c-17.783-15.808-44.578-15.808-62.362 0l-256.62 228.105zM162.133 664.948l267.661-237.923c46.882-41.673 117.53-41.673 164.412 0l267.661 237.923v-472.948c0-4.715-3.819-8.533-8.533-8.533h-682.667c-4.713 0-8.533 3.819-8.533 8.533v472.948zM170.667 789.333c-47.128 0-85.333-38.205-85.333-85.333v-512c0-47.13 38.205-85.333 85.333-85.333h682.667c47.13 0 85.333 38.204 85.333 85.333v512c0 47.128-38.204 85.333-85.333 85.333h-682.667z" />
<glyph unicode="&#xe91f;" glyph-name="icon-eye-close" d="M197.82 816.487l682.667-682.668c14.997-14.997 14.997-39.309 0-54.306-14.997-14.993-39.309-14.993-54.306 0l-117.555 117.555c-57.779-26.15-123.849-43.469-196.621-43.469-140.026 0-255.229 64.115-334.324 131.913-39.677 34.010-71.114 69.636-92.924 100.169-10.881 15.232-19.73 29.709-26.041 42.534-5.468 11.11-11.779 26.295-11.779 41.118s6.311 30.007 11.779 41.122c6.31 12.821 15.16 27.298 26.041 42.531 21.81 30.534 53.246 66.16 92.924 100.169 13.020 11.161 27.019 22.221 41.946 32.913l-76.113 76.113c-14.996 14.996-14.996 39.31 0 54.306s39.31 14.996 54.306 0zM649.852 255.846l-61.043 61.039c-23.087-11.652-49.182-18.219-76.809-18.219-94.257 0-170.667 76.412-170.667 170.667 0 27.627 6.565 53.722 18.22 76.809l-84.78 84.78c-16.839-11.453-32.573-23.616-47.112-36.077-34.99-29.991-62.22-61.031-80.41-86.497-9.119-12.766-15.603-23.625-19.626-31.799-1.631-3.315-2.605-5.683-3.18-7.215 0.575-1.527 1.549-3.9 3.18-7.211 4.023-8.179 10.507-19.034 19.626-31.804 18.19-25.463 45.42-56.503 80.41-86.498 70.238-60.203 168.368-113.421 284.343-113.421 49.451 0 95.663 9.677 137.847 25.446zM419.622 486.071c-0.978-5.431-1.489-11.025-1.489-16.738 0-51.84 42.027-93.867 93.867-93.867 5.713 0 11.307 0.512 16.742 1.489l-109.12 109.116zM482.923 637.532l197.278-197.28c1.621 9.451 2.466 19.166 2.466 29.082 0 94.256-76.412 170.666-170.667 170.666-9.911 0-19.631-0.845-29.077-2.467zM796.348 343.821c-3.511-3.008-7.095-6.003-10.743-8.973l54.554-54.554c2.082 1.737 4.139 3.477 6.17 5.218 39.676 34.010 71.113 69.636 92.924 100.169 10.88 15.232 19.729 29.709 26.039 42.534 5.47 11.11 11.78 26.295 11.78 41.118 0 15.057-6.571 30.391-12.13 41.434-6.451 12.821-15.484 27.284-26.547 42.49-22.174 30.482-54.029 66.047-93.948 99.996-79.492 67.603-194.667 131.814-332.442 131.814-54.353 0-104.962-9.66-151.174-25.445l61.939-61.939c28.332 6.759 58.144 10.584 89.235 10.584 113.515 0 211.669-53.121 282.688-113.519 35.337-30.051 63.036-61.152 81.596-86.669 9.31-12.796 15.94-23.667 20.058-31.846 1.604-3.187 2.586-5.491 3.174-7.006-0.58-1.536-1.545-3.87-3.136-7.104-4.023-8.179-10.509-19.034-19.627-31.804-18.189-25.463-45.419-56.503-80.41-86.498z" />
<glyph unicode="&#xe920;" glyph-name="icon-eye-open" d="M682.667 469.333c0 94.257-76.412 170.667-170.667 170.667-94.257 0-170.667-76.41-170.667-170.667 0-94.255 76.41-170.667 170.667-170.667 94.255 0 170.667 76.412 170.667 170.667zM605.867 469.333c0-51.84-42.027-93.867-93.867-93.867s-93.867 42.027-93.867 93.867c0 51.84 42.027 93.867 93.867 93.867s93.867-42.027 93.867-93.867zM512.004 785.068c-140.026 0-255.229-64.115-334.324-131.911-39.677-34.009-71.114-69.636-92.924-100.169-10.881-15.233-19.73-29.706-26.041-42.532-5.468-11.115-11.779-26.3-11.779-41.122 0-14.818 6.311-30.007 11.779-41.118 6.31-12.826 15.16-27.302 26.041-42.534 21.81-30.532 53.246-66.159 92.924-100.169 79.095-67.797 194.298-131.913 334.324-131.913 140.023 0 255.228 64.115 334.323 131.913 39.676 34.010 71.113 69.636 92.924 100.169 10.88 15.232 19.729 29.709 26.039 42.534 5.47 11.11 11.78 26.3 11.78 41.118 0 15.057-6.571 30.391-12.13 41.434-6.451 12.821-15.484 27.285-26.547 42.49-22.174 30.482-54.029 66.047-93.948 99.996-79.492 67.603-194.667 131.814-332.442 131.814zM127.625 462.123c-1.631 3.311-2.605 5.683-3.18 7.211 0.575 1.532 1.549 3.9 3.18 7.215 4.023 8.175 10.507 19.034 19.626 31.799 18.19 25.466 45.42 56.507 80.41 86.498 70.238 60.204 168.368 113.422 284.343 113.422 113.515 0 211.669-53.121 282.688-113.519 35.337-30.051 63.036-61.153 81.596-86.67 9.31-12.796 15.94-23.667 20.058-31.846 1.604-3.187 2.586-5.491 3.174-7.006-0.58-1.532-1.545-3.87-3.136-7.104-4.023-8.175-10.509-19.034-19.627-31.804-18.189-25.463-45.419-56.503-80.41-86.494-70.238-60.207-168.367-113.425-284.343-113.425s-214.105 53.218-284.343 113.425c-34.99 29.99-62.22 61.030-80.41 86.494-9.119 12.77-15.603 23.629-19.626 31.804z" />
<glyph unicode="&#xe921;" glyph-name="icon-filter" d="M213.333 618.667c-70.692 0-128 57.308-128 128s57.308 128 128 128c57.308 0 105.819-37.661 122.135-89.583h560.532c21.205 0 38.4-17.192 38.4-38.4s-17.195-38.4-38.4-38.4h-560.521c-16.305-51.939-64.825-89.617-122.145-89.617zM213.333 695.467c28.277 0 51.2 22.923 51.2 51.2s-22.923 51.2-51.2 51.2c-28.277 0-51.2-22.923-51.2-51.2s22.923-51.2 51.2-51.2zM127.999 486.417c-21.208 0-38.4-17.195-38.4-38.4 0-21.21 17.192-38.4 38.4-38.4h261.856c16.305-51.938 64.827-89.617 122.145-89.617s105.839 37.679 122.146 89.617h261.854c21.205 0 38.4 17.19 38.4 38.4 0 21.205-17.195 38.4-38.4 38.4h-261.867c-16.316 51.922-64.828 89.583-122.133 89.583s-105.819-37.661-122.135-89.583h-261.866zM563.2 448c0-28.275-22.925-51.2-51.2-51.2s-51.2 22.925-51.2 51.2c0 28.275 22.925 51.2 51.2 51.2s51.2-22.925 51.2-51.2zM89.599 149.35c0-21.21 17.192-38.4 38.4-38.4h560.521c16.307-51.938 64.828-89.617 122.146-89.617 70.694 0 128 57.306 128 128s-57.306 128-128 128c-57.306 0-105.818-37.662-122.133-89.583h-560.534c-21.208 0-38.4-17.195-38.4-38.4zM861.867 149.333c0-28.275-22.925-51.2-51.2-51.2s-51.2 22.925-51.2 51.2c0 28.275 22.925 51.2 51.2 51.2s51.2-22.925 51.2-51.2z" />
<glyph unicode="&#xe922;" glyph-name="icon-gear" d="M949.67 578.773l-49.937 8.469c-4.446 12.375-9.468 24.515-15.023 36.32l29.406 41.14c25.587 35.945 21.478 84.492-9.673 115.336l-60.006 60.015c-16.96 16.961-39.445 26.305-63.305 26.305-18.79 0-36.757-5.789-51.836-16.641l-41.297-29.414c-12.774 6.039-25.737 11.375-38.78 15.984l-8.26 48.93c-7.266 43.336-44.437 74.781-88.388 74.781h-84.783c-43.945 0-81.117-31.445-88.367-74.695l-8.68-50.844c-12.258-4.477-24.344-9.562-36.18-15.242l-40.547 29.203c-15.203 10.945-33.242 16.727-52.172 16.727-24.093 0-46.586-9.359-63.359-26.359l-60.148-59.953c-31.063-31.063-35.133-79.57-9.672-115.336l29.883-41.984c-5.508-11.852-10.461-24.047-14.836-36.492l-48.937-8.258c-43.328-7.273-74.773-44.443-74.773-88.39v-84.783c0-43.942 31.445-81.118 74.695-88.375l50.844-8.67c4.477-12.267 9.571-24.358 15.242-36.19l-29.094-40.465c-25.586-35.947-21.477-84.501 9.672-115.337l60.008-60.015c16.961-16.964 39.445-26.308 63.305-26.308 18.789 0 36.758 5.79 51.828 16.636l41.984 29.884c11.031-5.129 22.469-9.822 34.211-14.050l8.32-49.929c7.273-43.328 44.445-74.773 88.39-74.773h84.975c43.947 0 81.126 31.445 88.384 74.718l8.469 49.946c12.373 4.446 24.516 9.468 36.322 15.023l41.007-29.312c15.202-10.944 33.242-16.734 52.173-16.734 23.851 0 46.336 9.344 63.296 26.304l60.006 60.015c31.070 31.066 35.132 79.573 9.673 115.337l-29.436 41.335c5.7 12.079 10.739 24.213 15.078 36.275l49.865 8.311c43.328 7.275 74.773 44.446 74.773 88.393v84.608c0.495 43.992-30.724 81.211-74.321 88.555zM963.994 405.611c0-14.524-10.394-26.812-24.674-29.214l-66.142-11.021c-12.203-2.031-22.046-10.641-25.711-22.477-5.871-19.038-13.943-38.502-23.966-57.813-5.675-10.889-4.766-23.868 2.359-33.852l38.976-54.733c8.405-11.814 7.053-27.844-3.217-38.118l-60.011-60.006c-5.709-5.713-12.928-8.734-20.873-8.734-6.268 0-12.181 1.873-17.199 5.483l-54.498 38.955c-10.022 7.194-23.053 8.098-34.001 2.372-18.325-9.591-37.803-17.664-57.89-23.966-11.716-3.674-20.271-13.487-22.31-25.566l-11.234-66.21c-2.402-14.319-14.69-24.713-29.222-24.713h-84.975c-14.532 0-26.812 10.394-29.21 24.674l-11.025 66.142c-2.014 12.122-10.546 21.952-22.265 25.655-19.796 6.251-38.648 13.999-56.047 23.040-4.742 2.458-9.875 3.669-14.985 3.669-6.609 0-13.187-2.031-18.82-6.037l-55.476-39.484c-5-3.601-10.688-5.423-16.906-5.423-7.945 0-15.164 3.017-20.875 8.734l-60.117 60.109c-10.258 10.159-11.562 26.142-3.195 37.901l38.742 53.888c7.289 10.116 8.18 23.245 2.305 34.283-9.852 18.475-18.016 37.85-24.273 57.591-3.703 11.644-13.477 20.151-25.508 22.204l-67.047 11.43c-14.313 2.406-24.703 14.694-24.703 29.218v84.783c0 14.524 10.391 26.812 24.727 29.218l65.328 11.025c12.211 2.052 22.047 10.686 25.679 22.561 6.164 20.172 14.094 39.68 23.57 57.961 5.641 10.867 4.735 23.813-2.367 33.805l-39.391 55.344c-8.414 11.813-7.062 27.844 3.18 38.086l60.43 60.234c5.414 5.508 12.758 8.539 20.687 8.539 6.266 0 12.188-1.875 17.109-5.422l54.125-38.961c10.133-7.297 23.273-8.172 34.273-2.297 18.477 9.852 37.852 18.016 57.571 24.266 11.64 3.695 20.148 13.453 22.218 25.516l11.439 67.047c2.398 14.313 14.686 24.703 29.218 24.703h84.779c14.524 0 26.816-10.391 29.222-24.727l11.021-65.352c2.065-12.218 10.714-22.047 22.596-25.672 20.258-6.156 40.461-14.469 60.062-24.719 10.889-5.687 23.868-4.797 33.899 2.336l54.857 39.070c4.992 3.601 10.679 5.422 16.909 5.422 7.936 0 15.155-3.016 20.873-8.734l60.113-60.11c10.257-10.156 11.567-26.141 3.145-37.961l-38.989-54.554c-7.159-10.031-8.047-23.047-2.338-33.953 9.604-18.328 17.664-37.805 23.979-57.898 3.678-11.719 13.483-20.268 25.562-22.303l66.21-11.238c14.272-2.398 24.499-14.507 24.299-28.796v-85.201zM512.009 647.094c-109.779 0-199.092-89.312-199.092-199.094s89.313-199.095 199.092-199.095c109.781 0 199.095 89.314 199.095 199.095s-89.314 199.094-199.095 199.094zM512.009 308.907c-76.693 0-139.092 62.4-139.092 139.093s62.399 139.094 139.092 139.094c76.698 0 139.098-62.4 139.098-139.094s-62.4-139.093-139.098-139.093z" />
<glyph unicode="&#xe923;" glyph-name="icon-heart" d="M132.855 767.979c103.361 103.362 270.944 103.362 374.307 0 2.671-2.674 7.023-2.688 9.694-0.014 103.364 103.362 270.946 103.362 374.306 0s103.36-270.941 0-374.306l-324.847-324.834c-29.995-29.99-78.622-29.99-108.612 0l-324.848 324.847c-103.362 103.364-103.362 270.945 0 374.307zM539.546 686.958c-15.898-13.426-39.164-13.426-55.061 0l-31.629 26.715c-73.371 73.369-192.326 73.369-265.695 0s-73.369-192.325 0-265.695l318.811-318.81c3.332-3.337 8.738-3.337 12.070-0.004l318.814 318.801c73.37 73.37 73.37 192.325 0 265.694s-192.324 73.369-265.694 0l-31.616-26.702z" />
<glyph unicode="&#xe924;" glyph-name="icon-heart-check" d="M132.855 767.979c-103.362-103.361-103.362-270.942 0-374.307l324.848-324.847c29.99-29.99 78.618-29.99 108.612 0l324.847 324.834c103.36 103.364 103.36 270.944 0 374.306s-270.942 103.362-374.306 0c-2.671-2.674-7.023-2.66-9.694 0.014-103.363 103.362-270.946 103.362-374.307 0z" />
<glyph unicode="&#xe925;" glyph-name="icon-home" d="M464.388 811.709c30.899 28.013 78.007 28.013 108.902 0l398.012-360.863c11.759-10.658 15.744-27.46 10.031-42.27s-19.951-24.576-35.827-24.576h-92.442v-260.267c0-44.77-36.297-81.067-81.067-81.067h-136.943c-41.404 0-74.97 33.566-74.97 74.97v134.097c0 25.92-21.013 46.933-46.933 46.933s-46.933-21.013-46.933-46.933v-134.097c0-41.404-33.566-74.97-74.971-74.97h-125.562c-44.772 0-81.067 36.297-81.067 81.067v260.267h-92.445c-15.874 0-30.112 9.766-35.826 24.576s-1.727 31.612 10.033 42.27l398.007 360.863zM521.707 754.813c-1.626 1.475-4.105 1.475-5.73 0l-324.28-294.013h31.322c21.207 0 38.4-17.19 38.4-38.4v-298.667c0-2.355 1.91-4.267 4.267-4.267h123.733v132.267c0 68.335 55.398 123.733 123.733 123.733s123.733-55.398 123.733-123.733v-132.267h135.113c2.355 0 4.267 1.911 4.267 4.267v298.667c0 21.21 17.19 38.4 38.4 38.4h31.322l-324.279 294.013z" />
<glyph unicode="&#xe926;" glyph-name="icon-info" d="M550.404 622.933c0-21.208-17.19-38.4-38.4-38.4s-38.4 17.192-38.4 38.4c0 21.208 17.19 38.4 38.4 38.4s38.4-17.192 38.4-38.4zM512.004 546.133c21.21 0 38.4-17.19 38.4-38.4v-256c0-21.21-17.19-38.4-38.4-38.4s-38.4 17.19-38.4 38.4v256c0 21.21 17.19 38.4 38.4 38.4zM938.667 448c0 235.642-191.027 426.667-426.667 426.667-235.642 0-426.667-191.025-426.667-426.667 0-235.639 191.025-426.667 426.667-426.667 235.639 0 426.667 191.027 426.667 426.667zM861.867 448c0-193.225-156.642-349.867-349.867-349.867-193.226 0-349.867 156.642-349.867 349.867 0 193.226 156.64 349.867 349.867 349.867 193.225 0 349.867-156.64 349.867-349.867z" />
<glyph unicode="&#xe927;" glyph-name="icon-like" d="M807.3 179.857c-21.393-40.653-63.552-66.108-109.491-66.108h-503.149c-68.336 0-123.733 55.398-123.733 123.733v234.667c0 68.337 55.398 123.734 123.733 123.734h131.348l207.757 249.306c52.928 63.519 155.831 16.333 142.238-65.225l-30.677-184.081h175.991c93.111 0 152.862-98.966 109.495-181.364l-123.511-234.662zM305.593 519.083h-110.933c-25.92 0-46.933-21.013-46.933-46.933v-234.667c0-25.92 21.013-46.933 46.933-46.933h110.933v328.533zM382.393 190.549h315.416c17.425 0 33.417 9.655 41.532 25.075l123.507 234.667c16.452 31.253-6.212 68.791-41.532 68.791h-221.325c-11.285 0-22.003 4.966-29.299 13.581-7.296 8.612-10.432 19.999-8.576 31.133l38.131 228.794c0.192 1.143 0.115 1.786 0.068 2.049-0.051 0.277-0.132 0.48-0.247 0.679-0.26 0.459-0.956 1.259-2.249 1.851-1.297 0.593-2.355 0.598-2.876 0.498-0.222-0.043-0.431-0.115-0.674-0.258-0.23-0.136-0.768-0.497-1.506-1.387l-210.371-252.442v-353.031z" />
<glyph unicode="&#xe928;" glyph-name="icon-map-marker" d="M512.004 725.333c-115.465 0-209.067-93.602-209.067-209.067s93.602-209.067 209.067-209.067c115.465 0 209.067 93.602 209.067 209.067s-93.602 209.067-209.067 209.067zM379.738 516.267c0 73.049 59.217 132.267 132.267 132.267s132.267-59.218 132.267-132.267c0-73.050-59.217-132.267-132.267-132.267s-132.267 59.217-132.267 132.267zM512.004 896c-209.051 0-379.733-166.557-379.733-373.5 0-54.686 19.529-113.694 47.013-169.378 27.771-56.269 65.211-112.239 104.576-161.715 39.352-49.459 81.431-93.431 119.078-125.444 18.772-15.966 37.168-29.572 54.15-39.411 15.62-9.050 35.196-18.018 54.916-18.018s39.296 8.969 54.916 18.018c16.981 9.839 35.379 23.445 54.148 39.411 37.649 32.013 79.727 75.985 119.078 125.444 39.364 49.476 76.804 105.446 104.576 161.715 27.486 55.684 47.014 114.692 47.014 169.378 0 206.942-170.684 373.5-379.733 373.5zM209.071 522.5c0 163.198 134.958 296.7 302.933 296.7s302.933-133.501 302.933-296.7c0-37.85-13.995-84.557-39.083-135.39-24.802-50.249-58.978-101.602-95.804-147.887-36.838-46.298-75.52-86.515-108.732-114.756-16.657-14.161-31.215-24.695-42.901-31.462-9.839-5.705-14.993-7.168-16.311-7.543l-0.102-0.030-0.102 0.030c-1.318 0.375-6.473 1.839-16.311 7.543-11.686 6.767-26.244 17.301-42.901 31.462-33.21 28.241-71.893 68.459-108.731 114.756-36.825 46.285-71.004 97.638-95.805 147.887-25.088 50.833-39.082 97.54-39.082 135.39z" />
<glyph unicode="&#xe929;" glyph-name="icon-menu-hamburger" d="M42.667 742.391c0 21.208 14.15 38.4 31.605 38.4h875.459c17.455 0 31.603-17.192 31.603-38.4s-14.148-38.4-31.603-38.4h-875.459c-17.455 0-31.605 17.193-31.605 38.4zM42.667 443.725c0 21.21 14.15 38.4 31.605 38.4h875.459c17.455 0 31.603-17.19 31.603-38.4s-14.148-38.4-31.603-38.4h-875.459c-17.455 0-31.605 17.19-31.605 38.4zM75.148 183.458c-17.939 0-32.481-17.19-32.481-38.4s14.543-38.4 32.481-38.4h873.703c17.941 0 32.482 17.19 32.482 38.4s-14.541 38.4-32.482 38.4h-873.703z" />
<glyph unicode="&#xe92a;" glyph-name="icon-microbe" d="M552.482 172.629c50.227 5.986 96.333 25.395 134.626 54.541 5.73-1.101 11.174-3.878 15.543-8.247l53.833-53.833c7.241-7.236 10.266-17.643 8.102-27.588-0.094-0.431-0.201-0.862-0.311-1.293-2.752-10.411 0.201-21.534 7.697-29.035 11.699-11.699 30.729-11.695 42.428 0l42.428 42.423c5.619 5.619 8.713 13.154 8.713 21.214s-3.093 15.59-8.713 21.214c-7.505 7.497-18.628 10.453-29.039 7.697l-0.73-0.183-0.559-0.128c-9.946-2.163-20.352 0.866-27.588 8.107l-53.837 53.828c-4.177 4.177-6.895 9.335-8.090 14.784 30.682 38.801 51.204 86.003 57.566 137.587 4.54 2.731 9.839 4.284 15.445 4.284h76.096c10.236-0.004 19.738-5.222 25.237-13.781 0.239-0.371 0.474-0.751 0.695-1.135 5.414-9.301 15.369-15.083 25.975-15.083 16.542 0 29.999 13.457 29.999 29.999v59.998c0 16.542-13.457 29.999-29.999 29.999-10.607 0-20.561-5.781-25.971-15.083-0.222-0.388-0.457-0.764-0.695-1.139-5.504-8.559-15.002-13.777-25.237-13.777h-76.096c-5.606 0-10.91 1.553-15.45 4.284-6.362 51.581-26.884 98.777-57.557 137.577 1.19 5.452 3.908 10.607 8.081 14.785l53.833 53.832c7.236 7.241 17.647 10.272 27.593 8.109 0.431-0.094 0.862-0.198 1.293-0.311 10.411-2.756 21.534 0.2 29.035 7.7 5.619 5.618 8.713 13.152 8.713 21.212 0.004 8.060-3.089 15.592-8.708 21.212l-42.432 42.428c-11.695 11.698-30.729 11.698-42.423 0-7.501-7.502-10.453-18.628-7.701-29.034 0.115-0.431 0.218-0.863 0.311-1.296 2.167-9.944-0.862-20.349-8.102-27.587l-53.828-53.827c-4.369-4.37-9.813-7.147-15.548-8.249-38.298 29.143-84.403 48.551-134.626 54.537-4.083 5.155-6.481 11.655-6.481 18.625v76.098c0 10.237 5.214 19.733 13.777 25.235 0.371 0.239 0.751 0.471 1.135 0.695 9.306 5.414 15.087 15.368 15.087 25.976 0 16.542-13.457 30-29.999 30h-60.002c-16.542 0-29.999-13.458-29.999-30 0-10.608 5.781-20.562 15.087-25.976 0.384-0.224 0.764-0.456 1.135-0.695 8.563-5.501 13.777-14.998 13.777-25.235v-76.098c0-7.424-2.722-14.315-7.3-19.616-47.646-6.992-91.35-26.098-127.889-54.090-7.823-0.061-15.604 2.929-21.46 8.785l-53.834 53.834c-7.238 7.237-10.266 17.643-8.102 27.587 0.094 0.433 0.198 0.865 0.312 1.296 2.752 10.408-0.2 21.532-7.7 29.034-11.698 11.698-30.73 11.694-42.426 0l-42.428-42.426c-5.62-5.618-8.714-13.152-8.714-21.212s3.094-15.592 8.714-21.212c7.502-7.5 18.624-10.456 29.036-7.7 0.43 0.113 0.861 0.217 1.293 0.311 9.943 2.16 20.35-0.865 27.587-8.103l53.834-53.832c6.141-6.142 9.133-14.402 8.755-22.608-26.159-35.602-44.021-77.679-50.736-123.379-5.553-6.583-13.845-10.667-22.939-10.667h-76.096c-10.236 0-19.735 5.218-25.237 13.777-0.24 0.375-0.472 0.755-0.697 1.139-5.412 9.301-15.364 15.083-25.972 15.083-16.542 0-30-13.457-30-29.999v-59.998c0-16.542 13.458-29.999 30-29.999 10.608 0 20.562 5.781 25.974 15.083 0.224 0.384 0.457 0.764 0.696 1.135 5.501 8.563 14.998 13.781 25.234 13.781h76.098c9.094 0 17.386-4.083 22.939-10.667 6.714-45.696 24.574-87.77 50.729-123.371 0.382-8.205-2.607-16.469-8.749-22.613l-53.828-53.828c-7.239-7.241-17.649-10.266-27.592-8.111-0.432 0.094-0.864 0.201-1.294 0.311-10.412 2.761-21.534-0.201-29.034-7.697-5.62-5.619-8.714-13.154-8.714-21.214-0.002-8.060 3.092-15.59 8.712-21.214l42.428-42.428c11.694-11.695 30.728-11.695 42.426 0 7.502 7.505 10.452 18.628 7.7 29.035-0.114 0.431-0.218 0.866-0.312 1.297-2.164 9.946 0.864 20.348 8.102 27.588l53.829 53.824c5.796 5.798 13.483 8.794 21.227 8.794h0.241c36.539-27.989 80.244-47.095 127.886-54.089 4.582-5.299 7.3-12.19 7.3-19.614v-76.1c0-10.236-5.218-19.733-13.777-25.233-0.371-0.239-0.751-0.474-1.135-0.695-9.306-5.414-15.087-15.369-15.087-25.975 0-16.542 13.457-30.003 29.999-30.003h60.002c16.542 0 29.999 13.461 29.999 30.003 0 10.607-5.781 20.561-15.087 25.975-0.384 0.222-0.764 0.457-1.135 0.695-8.563 5.5-13.777 14.997-13.777 25.233v76.1c0 6.967 2.398 13.47 6.481 18.624zM725.333 448c0-113.779-92.237-206.020-206.020-206.020-113.78 0-206.018 92.241-206.018 206.020 0 113.781 92.238 206.019 206.018 206.019 113.783 0 206.020-92.238 206.020-206.019z" />
<glyph unicode="&#xe92b;" glyph-name="icon-microphone" d="M384 725.333v-256c0-70.694 57.306-128 128-128s128 57.306 128 128v256c0 70.692-57.306 128-128 128s-128-57.308-128-128zM563.2 725.333v-256c0-28.275-22.925-51.2-51.2-51.2s-51.2 22.925-51.2 51.2v256c0 28.277 22.925 51.2 51.2 51.2s51.2-22.923 51.2-51.2zM220.074 431.027c17.142-131.925 121.619-236.429 253.53-253.611v-92.083c0-21.21 17.195-38.4 38.4-38.4 21.21 0 38.4 17.19 38.4 38.4v92.083c131.913 17.182 236.39 121.685 253.53 253.611 2.735 21.030-14.72 38.306-35.93 38.306-21.205 0-38.046-17.335-41.745-38.221-18.065-101.952-107.115-179.379-214.255-179.379-107.137 0-196.19 77.427-214.254 179.379-3.7 20.885-20.538 38.221-41.745 38.221s-38.663-17.276-35.93-38.306z" />
<glyph unicode="&#xe92c;" glyph-name="icon-minus" d="M240.186 486.417c-21.208 0-38.4-17.195-38.4-38.4 0-21.21 17.192-38.4 38.4-38.4 509.556 0 1.192 0 553.409 0 21.21 0 38.4 17.19 38.4 38.4 0 21.205-17.19 38.4-38.4 38.4-418.981 0-147.635 0-553.409 0z" />
<glyph unicode="&#xe92d;" glyph-name="icon-minus-circle" d="M512-29.918c255.748 0 467.499 211.75 467.499 467.503 0 255.29-212.207 467.498-467.955 467.498-255.293 0-467.043-212.208-467.043-467.498 0-255.753 212.208-467.503 467.5-467.503zM512 48c-216.333 0-389.125 173.248-389.125 389.585 0 215.873 172.334 389.582 388.669 389.582 216.333 0 389.581-173.708 390.042-389.582 0.457-216.337-173.252-389.585-389.585-389.585zM327.292 398.626h368.96c25.664 0 43.081 13.291 43.081 37.581 0 24.751-16.499 38.959-43.081 38.959h-368.96c-26.583 0-43.542-14.208-43.542-38.959 0-24.29 17.875-37.581 43.542-37.581z" />
<glyph unicode="&#xe92e;" glyph-name="icon-not-allowed" d="M512 21.333c-235.642 0-426.667 191.027-426.667 426.667 0 235.642 191.025 426.667 426.667 426.667 235.639 0 426.667-191.025 426.667-426.667 0-235.639-191.027-426.667-426.667-426.667zM512 98.133c193.225 0 349.867 156.642 349.867 349.867 0 82.778-28.749 158.842-76.804 218.752l-491.815-491.815c59.91-48.055 135.975-76.804 218.752-76.804zM238.941 229.244l491.815 491.815c-59.913 48.059-135.974 76.808-218.756 76.808-193.226 0-349.867-156.64-349.867-349.867 0-82.782 28.749-158.844 76.808-218.756z" />
<glyph unicode="&#xe92f;" glyph-name="icon-option-horizontal" d="M256 533.333c-46.933 0-85.333-38.4-85.333-85.333s38.4-85.333 85.333-85.333c46.933 0 85.333 38.4 85.333 85.333s-38.4 85.333-85.333 85.333zM768 533.333c-46.933 0-85.333-38.4-85.333-85.333s38.4-85.333 85.333-85.333c46.933 0 85.333 38.4 85.333 85.333s-38.4 85.333-85.333 85.333zM512 533.333c-46.933 0-85.333-38.4-85.333-85.333s38.4-85.333 85.333-85.333c46.933 0 85.333 38.4 85.333 85.333s-38.4 85.333-85.333 85.333z" />
<glyph unicode="&#xe930;" glyph-name="icon-option-vertical" d="M512 618.667c46.933 0 85.333 38.4 85.333 85.333s-38.4 85.333-85.333 85.333c-46.933 0-85.333-38.4-85.333-85.333s38.4-85.333 85.333-85.333zM512 533.333c-46.933 0-85.333-38.4-85.333-85.333s38.4-85.333 85.333-85.333c46.933 0 85.333 38.4 85.333 85.333s-38.4 85.333-85.333 85.333zM512 277.333c-46.933 0-85.333-38.4-85.333-85.333s38.4-85.333 85.333-85.333c46.933 0 85.333 38.4 85.333 85.333s-38.4 85.333-85.333 85.333z" />
<glyph unicode="&#xe931;" glyph-name="icon-percent" d="M298.667 499.209c-82.475 0-149.333 66.859-149.333 149.333s66.859 149.333 149.333 149.333c82.475 0 149.333-66.859 149.333-149.333s-66.859-149.333-149.333-149.333zM298.667 576.009c40.059 0 72.533 32.474 72.533 72.533s-32.474 72.533-72.533 72.533c-40.059 0-72.533-32.474-72.533-72.533s32.474-72.533 72.533-72.533zM223.036 224.981c-14.996-14.997-14.996-39.309 0-54.306s39.31-14.997 54.306 0l512 512c14.997 14.996 14.997 39.31 0 54.306s-39.309 14.996-54.306 0l-512-512zM853.333 256.009c0 82.475-66.859 149.333-149.333 149.333s-149.333-66.859-149.333-149.333c0-82.475 66.859-149.333 149.333-149.333s149.333 66.859 149.333 149.333zM776.533 256.009c0-40.060-32.474-72.533-72.533-72.533s-72.533 32.474-72.533 72.533c0 40.060 32.474 72.533 72.533 72.533s72.533-32.474 72.533-72.533z" />
<glyph unicode="&#xe932;" glyph-name="icon-plus" d="M550.404 661.334c0 21.208-17.19 38.4-38.4 38.4s-38.4-17.192-38.4-38.4v-174.934h-174.933c-21.208 0-38.4-17.195-38.4-38.4 0-21.21 17.192-38.4 38.4-38.4h174.933v-174.933c0-21.205 17.19-38.4 38.4-38.4s38.4 17.195 38.4 38.4v174.933h174.933c21.21 0 38.4 17.19 38.4 38.4 0 21.205-17.19 38.4-38.4 38.4h-174.933v174.934z" />
<glyph unicode="&#xe933;" glyph-name="icon-plus-circle" d="M512-29.918c255.748 0 467.499 211.75 467.499 467.503 0 255.29-212.207 467.498-467.955 467.498-255.293 0-467.043-212.208-467.043-467.498 0-255.753 212.208-467.503 467.5-467.503zM512 48c-216.333 0-389.125 173.248-389.125 389.585 0 215.873 172.334 389.582 388.669 389.582 216.333 0 389.581-173.708 390.042-389.582 0.457-216.337-173.252-389.585-389.585-389.585zM511.083 219.874c24.294 0 38.959 16.96 38.959 43.541v135.667h143.458c25.668 0 43.541 13.291 43.541 37.585 0 24.751-16.956 38.959-43.541 38.959h-143.458v143.915c0 27.042-14.665 43.542-38.959 43.542-24.29 0-38.042-17.417-38.042-43.542v-143.915h-142.999c-26.583 0-44-14.208-44-38.959 0-24.294 18.333-37.585 44-37.585h142.999v-135.667c0-25.664 13.751-43.541 38.042-43.541z" />
<glyph unicode="&#xe934;" glyph-name="icon-quality" d="M707.298 512.311c13.965 15.962 12.348 40.221-3.61 54.187-15.962 13.965-40.222 12.348-54.187-3.613l-160.29-183.187-82.996 79.040c-15.357 14.626-39.664 14.033-54.289-1.323-14.626-15.36-14.033-39.663 1.324-54.289l112-106.667c7.578-7.219 17.775-11.029 28.228-10.556 10.453 0.478 20.262 5.197 27.153 13.073l186.667 213.333zM488.196 911.381l-82.688-71.836c-8.73-7.584-20.166-11.3-31.687-10.296l-109.122 9.513c-21.179 1.847-40.486-12.181-45.275-32.894l-24.673-106.72c-2.605-11.268-9.673-20.995-19.584-26.955l-93.873-56.444c-18.22-10.956-25.594-33.652-17.294-53.225l42.767-100.841c4.515-10.645 4.515-22.673 0-33.318l-42.767-100.843c-8.301-19.571-0.926-42.27 17.294-53.222l93.873-56.444c9.911-5.961 16.979-15.689 19.584-26.957l24.673-106.718c4.789-20.715 24.096-34.743 45.275-32.896l109.122 9.51c11.521 1.007 22.957-2.709 31.687-10.295l82.688-71.834c16.051-13.943 39.915-13.943 55.966 0l82.688 71.834c8.734 7.586 20.169 11.302 31.689 10.295l109.12-9.51c21.18-1.847 40.486 12.181 45.278 32.896l24.674 106.718c2.603 11.268 9.673 20.996 19.584 26.957l93.871 56.444c18.219 10.953 25.596 33.651 17.293 53.222l-42.765 100.843c-4.518 10.645-4.518 22.673 0 33.318l42.765 100.841c8.303 19.572 0.926 42.269-17.293 53.225l-93.871 56.444c-9.911 5.959-16.981 15.687-19.584 26.955l-24.674 106.72c-4.791 20.713-24.098 34.741-45.278 32.894l-109.12-9.513c-11.52-1.004-22.955 2.711-31.689 10.296l-82.688 71.836c-16.051 13.943-39.915 13.943-55.966 0zM455.876 781.568l60.305 52.389 60.301-52.389c24.448-21.236 56.465-31.64 88.725-28.828l79.582 6.938 17.993-77.83c7.296-31.549 27.085-58.787 54.835-75.473l68.459-41.164-31.189-73.542c-12.642-29.811-12.642-63.479 0-93.291l31.189-73.54-68.459-41.165c-27.75-16.687-47.539-43.925-54.835-75.473l-17.993-77.828-79.582 6.933c-32.26 2.816-64.277-7.59-88.725-28.826l-60.301-52.39-60.305 52.39c-24.448 21.235-56.465 31.642-88.725 28.826l-79.581-6.933-17.994 77.828c-7.294 31.548-27.084 58.786-54.835 75.473l-68.46 41.165 31.19 73.54c12.643 29.811 12.643 63.479 0 93.291l-31.19 73.542 68.46 41.164c27.752 16.687 47.54 43.924 54.835 75.473l17.994 77.83 79.581-6.938c32.259-2.812 64.277 7.592 88.725 28.828z" />
<glyph unicode="&#xe935;" glyph-name="icon-question" d="M512 648.533c-51.43 0-89.601-39.048-89.601-82.983 0-21.208-17.193-38.399-38.4-38.399s-38.4 17.191-38.4 38.399c0 90.141 76.445 159.783 166.401 159.783 89.954 0 166.4-69.642 166.4-159.783 0-51.519-25.361-96.818-63.654-125.704-18.479-13.939-35.26-27.802-47.39-42.543-11.959-14.537-16.956-26.978-16.956-38.468v-13.235c0-21.21-17.195-38.4-38.4-38.4-21.21 0-38.4 17.19-38.4 38.4v13.235c0 35.631 16 64.836 34.445 87.258 18.274 22.217 41.306 40.623 60.45 55.066 20.663 15.59 33.105 38.917 33.105 64.392 0 43.936-38.17 82.983-89.6 82.983zM554.667 213.333c0-23.565-19.102-42.667-42.667-42.667s-42.667 19.102-42.667 42.667c0 23.565 19.102 42.667 42.667 42.667s42.667-19.102 42.667-42.667zM981.333 448c0 259.206-210.129 469.333-469.333 469.333-259.206 0-469.333-210.128-469.333-469.333 0-259.204 210.128-469.333 469.333-469.333s469.333 210.129 469.333 469.333zM904.533 448c0-216.789-175.744-392.533-392.533-392.533s-392.533 175.744-392.533 392.533c0 216.79 175.743 392.533 392.533 392.533s392.533-175.743 392.533-392.533z" />
<glyph unicode="&#xe936;" glyph-name="icon-refresh" d="M503.838 894.376c7.97 3.302 17.148 1.477 23.249-4.625l128-128c8.329-8.331 8.329-21.839 0-30.17l-128-128c-6.101-6.101-15.279-7.927-23.249-4.624-7.974 3.302-13.171 11.081-13.171 19.709v88.739c-133.76-10.854-238.929-122.848-238.929-259.406 0-39.987 8.992-77.769 25.027-111.522 9.1-19.157 0.948-42.061-18.208-51.162s-42.062-0.947-51.162 18.206c-20.823 43.836-32.456 92.851-32.456 144.478 0 178.991 139.514 325.396 315.729 336.403v90.263c0 8.628 5.197 16.407 13.171 19.709zM520.162 297.041c-7.97 3.302-17.148 1.476-23.249-4.625l-127.998-128c-8.332-8.329-8.332-21.837 0-30.17l127.998-128c6.101-6.101 15.279-7.923 23.249-4.625 7.974 3.302 13.171 11.085 13.171 19.712v90.266c176.218 11.004 315.738 157.41 315.738 336.401 0 51.627-11.631 100.643-32.457 144.478-9.101 19.156-32.004 27.308-51.162 18.208s-27.311-32.006-18.21-51.162c16.038-33.755 25.028-71.537 25.028-111.524 0-136.559-105.173-248.555-238.938-259.405v88.738c0 8.627-5.197 16.405-13.171 19.708z" />
<glyph unicode="&#xe937;" glyph-name="icon-remove-circle" d="M938.667 448c0 235.642-191.027 426.667-426.667 426.667-235.642 0-426.667-191.025-426.667-426.667 0-235.639 191.025-426.667 426.667-426.667 235.639 0 426.667 191.027 426.667 426.667zM861.867 448c0-193.225-156.642-349.867-349.867-349.867-193.226 0-349.867 156.642-349.867 349.867 0 193.226 156.64 349.867 349.867 349.867 193.225 0 349.867-156.64 349.867-349.867zM612.843 603.154c14.997 14.996 39.309 14.996 54.306 0s14.997-39.31 0-54.306l-100.843-100.844 100.851-100.851c14.997-14.997 14.997-39.309 0-54.306-14.997-14.993-39.309-14.993-54.306 0l-100.851 100.851-100.851-100.851c-14.996-14.993-39.31-14.993-54.306 0-14.996 14.997-14.996 39.309 0 54.306l100.851 100.851-100.843 100.844c-14.996 14.996-14.996 39.31 0 54.306s39.31 14.996 54.306 0l100.843-100.844 100.843 100.844z" />
<glyph unicode="&#xe938;" glyph-name="icon-repeat" d="M247.467 448c0 143.742 116.525 260.268 260.267 260.268 61.986 0 118.916-21.65 163.639-57.862l-62.353-62.354c-6.101-6.101-7.927-15.277-4.625-23.249s11.081-13.169 19.712-13.169h181.018c11.78 0 21.333 9.551 21.333 21.333v181.019c0 8.629-5.197 16.407-13.171 19.709-7.97 3.302-17.143 1.477-23.245-4.624l-64.137-64.134c-58.773 49.949-134.946 80.131-218.172 80.131-186.157 0-337.067-150.91-337.067-337.068 0-186.155 150.91-337.067 337.067-337.067 141.922 0 263.266 87.697 312.977 211.716 7.889 19.686-1.673 42.039-21.355 49.929-19.686 7.893-42.044-1.668-49.933-21.355-38.434-95.885-132.211-163.49-241.69-163.49-143.741 0-260.267 116.527-260.267 260.267z" />
<glyph unicode="&#xe939;" glyph-name="icon-returns" d="M725.47 153.946c-14.332-15.633-13.274-39.923 2.359-54.255 15.633-14.327 39.923-13.274 54.255 2.359l85.333 93.090c13.457 14.682 13.457 37.218 0 51.9l-85.333 93.090c-14.332 15.633-38.622 16.687-54.255 2.359-15.633-14.332-16.691-38.622-2.359-54.255l26.347-28.745h-69.15c-49.485 0-89.6 40.115-89.6 89.6v98.91c0 21.205-17.19 38.4-38.4 38.4s-38.4-17.195-38.4-38.4v-98.91c0-91.9 74.5-166.4 166.4-166.4h69.15l-26.347-28.745zM128 955.734h469.333c68.335 0 123.733-55.397 123.733-123.734v-175.564c171.874-28.483 302.933-177.82 302.933-357.771 0-200.294-162.372-362.667-362.667-362.667-194.573 0-353.361 153.229-362.272 345.6h-171.060c-68.336 0-123.734 55.398-123.734 123.733v426.668c0 68.336 55.397 123.734 123.734 123.734zM644.267 660.939v171.062c0 25.921-21.013 46.933-46.933 46.933h-89.6v-174.934c0-14.761-8.461-28.216-21.764-34.61-13.308-6.394-29.099-4.597-40.623 4.625l-82.68 66.143-82.678-66.143c-11.526-9.221-27.319-11.019-40.623-4.625s-21.766 19.849-21.766 34.61v174.934h-89.599c-25.921 0-46.933-21.012-46.933-46.933v-426.668c0-25.92 21.012-46.933 46.933-46.933h175.562c27.578 166.409 168.45 294.559 340.704 302.539zM430.933 878.934h-136.534v-95.038l44.279 35.423c14.025 11.22 33.952 11.22 47.977 0l44.279-35.423v95.038zM661.333 12.8c157.879 0 285.867 127.987 285.867 285.867s-127.987 285.867-285.867 285.867c-157.879 0-285.867-127.987-285.867-285.867s127.987-285.867 285.867-285.867z" />
<glyph unicode="&#xe93a;" glyph-name="icon-search" d="M697.852 316.467c93.376 122.965 83.947 299.075-28.288 411.309-122.526 122.528-321.182 122.528-443.71 0s-122.528-321.184 0-443.71c114.432-114.432 295.268-121.993 418.473-22.682l176.051-176.051c14.993-14.993 39.309-14.993 54.302 0 14.997 14.997 14.997 39.309 0 54.306l-176.828 176.828zM615.262 673.47c92.535-92.535 92.535-242.567 0-335.098-92.535-92.535-242.567-92.535-335.102 0-92.535 92.531-92.535 242.563 0 335.098s242.566 92.535 335.102 0z" />
<glyph unicode="&#xe93b;" glyph-name="icon-selection" d="M720.094 518.417c15.313 14.673 39.62 14.157 54.293-1.152 14.677-15.313 14.157-39.62-1.152-54.293l-212.595-203.738c-15.113-14.481-39.044-14.191-53.803 0.653l-107.084 107.725c-14.952 15.040-14.879 39.356 0.162 54.306s39.355 14.878 54.305-0.162l80.503-80.986 185.37 177.647zM934.4 149.35c0-68.335-55.398-123.733-123.733-123.733h-469.335c-68.336 0-123.733 55.398-123.733 123.733v4.267h-4.266c-68.336 0-123.733 55.398-123.733 123.733v469.333c0 68.336 55.397 123.733 123.733 123.733h469.334c68.335 0 123.733-55.397 123.733-123.733v-4.267h4.267c68.335 0 123.733-55.397 123.733-123.733v-469.333zM341.332 665.617c-25.921 0-46.934-21.013-46.934-46.933v-469.333c0-25.92 21.013-46.933 46.933-46.933h469.335c25.92 0 46.933 21.013 46.933 46.933v469.333c0 25.92-21.013 46.933-46.933 46.933h-469.334zM729.6 742.417v4.267c0 25.92-21.013 46.933-46.933 46.933h-469.334c-25.921 0-46.934-21.013-46.934-46.933v-469.333c0-25.92 21.013-46.933 46.934-46.933h4.266v388.266c0 68.336 55.397 123.733 123.733 123.733h388.268z" />
<glyph unicode="&#xe93c;" glyph-name="icon-shares" d="M352 543.98c0 35.346 28.654 64 64 64s64-28.654 64-64-28.655-64.002-64-64.002c-35.346 0-64 28.655-64 64.002zM416 527.979c-8.837 0-16 7.165-16 16.002s7.163 16 16 16c8.837 0 16-7.163 16-16s-7.163-16.002-16-16.002zM608 415.979c-35.345 0-64-28.651-64-64 0-35.345 28.655-64 64-64s64 28.655 64 64c0 35.349-28.655 64-64 64zM592 351.979c0-8.836 7.164-16 16-16s16 7.164 16 16c0 8.836-7.164 16-16 16s-16-7.164-16-16zM637.726 525.879c9.997 9.996 9.997 26.205 0 36.202s-26.206 9.997-36.203 0l-203.647-203.648c-9.998-9.997-9.998-26.206 0-36.203s26.206-9.997 36.206 0l203.644 203.648zM468.715 824.284l-39.33-36.087c-13.673-12.544-32.117-18.537-50.551-16.425l-53.032 6.075c-32.999 3.78-63.405-18.311-70.007-50.863l-10.61-52.314c-3.688-18.185-15.087-33.874-31.242-43.001l-46.475-26.256c-28.919-16.338-40.533-52.083-26.74-82.299l22.166-48.559c7.705-16.879 7.705-36.271 0-53.154l-22.166-48.559c-13.792-30.212-2.178-65.958 26.74-82.295l46.475-26.257c16.155-9.126 27.554-24.815 31.242-42.999l10.61-52.318c6.602-32.55 37.008-54.643 70.007-50.863l53.032 6.076c18.435 2.112 36.878-3.878 50.551-16.422l39.33-36.087c24.478-22.455 62.063-22.455 86.537 0l39.33 36.087c13.675 12.544 32.119 18.534 50.551 16.422l53.035-6.076c32.998-3.78 63.403 18.313 70.007 50.863l10.607 52.318c3.691 18.185 15.087 33.873 31.245 42.999l46.473 26.257c28.919 16.337 40.533 52.083 26.739 82.295l-22.165 48.559c-7.701 16.883-7.706 36.275 0 53.154l22.165 48.559c13.794 30.216 2.18 65.961-26.739 82.299l-46.473 26.256c-16.158 9.127-27.554 24.816-31.245 43.001l-10.607 52.314c-6.605 32.552-37.009 54.643-70.007 50.863l-53.035-6.075c-18.432-2.112-36.877 3.881-50.551 16.425l-39.33 36.087c-24.474 22.455-62.059 22.455-86.537 0zM520.636 786.557l39.334-36.087c24.61-22.579 57.809-33.366 90.991-29.565l53.030 6.075c6.601 0.756 12.685-3.663 14.003-10.173l10.611-52.314c6.639-32.733 27.157-60.973 56.235-77.402l46.477-26.256c5.781-3.268 8.107-10.417 5.346-16.46l-22.165-48.559c-13.871-30.383-13.871-65.289 0-95.676l22.165-48.559c2.761-6.042 0.435-13.193-5.346-16.457l-46.477-26.257c-29.077-16.431-49.596-44.672-56.235-77.402l-10.611-52.314c-1.318-6.511-7.403-10.931-14.003-10.176l-53.030 6.076c-33.182 3.802-66.381-6.985-90.991-29.564l-39.334-36.087c-4.894-4.489-12.412-4.489-17.306 0l-39.334 36.087c-24.61 22.579-57.808 33.365-90.99 29.564l-53.032-6.076c-6.6-0.755-12.681 3.665-14.001 10.176l-10.61 52.314c-6.639 32.73-27.156 60.971-56.236 77.402l-46.475 26.257c-5.783 3.264-8.106 10.415-5.348 16.457l22.166 48.559c13.869 30.387 13.869 65.293 0 95.676l-22.166 48.559c-2.758 6.043-0.436 13.192 5.348 16.46l46.475 26.256c29.079 16.429 49.597 44.669 56.236 77.402l10.61 52.314c1.321 6.51 7.402 10.929 14.001 10.173l53.032-6.075c33.182-3.801 66.38 6.986 90.99 29.565l39.334 36.087c4.894 4.491 12.412 4.491 17.306 0z" />
<glyph unicode="&#xe93d;" glyph-name="icon-shop" d="M925.052 498.833c26.359 26.266 42.667 62.606 42.667 102.755l-0.009 26.077-1.135 4.586-34.59 117.010c-9.020 36.088-41.455 61.405-78.652 61.405h-682.668c-37.199 0-69.624-25.317-78.646-61.405l-35.725-121.596v-26.061c0-40.149 16.31-76.489 42.667-102.755v-345.263c0-44.77 36.295-81.067 81.067-81.067h663.957c44.774 0 81.067 36.297 81.067 81.067v345.246zM170.673 733.867h89.594v-132.262c0-37.702-21.204-68.267-58.907-68.267s-68.267 30.564-68.267 68.267v16.606l33.44 112.423c0.475 1.9 2.182 3.232 4.139 3.232zM337.068 733.867h136.532v-132.278c0-37.702-30.562-68.268-68.266-68.268-37.702 0-68.266 30.582-68.266 68.285v132.262zM422.401 457.515c35.297 4.139 66.721 20.945 89.599 45.756 26.509-28.745 64.486-46.75 106.667-46.75 42.185 0 80.162 18.005 106.667 46.75 26.509-28.745 55.138-46.75 97.318-46.75 8.738 0 17.293 0.772 25.6 2.253v-305.186c0-2.355-1.907-4.267-4.267-4.267h-421.584v308.194zM771.947 569.098c-0.683 1.261-1.327 2.546-1.933 3.853-4.032 8.709-6.281 18.411-6.281 28.638v132.278h89.6c1.958 0 3.661-1.332 4.139-3.232l33.442-112.423v-16.606c0-37.702-30.566-68.267-68.267-68.267-25.937 0-39.147 14.461-50.701 35.759zM618.667 533.321c-37.7 0-68.267 30.566-68.267 68.268v132.278h136.525v-132.262l0.004-0.909c-0.478-37.292-30.857-67.376-68.262-67.376zM201.361 456.538c42.178 0 70.792 18.001 97.299 46.741 13.127-14.238 29.068-25.843 46.941-33.929v-320.030h-165.574c-2.356 0-4.267 1.911-4.267 4.267v305.203c8.31-1.481 16.865-2.253 25.6-2.253z" />
<glyph unicode="&#xe93e;" glyph-name="icon-sign-in" d="M725.338 870.401c115.465 0 209.067-93.602 209.067-209.067v-426.668c0-115.465-93.602-209.067-209.067-209.067h-426.667c-115.465 0-209.067 93.602-209.067 209.067v21.333c0 21.21 17.192 38.4 38.4 38.4s38.4-17.19 38.4-38.4v-21.333c0-73.050 59.217-132.267 132.267-132.267h426.667c73.050 0 132.267 59.217 132.267 132.267v426.668c0 73.049-59.217 132.267-132.267 132.267h-426.667c-73.049 0-132.267-59.217-132.267-132.267v-21.333c0-21.207-17.193-38.4-38.4-38.4s-38.4 17.193-38.4 38.4v21.333c0 115.465 93.602 209.067 209.067 209.067h426.667zM128.012 486.4c-21.207 0-38.4-17.195-38.4-38.4 0-21.21 17.193-38.4 38.4-38.4h461.961l-105.114-105.114c-14.997-14.997-14.997-39.309 0-54.306s39.309-14.997 54.306 0l170.667 170.667c14.997 14.997 14.997 39.309 0 54.306l-170.667 170.665c-14.997 14.996-39.309 14.996-54.306 0s-14.997-39.31 0-54.306l105.114-105.113h-461.961z" />
<glyph unicode="&#xe93f;" glyph-name="icon-sign-out" d="M256.004 870.401c-115.465 0-209.067-93.602-209.067-209.067v-426.668c0-115.465 93.602-209.067 209.067-209.067h213.333c115.465 0 209.067 93.602 209.067 209.067v21.333c0 21.21-17.19 38.4-38.4 38.4s-38.4-17.19-38.4-38.4v-21.333c0-73.050-59.217-132.267-132.267-132.267h-213.333c-73.049 0-132.267 59.217-132.267 132.267v426.668c0 73.049 59.218 132.267 132.267 132.267h213.333c73.050 0 132.267-59.217 132.267-132.267v-21.333c0-21.207 17.19-38.4 38.4-38.4s38.4 17.193 38.4 38.4v21.333c0 115.465-93.602 209.067-209.067 209.067h-213.333zM384.004 486.4c-21.208 0-38.4-17.195-38.4-38.4 0-21.21 17.192-38.4 38.4-38.4h461.961l-105.114-105.114c-14.997-14.997-14.997-39.309 0-54.306s39.309-14.997 54.306 0l170.667 170.667c14.997 14.997 14.997 39.309 0 54.306l-170.667 170.665c-14.997 14.996-39.309 14.996-54.306 0s-14.997-39.31 0-54.306l105.114-105.113h-461.961z" />
<glyph unicode="&#xe940;" glyph-name="icon-speaker" d="M947.204 782.112v-521.414c0-34.627-33.654-59.266-66.666-48.805l-460.32 145.873v327.282l460.32 145.872c33.012 10.461 66.666-14.18 66.666-48.808zM420.218 286.153l439.698-139.339c77.021-24.407 155.557 33.091 155.557 113.885v521.414c0 80.797-78.537 138.293-155.557 113.885l-479.108-151.826h-177.875c-33.43 0-81.712-11.482-122.231-45.82-41.819-35.44-72.163-92.529-72.163-176.946 0-84.413 30.344-141.505 72.163-176.943 28.146-23.855 60.039-36.679 88.097-42.283v-256.843c0-42.413 34.385-76.8 76.8-76.8h97.821c42.416 0 76.798 34.387 76.798 76.8v240.817zM351.953 366.907h-149.021c-19.99 0-51.838 7.381-78.095 29.633-24.956 21.15-48.032 58.376-48.032 124.865s23.076 103.717 48.032 124.866c26.257 22.252 58.105 29.633 78.095 29.633h149.021v-308.997zM351.953 298.642v-253.306c0-4.714-3.82-8.535-8.533-8.535h-97.821c-4.713 0-8.533 3.82-8.533 8.535v253.306h114.888z" />
<glyph unicode="&#xe941;" glyph-name="icon-star" d="M856.768 569.95l-217.98 18.915-85.12 200.415c-15.313 36.48-67.554 36.48-82.867 0l-85.121-200.865-217.529-18.465c-39.632-3.153-55.846-52.694-25.671-78.814l165.286-143.219-49.541-212.574c-9.008-38.733 32.877-69.359 67.105-48.64l186.904 112.593 186.901-113.045c34.231-20.715 76.113 9.911 67.106 48.64l-49.54 213.026 165.286 143.219c30.174 26.121 14.413 75.662-25.22 78.814z" />
<glyph unicode="&#xe942;" glyph-name="icon-stethoscope" d="M597.319 736.063c18.849 0 34.135 15.282 34.135 34.133v128c0 18.851-15.285 34.133-34.135 34.133-18.853 0-34.135-15.282-34.135-34.133v-32.071h-8.515c-65.981 0-119.469-53.487-119.469-119.467v-170.667c0-148.688 111.852-271.253 256-288.145v-117.189c0-63.622-51.574-115.2-115.2-115.2-63.622 0-115.2 51.578-115.2 115.2v85.335c0 101.325-82.139 183.465-183.465 183.465h-5.333c-87.2 0-159.766-62.657-175.133-145.404-43.727-13.32-75.542-53.969-75.542-102.053 0-58.912 47.756-106.665 106.667-106.665s106.667 47.754 106.667 106.665c0 45.391-28.351 84.157-68.311 99.564 13.133 45.974 55.463 79.628 105.653 79.628h5.333c63.623 0 115.2-51.578 115.2-115.2v-85.335c0-101.325 82.14-183.465 183.465-183.465 101.329 0 183.469 82.141 183.469 183.465v117.189c144.152 16.892 256 139.457 256 288.145v170.667c0 65.979-53.488 119.467-119.469 119.467h-8.546v32.071c0 18.851-15.285 34.133-34.135 34.133-18.853 0-34.135-15.282-34.135-34.133v-128c0-18.851 15.281-34.133 34.135-34.133 18.849 0 34.135 15.282 34.135 34.133v27.663h8.546c28.278 0 51.2-22.923 51.2-51.2v-170.667c0-110.926-81.404-202.838-187.731-219.258v0.591h-68.269v-0.591c-106.327 16.419-187.731 108.331-187.731 219.258v170.667c0 28.277 22.922 51.2 51.2 51.2h8.515v-27.663c0-18.851 15.281-34.133 34.135-34.133zM127.994 153.6c21.208 0 38.4 17.191 38.4 38.4s-17.192 38.4-38.4 38.4c-21.208 0-38.4-17.191-38.4-38.4s17.192-38.4 38.4-38.4z" />
<glyph unicode="&#xe943;" glyph-name="icon-stethoscope-sm" d="M458.129 808.72c23.262 23.262 60.979 23.262 84.241 0l28.079-28.080c23.262-23.262 23.262-60.978 0-84.24-21.056-21.059-53.961-23.053-77.265-5.984-13.513-26.775-21.184-57.32-21.184-89.818 0-107.307 83.29-192.614 184-192.614s184 85.308 184 192.614c0 31.561-7.236 61.28-20.032 87.492-23.014-14.508-53.798-11.738-73.847 8.31-23.262 23.262-23.262 60.977 0 84.24l28.083 28.080c23.262 23.262 60.975 23.262 84.237 0 23.266-23.262 23.266-60.978 0-84.24l-2.231-2.234c20.224-35.741 31.791-77.341 31.791-121.648 0-123.669-90.428-226.867-208-239.347v-146.603c0-78.793-63.872-142.665-142.669-142.665-78.793 0-142.665 63.872-142.665 142.665v120c0 49.34-39.996 89.335-89.333 89.335-44.271 0-81.019-32.205-88.101-74.462 31.819-10.569 54.767-40.572 54.767-75.938 0-44.186-35.817-80-80-80s-80 35.814-80 80c0 36.139 23.965 66.684 56.87 76.604 7.717 68.531 65.87 121.796 136.464 121.796 75.847 0 137.333-61.487 137.333-137.335v-120c0-52.279 42.385-94.665 94.665-94.665 52.284 0 94.669 42.385 94.669 94.665v146.603c-117.572 12.48-208 115.678-208 239.347 0 45.515 12.203 88.173 33.463 124.558-22.592 23.311-22.37 60.527 0.666 83.565zM520.149 730.341l-28.079 28.080c-4.518 4.517-4.518 11.841 0 16.358s11.84 4.517 16.358 0l28.079-28.080c4.518-4.517 4.518-11.84 0-16.358-4.514-4.517-11.84-4.517-16.358 0zM808.145 774.778l-28.083-28.080c-4.514-4.517-4.514-11.841 0-16.358 4.518-4.517 11.844-4.517 16.358 0l28.083 28.080c4.514 4.517 4.514 11.84 0 16.358-4.518 4.517-11.844 4.517-16.358 0zM192 241.583c17.673 0 32 14.327 32 32s-14.327 32-32 32c-17.673 0-32-14.327-32-32s14.327-32 32-32z" />
<glyph unicode="&#xe944;" glyph-name="icon-substance" d="M584 224c0 30.929 25.071 56 56 56s56-25.071 56-56c0-30.929-25.071-56-56-56s-56 25.071-56 56zM640 232c-4.42 0-8-3.58-8-8s3.58-8 8-8c4.42 0 8 3.58 8 8s-3.58 8-8 8zM432 312c-39.764 0-72-32.235-72-72s32.236-72 72-72c39.765 0 72 32.235 72 72s-32.235 72-72 72zM408 240c0 13.257 10.745 24 24 24 13.257 0 24-10.743 24-24s-10.743-24-24-24c-13.255 0-24 10.743-24 24zM352 856c0 13.255 10.745 24 24 24h288c13.257 0 24-10.745 24-24s-10.743-24-24-24h-21.175v-94.818c0-17.119 11.661-34.006 30.699-42.688 121.634-55.479 206.477-175.232 206.477-314.683 0-192.917-162.022-347.81-360-347.81s-360 154.893-360 347.81c0 139.452 84.842 259.204 206.477 314.683 19.037 8.683 30.7 25.569 30.7 42.688v94.818h-21.176c-13.255 0-24 10.745-24 24zM445.175 832v-94.818c0-39.575-26.234-71.516-58.779-86.36-85.828-39.147-149.741-114.58-170.864-205.262 40.139 26.846 103.941 57.425 187.656 49.003 57.036-5.743 98.017-29.943 133.857-51.106l5.969-3.52c37.594-22.106 70.669-39.936 117.901-39.936 79.548 0 133.431 30.831 161.835 52.548-22.716 87.56-85.534 160.136-169.148 198.273-32.546 14.845-58.778 46.785-58.778 86.36v94.818h-149.649zM208 379.486c0.181-164.604 138.956-299.486 312-299.486 173.158 0 312 135.057 312 299.81 0 6.805-0.235 13.555-0.7 20.25-36.774-23.356-93.602-48.060-170.385-48.060-61.158 0-103.957 24.055-142.229 46.562l-4.429 2.603c-8.563 5.043-16.909 9.958-25.259 14.592-15.245-37.773-53.577-63.757-96.998-63.757-49.198 0-91.866 33.361-101.815 79.428-35.91-14.66-62.179-35.823-79.465-49.754l-2.719-2.189zM445.308 436.164c-14.374 5.15-29.717 8.905-46.927 10.637-22.484 2.261-43.076 1.225-61.83-2.014 3.744-24.491 26.194-44.787 55.449-44.787 25.738 0 46.208 15.71 53.308 36.164z" />
<glyph unicode="&#xe945;" glyph-name="icon-tag" d="M773.604 550.435c40.227 40.224 40.227 105.442 0 145.668-40.224 40.225-105.444 40.225-145.668 0-40.227-40.225-40.227-105.444 0-145.668 40.224-40.227 105.444-40.227 145.668 0zM725.335 598.706c-13.568-13.566-35.56-13.566-49.128 0-13.564 13.566-13.564 35.56 0 49.126 13.568 13.566 35.56 13.566 49.128 0 13.564-13.566 13.564-35.56 0-49.126zM958.594 768.431c-5.754 56.386-50.334 100.968-106.72 106.722l-273.766 27.935c-35.73 3.646-71.203-8.977-96.603-34.374l-402.648-402.649c-46.655-46.655-46.655-122.297 0-168.952l301.699-301.698c46.653-46.655 122.296-46.655 168.951 0l402.649 402.649c25.399 25.395 38.022 60.873 34.375 96.603l-27.936 273.764zM844.942 807.239c24.166-2.466 43.272-21.573 45.737-45.738l27.936-273.762c1.564-15.317-3.848-30.519-14.73-41.401l-402.649-402.653c-19.996-19.992-52.413-19.992-72.409 0l-301.7 301.702c-19.995 19.992-19.995 52.413 0 72.405l402.65 402.651c10.882 10.884 26.088 16.294 41.401 14.732l273.762-27.935z" />
<glyph unicode="&#xe946;" glyph-name="icon-trash" d="M678.4 793.617c0 54.198-43.938 98.133-98.133 98.133h-136.533c-54.199 0-98.134-43.936-98.134-98.133v-29.867h-174.933c-21.208 0-38.4-17.192-38.4-38.4s17.192-38.4 38.4-38.4h682.668c21.205 0 38.4 17.192 38.4 38.4s-17.195 38.4-38.4 38.4h-174.933v29.867zM422.399 793.617c0 11.782 9.55 21.333 21.334 21.333h136.533c11.78 0 21.333-9.551 21.333-21.333v-29.867h-179.201v29.867zM237.272 635.75c-35.703 0-63.432-31.113-59.34-66.58l50.796-440.227c8.198-71.044 68.354-124.659 139.872-124.659h286.807c71.518 0 131.674 53.615 139.87 124.659l50.795 440.227c4.092 35.467-23.637 66.58-59.341 66.58h-549.458zM305.021 137.749l-48.6 421.201h511.161l-48.597-421.201c-3.729-32.294-31.070-56.666-63.578-56.666h-286.807c-32.508 0-59.852 24.371-63.578 56.666z" />
<glyph unicode="&#xe947;" glyph-name="icon-user" d="M512.004 827.734c-115.465 0-209.067-93.602-209.067-209.067 0-61.905 26.906-117.526 69.661-155.807-134.489-46.997-237.924-160.098-271.441-300.343-12.482-52.224 30.193-94.251 76.852-94.251h667.959c46.635 0 89.357 42.001 76.868 94.251-33.515 140.241-136.947 253.342-271.433 300.339 42.761 38.281 69.666 93.904 69.666 155.811 0 115.465-93.602 209.067-209.067 209.067zM379.738 618.668c0 73.049 59.217 132.267 132.267 132.267s132.267-59.217 132.267-132.267c0-73.049-59.217-132.268-132.267-132.268s-132.267 59.219-132.267 132.268zM178.010 145.067c-0.91 0-1.548 0.243-1.944 0.482 36.64 151.531 173.193 264.051 335.934 264.051 162.735 0 299.285-112.516 335.927-264.043-0.397-0.243-1.041-0.491-1.958-0.491h-667.959z" />
<glyph unicode="&#xe948;" glyph-name="icon-widget" d="M85.333 746.667v-128c0-70.692 57.308-128 128-128h128c70.692 0 128 57.308 128 128v128c0 70.692-57.308 128-128 128h-128c-70.692 0-128-57.308-128-128zM213.333 797.867h128c28.277 0 51.2-22.923 51.2-51.2v-128c0-28.277-22.923-51.2-51.2-51.2h-128c-28.277 0-51.2 22.923-51.2 51.2v128c0 28.277 22.923 51.2 51.2 51.2zM554.667 746.667v-128c0-70.692 57.306-128 128-128h128c70.694 0 128 57.308 128 128v128c0 70.692-57.306 128-128 128h-128c-70.694 0-128-57.308-128-128zM682.667 797.867h128c28.275 0 51.2-22.923 51.2-51.2v-128c0-28.277-22.925-51.2-51.2-51.2h-128c-28.275 0-51.2 22.923-51.2 51.2v128c0 28.277 22.925 51.2 51.2 51.2zM682.667 405.333h128c70.694 0 128-57.306 128-128v-128c0-70.694-57.306-128-128-128h-128c-70.694 0-128 57.306-128 128v128c0 70.694 57.306 128 128 128zM810.667 328.533h-128c-28.275 0-51.2-22.925-51.2-51.2v-128c0-28.275 22.925-51.2 51.2-51.2h128c28.275 0 51.2 22.925 51.2 51.2v128c0 28.275-22.925 51.2-51.2 51.2zM85.333 277.333v-128c0-70.694 57.308-128 128-128h128c70.692 0 128 57.306 128 128v128c0 70.694-57.308 128-128 128h-128c-70.692 0-128-57.306-128-128zM213.333 328.533h128c28.277 0 51.2-22.925 51.2-51.2v-128c0-28.275-22.923-51.2-51.2-51.2h-128c-28.277 0-51.2 22.925-51.2 51.2v128c0 28.275 22.923 51.2 51.2 51.2z" />
</font>
</defs>
</svg>
